<svg width="1440" height="967" viewBox="0 0 1440 967" fill="none" xmlns="http://www.w3.org/2000/svg">
<g clip-path="url(#clip0_327_2)">
<g clip-path="url(#clip1_327_2)">
<path d="M1379.84 404.534H1375.54V400.234H1379.84V404.534Z" fill="white"/>
<path d="M1395.24 451.33H1390.94V447.03H1395.24V451.33Z" fill="white"/>
<path d="M1359.03 404.534H1354.73V400.234H1359.03V404.534Z" fill="white"/>
<path d="M1415.63 570.706C1415.63 562.7 1409.14 556.209 1401.13 556.209C1393.12 556.209 1386.63 562.7 1386.63 570.706C1386.63 578.712 1393.12 585.202 1401.13 585.202C1409.14 585.202 1415.63 578.712 1415.63 570.706Z" fill="#F2F2F2"/>
<path d="M1319.99 145.651L1246.51 418.663L1246.4 419.033H1204.6L1204.77 418.402L1278.19 145.651H1319.99Z" fill="white"/>
<path d="M1475.75 378.252C1439.68 469.97 1290.23 651.57 981.012 644.233M1358.98 402.384H1375.39M1392.81 447.078L1378.08 404.653M1375.54 404.534H1379.84V400.234H1375.54V404.534ZM1390.94 451.33H1395.24V447.03H1390.94V451.33ZM1354.73 404.534H1359.03V400.234H1354.73V404.534ZM1415.63 570.706C1415.63 562.7 1409.14 556.209 1401.13 556.209C1393.12 556.209 1386.63 562.7 1386.63 570.706C1386.63 578.712 1393.12 585.202 1401.13 585.202C1409.14 585.202 1415.63 578.712 1415.63 570.706ZM1401.13 526.216C1409.14 526.216 1415.63 532.707 1415.63 540.713C1415.63 548.719 1409.14 555.209 1401.13 555.209C1393.12 555.209 1386.63 548.719 1386.63 540.713C1386.63 532.707 1393.12 526.216 1401.13 526.216ZM1401.13 586.209C1409.14 586.209 1415.63 592.7 1415.63 600.706C1415.63 608.712 1409.14 615.202 1401.13 615.202C1393.12 615.202 1386.63 608.712 1386.63 600.706C1386.63 592.7 1393.12 586.209 1401.13 586.209ZM1319.99 145.651H1278.19L1204.77 418.402L1204.6 419.033H1246.4L1246.51 418.663L1319.99 145.651Z" stroke="#CDCED8"/>
</g>
<g clip-path="url(#clip2_327_2)">
<path d="M209.21 168.221L71.2871 223.464V175.992L71.624 175.876L157.048 146.318V145.276L71.624 115.721L71.2871 115.605V68.1323L208.896 123.25L209.21 123.375V168.221Z" fill="white" stroke="#CDCED8"/>
<path d="M590.384 163.89C408.227 51.837 107.306 66.2155 -67.1162 210.775" stroke="#CDCED8" stroke-dasharray="33 33"/>
<path d="M601.207 145.799C601.207 137.792 594.717 131.302 586.71 131.302C578.704 131.302 572.214 137.792 572.214 145.799C572.214 153.805 578.704 160.295 586.71 160.295C594.717 160.295 601.207 153.805 601.207 145.799Z" fill="#F2F2F2"/>
<path d="M631.207 175.799C631.207 167.792 624.717 161.302 616.71 161.302C608.704 161.302 602.214 167.792 602.214 175.799C602.214 183.805 608.704 190.295 616.71 190.295C624.717 190.295 631.207 183.805 631.207 175.799Z" fill="#F2F2F2"/>
<path d="M661.201 145.806C661.201 137.799 654.711 131.309 646.704 131.309C638.698 131.309 632.208 137.799 632.208 145.806C632.208 153.812 638.698 160.302 646.704 160.302C654.711 160.302 661.201 153.812 661.201 145.806Z" fill="#F2F2F2"/>
<path d="M601.207 115.785C601.207 107.778 594.717 101.288 586.71 101.288C578.704 101.288 572.214 107.778 572.214 115.785C572.214 123.791 578.704 130.281 586.71 130.281C594.717 130.281 601.207 123.791 601.207 115.785Z" fill="#F2F2F2"/>
<path d="M601.207 145.799C601.207 137.792 594.717 131.302 586.71 131.302C578.704 131.302 572.214 137.792 572.214 145.799C572.214 153.805 578.704 160.295 586.71 160.295C594.717 160.295 601.207 153.805 601.207 145.799Z" stroke="#CDCED8"/>
<path d="M631.207 145.799C631.207 137.792 624.717 131.302 616.71 131.302C608.704 131.302 602.214 137.792 602.214 145.799C602.214 153.805 608.704 160.295 616.71 160.295C624.717 160.295 631.207 153.805 631.207 145.799Z" stroke="#CDCED8"/>
<path d="M631.207 175.799C631.207 167.792 624.717 161.302 616.71 161.302C608.704 161.302 602.214 167.792 602.214 175.799C602.214 183.805 608.704 190.295 616.71 190.295C624.717 190.295 631.207 183.805 631.207 175.799Z" stroke="#CDCED8"/>
<path d="M661.201 145.806C661.201 137.799 654.711 131.309 646.704 131.309C638.698 131.309 632.208 137.799 632.208 145.806C632.208 153.812 638.698 160.302 646.704 160.302C654.711 160.302 661.201 153.812 661.201 145.806Z" stroke="#CDCED8"/>
<path d="M601.207 115.785C601.207 107.778 594.717 101.288 586.71 101.288C578.704 101.288 572.214 107.778 572.214 115.785C572.214 123.791 578.704 130.281 586.71 130.281C594.717 130.281 601.207 123.791 601.207 115.785Z" stroke="#CDCED8"/>
<path d="M661.201 115.785C661.201 107.778 654.711 101.288 646.704 101.288C638.698 101.288 632.208 107.778 632.208 115.785C632.208 123.791 638.698 130.281 646.704 130.281C654.711 130.281 661.201 123.791 661.201 115.785Z" stroke="#CDCED8"/>
</g>
<path d="M94.7459 434.672C94.7459 426.666 88.2556 420.176 80.2494 420.176C72.2432 420.176 65.7529 426.666 65.7529 434.672C65.7529 442.678 72.2432 449.169 80.2494 449.169C88.2556 449.169 94.7459 442.678 94.7459 434.672Z" fill="#F2F2F2"/>
<path d="M124.746 464.672C124.746 456.666 118.256 450.176 110.249 450.176C102.243 450.176 95.7529 456.666 95.7529 464.672C95.7529 472.678 102.243 479.169 110.249 479.169C118.256 479.169 124.746 472.678 124.746 464.672Z" fill="#F2F2F2"/>
<path d="M94.7459 404.659C94.7459 396.652 88.2556 390.162 80.2494 390.162C72.2432 390.162 65.7529 396.652 65.7529 404.659C65.7529 412.665 72.2432 419.155 80.2494 419.155C88.2556 419.155 94.7459 412.665 94.7459 404.659Z" fill="#F2F2F2"/>
<path d="M94.7459 434.672C94.7459 426.666 88.2556 420.176 80.2494 420.176C72.2432 420.176 65.7529 426.666 65.7529 434.672C65.7529 442.678 72.2432 449.169 80.2494 449.169C88.2556 449.169 94.7459 442.678 94.7459 434.672Z" stroke="#CDCED8"/>
<path d="M124.746 434.672C124.746 426.666 118.256 420.176 110.249 420.176C102.243 420.176 95.7529 426.666 95.7529 434.672C95.7529 442.678 102.243 449.169 110.249 449.169C118.256 449.169 124.746 442.678 124.746 434.672Z" stroke="#CDCED8"/>
<path d="M124.746 464.672C124.746 456.666 118.256 450.176 110.249 450.176C102.243 450.176 95.7529 456.666 95.7529 464.672C95.7529 472.678 102.243 479.169 110.249 479.169C118.256 479.169 124.746 472.678 124.746 464.672Z" stroke="#CDCED8"/>
<path d="M94.7459 464.672C94.7459 456.666 88.2556 450.176 80.2494 450.176C72.2432 450.176 65.7529 456.666 65.7529 464.672C65.7529 472.678 72.2432 479.169 80.2494 479.169C88.2556 479.169 94.7459 472.678 94.7459 464.672Z" stroke="#CDCED8"/>
<path d="M94.7459 404.659C94.7459 396.652 88.2556 390.162 80.2494 390.162C72.2432 390.162 65.7529 396.652 65.7529 404.659C65.7529 412.665 72.2432 419.155 80.2494 419.155C88.2556 419.155 94.7459 412.665 94.7459 404.659Z" stroke="#CDCED8"/>
<path d="M124.494 771.669H120.194V775.969H124.494V771.669Z" fill="white"/>
<path d="M66.7426 771.669H62.4424V775.969H66.7426V771.669Z" fill="white"/>
<path d="M39.8329 811.917C39.8329 803.911 33.3426 797.421 25.3364 797.421C17.3302 797.421 10.8399 803.911 10.8399 811.917C10.8399 819.924 17.3302 826.414 25.3364 826.414C33.3426 826.414 39.8329 819.924 39.8329 811.917Z" fill="#F2F2F2"/>
<path d="M39.8319 781.924C39.8319 773.918 33.3416 767.428 25.3354 767.428C17.3292 767.428 10.8389 773.918 10.8389 781.924C10.8389 789.93 17.3292 796.421 25.3354 796.421C33.3416 796.421 39.8319 789.93 39.8319 781.924Z" fill="#F2F2F2"/>
<path d="M69.8387 811.917C69.8387 803.911 63.3484 797.421 55.3422 797.421C47.336 797.421 40.8457 803.911 40.8457 811.917C40.8457 819.924 47.336 826.414 55.3422 826.414C63.3484 826.414 69.8387 819.924 69.8387 811.917Z" fill="#F2F2F2"/>
<path d="M138.998 904.802C138.998 896.795 132.507 890.305 124.501 890.305C116.495 890.305 110.005 896.795 110.005 904.802C110.005 912.808 116.495 919.298 124.501 919.298C132.507 919.298 138.998 912.808 138.998 904.802Z" fill="#F2F2F2"/>
<path d="M108.991 874.802C108.991 866.795 102.501 860.305 94.4946 860.305C86.4884 860.305 79.9981 866.795 79.9981 874.802C79.9981 882.808 86.4884 889.298 94.4946 889.298C102.501 889.298 108.991 882.808 108.991 874.802Z" fill="#F2F2F2"/>
<path d="M138.991 874.802C138.991 866.795 132.5 860.305 124.494 860.305C116.488 860.305 109.998 866.795 109.998 874.802C109.998 882.808 116.488 889.298 124.494 889.298C132.5 889.298 138.991 882.808 138.991 874.802Z" fill="#F2F2F2"/>
<path d="M168.985 844.801C168.985 836.795 162.494 830.305 154.488 830.305C146.482 830.305 139.992 836.795 139.992 844.801C139.992 852.807 146.482 859.298 154.488 859.298C162.494 859.298 168.985 852.807 168.985 844.801Z" fill="#F2F2F2"/>
<path d="M66.8028 773.819H120.195M120.194 771.669H124.494V775.969H120.194V771.669ZM62.4424 771.669H66.7426V775.969H62.4424V771.669ZM25.3422 827.414C33.3484 827.414 39.8387 833.904 39.8387 841.911C39.8387 849.917 33.3484 856.407 25.3422 856.407C17.336 856.407 10.8457 849.917 10.8457 841.911C10.8457 833.904 17.336 827.414 25.3422 827.414ZM-4.64998 797.421C3.35621 797.421 9.84652 803.911 9.84652 811.917C9.84652 819.924 3.35621 826.414 -4.64998 826.414C-12.6562 826.414 -19.1465 819.924 -19.1465 811.917C-19.1465 803.911 -12.6562 797.421 -4.64998 797.421ZM25.3364 797.421C33.3426 797.421 39.8329 803.911 39.8329 811.917C39.8329 819.924 33.3426 826.414 25.3364 826.414C17.3302 826.414 10.8399 819.924 10.8399 811.917C10.8399 803.911 17.3302 797.421 25.3364 797.421ZM25.3354 767.428C33.3416 767.428 39.8319 773.918 39.8319 781.924C39.8319 789.93 33.3416 796.421 25.3354 796.421C17.3292 796.421 10.8389 789.93 10.8389 781.924C10.8389 773.918 17.3292 767.428 25.3354 767.428ZM55.3422 797.421C63.3484 797.421 69.8387 803.911 69.8387 811.917C69.8387 819.924 63.3484 826.414 55.3422 826.414C47.336 826.414 40.8457 819.924 40.8457 811.917C40.8457 803.911 47.336 797.421 55.3422 797.421ZM85.35 797.421C93.3562 797.421 99.8465 803.911 99.8465 811.917C99.8465 819.924 93.3562 826.414 85.35 826.414C77.3438 826.414 70.8535 819.924 70.8535 811.917C70.8535 803.911 77.3438 797.421 85.35 797.421ZM124.501 890.305C132.507 890.305 138.998 896.795 138.998 904.802C138.998 912.808 132.507 919.298 124.501 919.298C116.495 919.298 110.005 912.808 110.005 904.802C110.005 896.795 116.495 890.305 124.501 890.305ZM94.4946 860.305C102.501 860.305 108.991 866.795 108.991 874.802C108.991 882.808 102.501 889.298 94.4946 889.298C86.4884 889.298 79.9981 882.808 79.9981 874.802C79.9981 866.795 86.4884 860.305 94.4946 860.305ZM124.494 860.305C132.5 860.305 138.991 866.795 138.991 874.802C138.991 882.808 132.5 889.298 124.494 889.298C116.488 889.298 109.998 882.808 109.998 874.802C109.998 866.795 116.488 860.305 124.494 860.305ZM154.494 860.283C162.5 860.283 168.991 866.773 168.991 874.78C168.991 882.786 162.5 889.276 154.494 889.276C146.488 889.276 139.998 882.786 139.998 874.78C139.998 866.773 146.488 860.283 154.494 860.283ZM154.488 830.305C162.494 830.305 168.985 836.795 168.985 844.801C168.985 852.807 162.494 859.298 154.488 859.298C146.482 859.298 139.992 852.807 139.992 844.801C139.992 836.795 146.482 830.305 154.488 830.305Z" stroke="#CDCED8"/>
<path d="M627.035 814.263H861.182M590.65 768.819L625.721 814.262M627.87 812.112H623.57V816.412H627.87V812.112ZM592.8 766.67H588.5V770.97H592.8V766.67ZM863.331 812.112H859.031V816.412H863.331V812.112ZM1026.88 776.541C1026.88 789.819 995.07 800.583 955.832 800.583C916.594 800.583 884.785 789.819 884.785 776.541C884.785 763.264 916.594 752.5 955.832 752.5C995.07 752.5 1026.88 763.264 1026.88 776.541ZM1026.88 791.541C1026.88 804.819 995.07 815.583 955.832 815.583C916.594 815.583 884.785 804.819 884.785 791.541C884.785 778.264 916.594 767.5 955.832 767.5C995.07 767.5 1026.88 778.264 1026.88 791.541ZM1026.88 806.335C1026.88 819.613 995.07 830.377 955.832 830.377C916.594 830.377 884.785 819.613 884.785 806.335C884.785 793.058 916.594 782.294 955.832 782.294C995.07 782.294 1026.88 793.058 1026.88 806.335Z" stroke="#CDCED8"/>
<path d="M838.501 249.297H842.801V253.597H838.501V249.297Z" fill="white"/>
<path d="M838.501 202.5H842.801V206.8H838.501V202.5Z" fill="white"/>
<path d="M881.325 261.923H885.625V266.223H881.325V261.923Z" fill="white"/>
<path d="M881.361 263.865L842.98 252.131M840.651 206.822V249.297M842.801 249.297H838.501V253.597H842.801V249.297ZM842.801 202.5H838.501V206.8H842.801V202.5ZM885.625 261.923H881.325V266.223H885.625V261.923Z" stroke="#CDCED8"/>
</g>
<defs>
<clipPath id="clip0_327_2">
<rect width="1440" height="967" fill="white"/>
</clipPath>
<clipPath id="clip1_327_2">
<rect width="459" height="500" fill="white" transform="translate(981 145.151)"/>
</clipPath>
<clipPath id="clip2_327_2">
<rect width="662" height="379" fill="white" transform="translate(0 0.647461)"/>
</clipPath>
</defs>
</svg>
