<svg width="519" height="236" viewBox="0 0 519 236" fill="none" xmlns="http://www.w3.org/2000/svg">
<path d="M499.834 109.993V100.611H509.216V109.993H499.834Z" fill="#353535"/>
<path d="M509.215 100.611V91.229H518.597V100.611H509.215Z" fill="#C7FF46"/>
<path d="M509.215 81.8471V72.4653H518.597V81.8471H509.215Z" fill="#4662FF"/>
<path d="M467.316 9.38181L467.316 0L476.698 4.10092e-07V9.38181H467.316Z" fill="#4662FF"/>
<path d="M467.316 18.7636V9.38181H476.698V18.7637L467.316 18.7636Z" fill="#C7FF46"/>
<path d="M467.316 28.1455V18.7636L476.698 18.7637V28.1455H467.316Z" fill="#353535"/>
<path d="M69.6543 165.058V155.676H79.0361V165.058H69.6543Z" fill="#4662FF"/>
<path d="M79.0352 174.439V165.057H88.417V174.439H79.0352Z" fill="#4662FF"/>
<path d="M88.418 165.058V155.676H97.7998V165.058H88.418Z" fill="#C7FF46"/>
<path d="M97.7988 165.058V155.676H107.181V165.058H97.7988Z" fill="#353535"/>
<path d="M184.959 226.355V216.973H194.341V226.355H184.959Z" fill="#4662FF"/>
<path d="M194.342 216.974V207.592H203.724V216.974H194.342Z" fill="#C7FF46"/>
<path d="M175.578 235.737V226.355L184.959 226.355L184.96 235.737H175.578Z" fill="#C7FF46"/>
<path d="M0 133.888L4.10091e-07 124.506H9.38181V133.888H0Z" fill="#4662FF"/>
<path d="M0 152.651L4.10091e-07 143.27H9.38181V152.651H0Z" fill="#C7FF46"/>
<path d="M4.10091e-07 143.27L0 133.888H9.38181V143.27H4.10091e-07Z" fill="#C7FF46"/>
<path d="M4.10091e-07 124.506V115.124H9.38181V124.506H4.10091e-07Z" fill="#C7FF46"/>
<path d="M223.768 64.1528V54.771H233.15V64.1528L223.768 64.1528Z" fill="#4662FF"/>
<path d="M214.387 54.771V45.3892L223.769 45.3892L223.768 54.771L214.387 54.771Z" fill="#4662FF"/>
<path d="M223.768 54.771L223.769 45.3892H233.15V54.771H223.768Z" fill="#C7FF46"/>
<path d="M223.768 73.5347V64.1528L233.15 64.1528V73.5347H223.768Z" fill="#C7FF46"/>
<path d="M214.387 64.1528V54.771L223.768 54.771V64.1528H214.387Z" fill="#C7FF46"/>
<path d="M214.387 73.5347V64.1528H223.768V73.5347H214.387Z" fill="#4662FF"/>
<path d="M87.4384 139.629L71.302 81.4476H80.535L91.8702 126.504H92.41L104.2 81.4476H113.347L125.137 126.533H125.677L136.984 81.4476H146.245L130.08 139.629H121.245L109.001 96.0498H108.546L96.302 139.629H87.4384ZM158.862 113.72V139.629H150.368V81.4476H158.748V103.095H159.288C160.311 100.747 161.873 98.8813 163.976 97.4987C166.078 96.1161 168.824 95.4248 172.214 95.4248C175.207 95.4248 177.82 96.0404 180.055 97.2714C182.309 98.5025 184.051 100.34 185.282 102.783C186.532 105.207 187.157 108.237 187.157 111.874V139.629H178.663V112.896C178.663 109.696 177.839 107.215 176.192 105.453C174.544 103.673 172.252 102.783 169.317 102.783C167.309 102.783 165.51 103.209 163.919 104.061C162.347 104.913 161.106 106.163 160.197 107.811C159.307 109.44 158.862 111.41 158.862 113.72ZM213.673 140.51C209.582 140.51 206.012 139.573 202.963 137.698C199.914 135.823 197.546 133.199 195.861 129.828C194.175 126.457 193.332 122.518 193.332 118.01C193.332 113.484 194.175 109.525 195.861 106.135C197.546 102.745 199.914 100.112 202.963 98.2373C206.012 96.3623 209.582 95.4248 213.673 95.4248C217.764 95.4248 221.334 96.3623 224.384 98.2373C227.433 100.112 229.8 102.745 231.486 106.135C233.171 109.525 234.014 113.484 234.014 118.01C234.014 122.518 233.171 126.457 231.486 129.828C229.8 133.199 227.433 135.823 224.384 137.698C221.334 139.573 217.764 140.51 213.673 140.51ZM213.702 133.379C216.353 133.379 218.55 132.679 220.293 131.277C222.035 129.876 223.323 128.01 224.156 125.681C225.009 123.351 225.435 120.785 225.435 117.982C225.435 115.198 225.009 112.641 224.156 110.311C223.323 107.963 222.035 106.078 220.293 104.658C218.55 103.237 216.353 102.527 213.702 102.527C211.031 102.527 208.815 103.237 207.054 104.658C205.312 106.078 204.014 107.963 203.162 110.311C202.329 112.641 201.912 115.198 201.912 117.982C201.912 120.785 202.329 123.351 203.162 125.681C204.014 128.01 205.312 129.876 207.054 131.277C208.815 132.679 211.031 133.379 213.702 133.379ZM276.317 134.509C274.611 136.323 272.691 137.816 270.557 138.989C268.424 140.163 266.077 140.749 263.517 140.749C261.064 140.749 259.091 140.323 257.597 139.469C256.104 138.616 255.011 137.469 254.317 136.029C253.624 134.589 253.277 133.043 253.277 131.389C253.277 128.829 254.024 126.216 255.517 123.549C257.011 120.829 258.957 118.136 261.357 115.469C263.811 112.803 266.531 110.216 269.517 107.709C272.557 105.149 275.597 102.749 278.637 100.509L279.597 100.429C278.531 100.696 277.464 101.123 276.397 101.709C275.331 102.296 274.317 102.909 273.357 103.549C272.451 104.189 271.544 104.749 270.637 105.229C269.784 105.709 268.931 105.949 268.077 105.949C267.064 105.949 266.211 105.656 265.517 105.069C264.824 104.429 264.024 104.109 263.117 104.109C262.317 104.109 261.651 104.456 261.117 105.149C260.584 105.789 260.051 106.963 259.517 108.669L258.637 111.389H257.117L258.877 105.549C259.944 102.349 261.117 100.189 262.397 99.0694C263.677 97.9494 265.011 97.3894 266.397 97.3894C267.411 97.3894 268.291 97.6294 269.037 98.1094C269.784 98.5894 270.557 99.0694 271.357 99.5494C272.157 100.029 273.144 100.269 274.317 100.269C275.491 100.269 276.584 100.109 277.597 99.7894C278.611 99.4161 279.624 98.8294 280.637 98.0294L281.677 96.5094L283.357 97.3094C280.691 99.7094 278.104 102.269 275.597 104.989C273.144 107.709 270.931 110.509 268.957 113.389C267.037 116.269 265.491 119.229 264.317 122.269C263.197 125.256 262.637 128.243 262.637 131.229C262.637 133.683 263.011 135.416 263.757 136.429C264.504 137.443 265.544 137.949 266.877 137.949C268.317 137.949 269.811 137.549 271.357 136.749C272.957 135.896 274.477 134.669 275.917 133.069L276.317 134.509ZM286.397 137.549C288.744 137.549 290.797 136.883 292.557 135.549C294.371 134.216 295.864 132.483 297.037 130.349C298.211 128.216 299.117 125.896 299.757 123.389C300.397 120.883 300.797 118.429 300.957 116.029C301.117 113.629 301.011 111.523 300.637 109.709C299.464 109.389 298.211 108.883 296.877 108.189C295.544 107.496 294.397 106.616 293.437 105.549C292.531 104.429 292.077 103.043 292.077 101.389C292.077 100.056 292.451 99.0427 293.197 98.3494C293.997 97.6561 294.877 97.3094 295.837 97.3094C296.851 97.3094 297.704 97.6294 298.397 98.2694C299.144 98.8561 299.757 99.6827 300.237 100.749C300.771 101.816 301.197 102.989 301.517 104.269C301.891 105.549 302.157 106.883 302.317 108.269C302.744 110.669 302.851 113.336 302.637 116.269C302.477 119.203 301.971 122.109 301.117 124.989C300.264 127.816 299.064 130.429 297.517 132.829C295.971 135.229 294.024 137.149 291.677 138.589C289.384 140.029 286.637 140.749 283.437 140.749C281.731 140.749 280.131 140.429 278.637 139.789C277.144 139.149 275.917 138.029 274.957 136.429C274.051 134.829 273.597 132.616 273.597 129.789C273.597 127.389 273.997 125.069 274.797 122.829C275.597 120.589 276.611 118.589 277.837 116.829C279.117 115.016 280.451 113.576 281.837 112.509C283.224 111.443 284.504 110.909 285.677 110.909C286.477 110.909 287.091 111.203 287.517 111.789C287.944 112.376 288.211 113.096 288.317 113.949C288.477 114.803 288.557 115.629 288.557 116.429C288.557 119.416 287.784 122.429 286.237 125.469C284.691 128.456 282.291 131.229 279.037 133.789L278.637 132.349C281.091 130.323 283.037 127.896 284.477 125.069C285.971 122.189 286.717 119.309 286.717 116.429C286.717 115.363 286.611 114.483 286.397 113.789C286.184 113.043 285.784 112.669 285.197 112.669C284.397 112.669 283.517 113.336 282.557 114.669C281.597 116.003 280.771 117.709 280.077 119.789C279.384 121.869 279.037 124.056 279.037 126.349C279.037 128.216 279.277 130.003 279.757 131.709C280.237 133.416 281.011 134.829 282.077 135.949C283.197 137.016 284.637 137.549 286.397 137.549ZM311.967 121.709C314.687 120.749 317.167 119.763 319.407 118.749C321.7 117.736 323.567 116.643 325.007 115.469C326.98 113.816 328.527 111.869 329.647 109.629C330.82 107.336 331.407 104.829 331.407 102.109C331.407 100.723 331.3 99.8427 331.087 99.4694C330.873 99.0427 330.553 98.8294 330.127 98.8294C328.847 98.8294 327.46 99.4161 325.967 100.589C324.527 101.763 323.087 103.389 321.647 105.469C320.207 107.496 318.873 109.816 317.647 112.429C316.473 114.989 315.513 117.736 314.767 120.669C314.073 123.549 313.727 126.403 313.727 129.229C313.727 132.003 314.233 133.976 315.247 135.149C316.313 136.323 317.7 136.909 319.407 136.909C321.167 136.909 323.113 136.376 325.247 135.309C327.38 134.189 329.487 132.216 331.567 129.389L332.847 130.029C331.78 131.789 330.393 133.496 328.687 135.149C326.98 136.803 325.033 138.163 322.847 139.229C320.713 140.243 318.393 140.749 315.887 140.749C313.7 140.749 311.753 140.323 310.047 139.469C308.34 138.616 307.007 137.363 306.047 135.709C305.14 134.003 304.687 131.923 304.687 129.469C304.687 127.016 305.113 124.349 305.967 121.469C306.873 118.536 308.127 115.656 309.727 112.829C311.38 110.003 313.327 107.416 315.567 105.069C317.807 102.669 320.313 100.776 323.087 99.3894C325.86 98.0027 328.793 97.3094 331.887 97.3094C333.807 97.3094 335.407 97.7894 336.687 98.7494C337.967 99.6561 338.607 101.043 338.607 102.909C338.607 105.043 337.993 107.043 336.767 108.909C335.593 110.723 333.993 112.376 331.967 113.869C329.94 115.363 327.727 116.696 325.327 117.869C322.98 119.043 320.607 120.056 318.207 120.909C315.86 121.763 313.753 122.456 311.887 122.989L311.967 121.709ZM388.792 140.595C386.026 140.595 383.526 140.084 381.292 139.061C379.057 138.02 377.286 136.514 375.979 134.544C374.691 132.574 374.047 130.16 374.047 127.3C374.047 124.838 374.521 122.811 375.468 121.22C376.415 119.629 377.693 118.37 379.303 117.442C380.913 116.514 382.712 115.813 384.701 115.34C386.689 114.866 388.716 114.506 390.78 114.26C393.394 113.957 395.515 113.711 397.144 113.521C398.773 113.313 399.956 112.982 400.695 112.527C401.434 112.073 401.803 111.334 401.803 110.311V110.112C401.803 107.631 401.102 105.709 399.701 104.345C398.318 102.982 396.254 102.3 393.507 102.3C390.648 102.3 388.394 102.934 386.746 104.203C385.117 105.453 383.99 106.845 383.365 108.379L375.382 106.561C376.329 103.91 377.712 101.77 379.53 100.141C381.367 98.493 383.479 97.2998 385.865 96.5612C388.252 95.8036 390.761 95.4248 393.394 95.4248C395.136 95.4248 396.983 95.6332 398.934 96.0498C400.903 96.4476 402.74 97.1862 404.445 98.2658C406.168 99.3453 407.579 100.889 408.678 102.896C409.776 104.885 410.326 107.47 410.326 110.652V139.629H402.03V133.663H401.689C401.14 134.762 400.316 135.842 399.218 136.902C398.119 137.963 396.708 138.843 394.985 139.544C393.261 140.245 391.197 140.595 388.792 140.595ZM390.638 133.777C392.987 133.777 394.994 133.313 396.661 132.385C398.346 131.457 399.625 130.245 400.496 128.749C401.386 127.234 401.831 125.614 401.831 123.891V118.266C401.528 118.569 400.941 118.853 400.07 119.118C399.218 119.364 398.242 119.582 397.144 119.771C396.045 119.942 394.975 120.103 393.934 120.254C392.892 120.387 392.021 120.501 391.32 120.595C389.672 120.804 388.167 121.154 386.803 121.646C385.458 122.139 384.379 122.849 383.564 123.777C382.769 124.686 382.371 125.898 382.371 127.413C382.371 129.516 383.148 131.107 384.701 132.186C386.254 133.247 388.233 133.777 390.638 133.777ZM418.44 139.629V95.993H426.65V102.925H427.104C427.9 100.576 429.301 98.7298 431.309 97.3851C433.335 96.0214 435.627 95.3396 438.184 95.3396C438.714 95.3396 439.339 95.3586 440.059 95.3964C440.797 95.4343 441.375 95.4817 441.792 95.5385V103.663C441.451 103.569 440.845 103.465 439.974 103.351C439.102 103.218 438.231 103.152 437.36 103.152C435.352 103.152 433.563 103.578 431.991 104.431C430.438 105.264 429.207 106.429 428.297 107.925C427.388 109.402 426.934 111.088 426.934 112.982V139.629H418.44ZM463.187 140.51C458.888 140.51 455.185 139.592 452.079 137.754C448.992 135.898 446.606 133.294 444.92 129.942C443.253 126.571 442.42 122.622 442.42 118.095C442.42 113.626 443.253 109.686 444.92 106.277C446.606 102.868 448.954 100.207 451.965 98.2942C454.996 96.3813 458.537 95.4248 462.59 95.4248C465.052 95.4248 467.439 95.832 469.749 96.6464C472.06 97.4608 474.134 98.7392 475.971 100.482C477.808 102.224 479.257 104.487 480.318 107.271C481.378 110.037 481.909 113.398 481.909 117.357V120.368H447.221V114.004H473.585C473.585 111.77 473.13 109.79 472.221 108.067C471.312 106.324 470.034 104.951 468.386 103.948C466.757 102.944 464.844 102.442 462.647 102.442C460.261 102.442 458.177 103.029 456.397 104.203C454.636 105.359 453.272 106.874 452.306 108.749C451.359 110.605 450.886 112.622 450.886 114.8V119.771C450.886 122.688 451.397 125.169 452.42 127.215C453.462 129.26 454.91 130.823 456.767 131.902C458.623 132.963 460.791 133.493 463.272 133.493C464.882 133.493 466.35 133.266 467.676 132.811C469.001 132.338 470.147 131.637 471.113 130.709C472.079 129.781 472.818 128.635 473.329 127.271L481.369 128.72C480.725 131.088 479.57 133.162 477.903 134.942C476.255 136.703 474.181 138.076 471.681 139.061C469.2 140.027 466.369 140.51 463.187 140.51Z" fill="#1F1F1F"/>
<rect x="244.236" y="90.9985" width="110.762" height="29.083" fill="#C7FF46"/>
<rect x="248.303" y="120.082" width="114.147" height="22.4326" fill="#4662FF"/>
<mask id="mask0_329_2" style="mask-type:alpha" maskUnits="userSpaceOnUse" x="246" y="98" width="103" height="46">
<path d="M258.975 142.514L246.134 98.8778H254.913L263.464 130.923H263.89L272.469 98.8778H281.248L289.771 130.781H290.197L298.691 98.8778H307.469L294.657 142.514H285.992L277.129 111.008H276.475L267.612 142.514H258.975ZM329.809 143.395C325.51 143.395 321.807 142.476 318.701 140.639C315.614 138.783 313.228 136.179 311.542 132.827C309.876 129.455 309.042 125.507 309.042 120.98C309.042 116.51 309.876 112.571 311.542 109.162C313.228 105.753 315.576 103.092 318.588 101.179C321.618 99.2661 325.16 98.3096 329.213 98.3096C331.675 98.3096 334.061 98.7168 336.372 99.5312C338.682 100.346 340.756 101.624 342.593 103.366C344.43 105.109 345.879 107.372 346.94 110.156C348.001 112.921 348.531 116.283 348.531 120.241V123.253H313.843V116.889H340.207C340.207 114.654 339.752 112.675 338.843 110.952C337.934 109.209 336.656 107.836 335.008 106.832C333.379 105.829 331.466 105.327 329.269 105.327C326.883 105.327 324.8 105.914 323.019 107.088C321.258 108.243 319.894 109.758 318.929 111.633C317.982 113.49 317.508 115.507 317.508 117.685V122.656C317.508 125.573 318.019 128.054 319.042 130.099C320.084 132.145 321.533 133.707 323.389 134.787C325.245 135.847 327.413 136.378 329.894 136.378C331.504 136.378 332.972 136.151 334.298 135.696C335.624 135.222 336.769 134.522 337.735 133.594C338.701 132.666 339.44 131.52 339.951 130.156L347.991 131.605C347.347 133.972 346.192 136.046 344.525 137.827C342.877 139.588 340.804 140.961 338.304 141.946C335.822 142.912 332.991 143.395 329.809 143.395Z" fill="#1F1F1F"/>
</mask>
<g mask="url(#mask0_329_2)">
<rect x="243.314" y="120.083" width="113.821" height="27.1279" fill="black"/>
</g>
<mask id="mask1_329_2" style="mask-type:alpha" maskUnits="userSpaceOnUse" x="261" y="83" width="86" height="46">
<path d="M284.489 121.832C282.782 123.645 280.862 125.138 278.729 126.312C276.595 127.485 274.249 128.072 271.689 128.072C269.235 128.072 267.262 127.645 265.769 126.792C264.275 125.938 263.182 124.792 262.489 123.352C261.795 121.912 261.449 120.365 261.449 118.712C261.449 116.152 262.195 113.538 263.689 110.872C265.182 108.152 267.129 105.458 269.529 102.792C271.982 100.125 274.702 97.5383 277.689 95.0317C280.729 92.4717 283.769 90.0717 286.809 87.8317L287.769 87.7517C286.702 88.0183 285.635 88.445 284.569 89.0317C283.502 89.6183 282.489 90.2317 281.529 90.8717C280.622 91.5117 279.715 92.0717 278.809 92.5517C277.955 93.0317 277.102 93.2717 276.249 93.2717C275.235 93.2717 274.382 92.9783 273.689 92.3917C272.995 91.7517 272.195 91.4317 271.289 91.4317C270.489 91.4317 269.822 91.7783 269.289 92.4717C268.755 93.1117 268.222 94.285 267.689 95.9917L266.809 98.7117H265.289L267.049 92.8717C268.115 89.6717 269.289 87.5117 270.569 86.3917C271.849 85.2717 273.182 84.7117 274.569 84.7117C275.582 84.7117 276.462 84.9517 277.209 85.4317C277.955 85.9117 278.729 86.3917 279.529 86.8717C280.329 87.3517 281.315 87.5917 282.489 87.5917C283.662 87.5917 284.755 87.4317 285.769 87.1117C286.782 86.7383 287.795 86.1517 288.809 85.3517L289.849 83.8317L291.529 84.6317C288.862 87.0317 286.275 89.5917 283.769 92.3117C281.315 95.0317 279.102 97.8317 277.129 100.712C275.209 103.592 273.662 106.552 272.489 109.592C271.369 112.578 270.809 115.565 270.809 118.552C270.809 121.005 271.182 122.738 271.929 123.752C272.675 124.765 273.715 125.272 275.049 125.272C276.489 125.272 277.982 124.872 279.529 124.072C281.129 123.218 282.649 121.992 284.089 120.392L284.489 121.832ZM294.569 124.872C296.915 124.872 298.969 124.205 300.729 122.872C302.542 121.538 304.035 119.805 305.209 117.672C306.382 115.538 307.289 113.218 307.929 110.712C308.569 108.205 308.969 105.752 309.129 103.352C309.289 100.952 309.182 98.845 308.809 97.0317C307.635 96.7117 306.382 96.205 305.049 95.5117C303.715 94.8183 302.569 93.9383 301.609 92.8717C300.702 91.7517 300.249 90.365 300.249 88.7117C300.249 87.3783 300.622 86.365 301.369 85.6717C302.169 84.9783 303.049 84.6317 304.009 84.6317C305.022 84.6317 305.875 84.9517 306.569 85.5917C307.315 86.1783 307.929 87.005 308.409 88.0717C308.942 89.1383 309.369 90.3117 309.689 91.5917C310.062 92.8717 310.329 94.205 310.489 95.5917C310.915 97.9917 311.022 100.658 310.809 103.592C310.649 106.525 310.142 109.432 309.289 112.312C308.435 115.138 307.235 117.752 305.689 120.152C304.142 122.552 302.195 124.472 299.849 125.912C297.555 127.352 294.809 128.072 291.609 128.072C289.902 128.072 288.302 127.752 286.809 127.112C285.315 126.472 284.089 125.352 283.129 123.752C282.222 122.152 281.769 119.938 281.769 117.112C281.769 114.712 282.169 112.392 282.969 110.152C283.769 107.912 284.782 105.912 286.009 104.152C287.289 102.338 288.622 100.898 290.009 99.8317C291.395 98.765 292.675 98.2317 293.849 98.2317C294.649 98.2317 295.262 98.525 295.689 99.1117C296.115 99.6983 296.382 100.418 296.489 101.272C296.649 102.125 296.729 102.952 296.729 103.752C296.729 106.738 295.955 109.752 294.409 112.792C292.862 115.778 290.462 118.552 287.209 121.112L286.809 119.672C289.262 117.645 291.209 115.218 292.649 112.392C294.142 109.512 294.889 106.632 294.889 103.752C294.889 102.685 294.782 101.805 294.569 101.112C294.355 100.365 293.955 99.9917 293.369 99.9917C292.569 99.9917 291.689 100.658 290.729 101.992C289.769 103.325 288.942 105.032 288.249 107.112C287.555 109.192 287.209 111.378 287.209 113.672C287.209 115.538 287.449 117.325 287.929 119.032C288.409 120.738 289.182 122.152 290.249 123.272C291.369 124.338 292.809 124.872 294.569 124.872ZM320.138 109.032C322.858 108.072 325.338 107.085 327.578 106.072C329.871 105.058 331.738 103.965 333.178 102.792C335.151 101.138 336.698 99.1917 337.818 96.9517C338.991 94.6583 339.578 92.1517 339.578 89.4317C339.578 88.045 339.471 87.165 339.258 86.7917C339.045 86.365 338.725 86.1517 338.298 86.1517C337.018 86.1517 335.631 86.7383 334.138 87.9117C332.698 89.085 331.258 90.7117 329.818 92.7917C328.378 94.8183 327.045 97.1383 325.818 99.7517C324.645 102.312 323.685 105.058 322.938 107.992C322.245 110.872 321.898 113.725 321.898 116.552C321.898 119.325 322.405 121.298 323.418 122.472C324.485 123.645 325.871 124.232 327.578 124.232C329.338 124.232 331.285 123.698 333.418 122.632C335.551 121.512 337.658 119.538 339.738 116.712L341.018 117.352C339.951 119.112 338.565 120.818 336.858 122.472C335.151 124.125 333.205 125.485 331.018 126.552C328.885 127.565 326.565 128.072 324.058 128.072C321.871 128.072 319.925 127.645 318.218 126.792C316.511 125.938 315.178 124.685 314.218 123.032C313.311 121.325 312.858 119.245 312.858 116.792C312.858 114.338 313.285 111.672 314.138 108.792C315.045 105.858 316.298 102.978 317.898 100.152C319.551 97.325 321.498 94.7383 323.738 92.3917C325.978 89.9917 328.485 88.0983 331.258 86.7117C334.031 85.325 336.965 84.6317 340.058 84.6317C341.978 84.6317 343.578 85.1117 344.858 86.0717C346.138 86.9783 346.778 88.365 346.778 90.2317C346.778 92.365 346.165 94.365 344.938 96.2317C343.765 98.045 342.165 99.6983 340.138 101.192C338.111 102.685 335.898 104.018 333.498 105.192C331.151 106.365 328.778 107.378 326.378 108.232C324.031 109.085 321.925 109.778 320.058 110.312L320.138 109.032Z" fill="#1F1F1F"/>
</mask>
<g mask="url(#mask1_329_2)">
<rect x="255.572" y="81.2158" width="94.2332" height="38.9521" fill="black"/>
</g>
</svg>
