<svg preserveAspectRatio="none" width="100%" height="100%" overflow="visible" style="display: block;" viewBox="0 0 230.332 122.742" fill="none" xmlns="http://www.w3.org/2000/svg">
<g id="Vector">
<path d="M211.991 68.4662C218.75 66.6085 224.749 64.2264 229.841 61.3556L230.332 62.227C225.155 65.1454 219.078 67.5552 212.257 69.4301L211.991 68.4662Z" fill="var(--fill-0, #CDCED8)"/>
<path d="M12.0518 15.7852C7.08164 10.7508 3.02415 5.62567 0 0.509768L0.859465 0C3.83416 5.03247 7.83803 10.0946 12.7627 15.083L12.0518 15.7852Z" fill="var(--fill-0, #CDCED8)"/>
<path d="M173.617 73.2207C180.393 73.1742 186.873 72.7866 192.987 72.0707L193.103 73.0643C186.95 73.7847 180.433 74.1737 173.625 74.2205L173.617 73.2207Z" fill="var(--fill-0, #CDCED8)"/>
<path d="M43.1132 39.2501C37.2399 35.8051 31.791 32.21 26.8224 28.5095L27.4186 27.7068C32.3556 31.3837 37.7737 34.9594 43.6183 38.3875L43.1132 39.2501Z" fill="var(--fill-0, #CDCED8)"/>
<path d="M134.93 70.1387C141.501 71.1856 147.947 71.9612 154.221 72.473L154.14 73.4694C147.839 72.9555 141.368 72.1766 134.773 71.1258L134.93 70.1387Z" fill="var(--fill-0, #CDCED8)"/>
<path d="M78.3074 55.996C72.0699 53.6082 66.0763 51.0471 60.3625 48.3417L60.7897 47.438C66.4796 50.1322 72.4495 52.6834 78.6637 55.0623L78.3074 55.996Z" fill="var(--fill-0, #CDCED8)"/>
<path d="M104.511 64.5619C101.899 63.8457 99.3157 63.0972 96.7633 62.3203L96.9075 61.8423L96.9082 61.8435L97.0536 61.3648C100.129 62.3008 103.249 63.1937 106.41 64.0408C109.572 64.8879 112.721 65.675 115.852 66.4019L115.627 67.3748C112.485 66.6453 109.324 65.8568 106.152 65.0067L104.511 64.5619Z" fill="var(--fill-0, #CDCED8)"/>
<path d="M125.556 47.8424C133.84 47.8426 140.555 54.5584 140.556 62.8424C140.556 68.1868 137.76 72.878 133.552 75.5348C135.023 76.4634 136.321 77.6397 137.388 79.0065C140.133 75.4884 144.413 73.2262 149.221 73.2262C157.505 73.2262 164.22 79.942 164.22 88.2262C164.22 96.5105 157.505 103.226 149.221 103.226C144.412 103.226 140.133 100.963 137.388 97.4449C134.643 100.963 130.364 103.226 125.556 103.226C123.4 103.226 121.35 102.77 119.497 101.951C120.004 103.455 120.279 105.066 120.279 106.742C120.279 115.026 113.564 121.742 105.279 121.742C98.8986 121.742 93.4491 117.757 91.2813 112.141C89.1135 117.757 83.664 121.742 77.2833 121.742C68.9989 121.742 62.2832 115.026 62.2832 106.742C62.2832 98.4575 68.9989 91.7418 77.2833 91.7418C83.6637 91.7418 89.1133 95.7256 91.2813 101.341C93.4493 95.7256 98.8989 91.7418 105.279 91.7418C107.435 91.7418 109.484 92.1976 111.336 93.0162C110.829 91.5121 110.556 89.9011 110.556 88.2262C110.556 82.8823 113.35 78.1916 117.558 75.5348C115.946 74.5171 114.542 73.2007 113.423 71.6637C110.696 75.408 106.279 77.8422 101.292 77.8424C96.0704 77.8424 91.4726 75.1739 88.7862 71.1266C86.0998 75.1737 81.5029 77.8424 76.2813 77.8424C67.997 77.8424 61.2813 71.1267 61.2813 62.8424C61.2815 54.5583 67.9971 47.8424 76.2813 47.8424C81.5024 47.8424 86.0997 50.5107 88.7862 54.5572C91.4727 50.5106 96.0709 47.8424 101.292 47.8424C106.279 47.8425 110.696 50.2771 113.423 54.0211C116.15 50.2767 120.569 47.8424 125.556 47.8424Z" fill="white"/>
<path d="M133.552 75.5348L133.018 74.6892L131.679 75.5348L133.018 76.3803L133.552 75.5348ZM137.388 79.0065L136.599 79.6216L137.388 80.632L138.176 79.6216L137.388 79.0065ZM137.388 97.4449L138.176 96.8298L137.388 95.8192L136.599 96.8298L137.388 97.4449ZM119.497 101.951L119.901 101.036L117.825 100.118L118.549 102.27L119.497 101.951ZM91.2813 112.141L92.2142 111.781L91.2813 109.364L90.3484 111.781L91.2813 112.141ZM91.2813 101.341L90.3484 101.702L91.2813 104.118L92.2142 101.702L91.2813 101.341ZM111.336 93.0162L110.932 93.9309L113.008 94.8485L112.284 92.6971L111.336 93.0162ZM117.558 75.5348L118.092 76.3803L119.431 75.5348L118.092 74.6892L117.558 75.5348ZM113.423 71.6637L114.231 71.075L113.423 69.9651L112.615 71.0749L113.423 71.6637ZM88.7862 71.1266L89.6194 70.5736L88.7862 69.3183L87.953 70.5735L88.7862 71.1266ZM88.7862 54.5572L87.9531 55.1103L88.7862 56.3652L89.6193 55.1103L88.7862 54.5572ZM113.423 54.0211L112.615 54.6099L113.423 55.7195L114.231 54.6098L113.423 54.0211ZM125.556 47.8424V48.8424C133.287 48.8426 139.555 55.1107 139.556 62.8424H140.556H141.556C141.555 54.0061 134.392 46.8427 125.556 46.8424V47.8424ZM140.556 62.8424H139.556C139.556 67.8292 136.948 72.2078 133.018 74.6892L133.552 75.5348L134.086 76.3804C138.571 73.5481 141.556 68.5443 141.556 62.8424H140.556ZM133.552 75.5348L133.018 76.3803C134.391 77.2474 135.604 78.3458 136.599 79.6216L137.388 79.0065L138.176 78.3913C137.039 76.9336 135.654 75.6794 134.086 74.6892L133.552 75.5348ZM137.388 79.0065L138.176 79.6216C140.74 76.336 144.734 74.2262 149.221 74.2262V73.2262V72.2262C144.092 72.2262 139.526 74.6409 136.599 78.3913L137.388 79.0065ZM149.221 73.2262V74.2262C156.953 74.2262 163.22 80.4943 163.22 88.2262H164.22H165.22C165.22 79.3898 158.057 72.2262 149.221 72.2262V73.2262ZM164.22 88.2262H163.22C163.22 95.9582 156.953 102.226 149.221 102.226V103.226V104.226C158.057 104.226 165.22 97.0627 165.22 88.2262H164.22ZM149.221 103.226V102.226C144.733 102.226 140.74 100.116 138.176 96.8298L137.388 97.4449L136.599 98.0601C139.526 101.811 144.091 104.226 149.221 104.226V103.226ZM137.388 97.4449L136.599 96.8298C134.036 100.116 130.043 102.226 125.556 102.226V103.226V104.226C130.685 104.226 135.25 101.811 138.176 98.0601L137.388 97.4449ZM125.556 103.226V102.226C123.542 102.226 121.63 101.8 119.901 101.036L119.497 101.951L119.093 102.865C121.07 103.739 123.257 104.226 125.556 104.226V103.226ZM119.497 101.951L118.549 102.27C119.022 103.673 119.279 105.177 119.279 106.742H120.279H121.279C121.279 104.956 120.986 103.237 120.445 101.632L119.497 101.951ZM120.279 106.742H119.279C119.279 114.474 113.011 120.742 105.279 120.742V121.742V122.742C114.116 122.742 121.279 115.578 121.279 106.742H120.279ZM105.279 121.742V120.742C99.3256 120.742 94.2381 117.025 92.2142 111.781L91.2813 112.141L90.3484 112.501C92.66 118.49 98.4716 122.742 105.279 122.742V121.742ZM91.2813 112.141L90.3484 111.781C88.3245 117.025 83.237 120.742 77.2833 120.742V121.742V122.742C84.091 122.742 89.9026 118.49 92.2142 112.501L91.2813 112.141ZM77.2833 121.742V120.742C69.5512 120.742 63.2832 114.474 63.2832 106.742H62.2832H61.2832C61.2832 115.578 68.4467 122.742 77.2833 122.742V121.742ZM62.2832 106.742H63.2832C63.2832 99.0098 69.5512 92.7418 77.2833 92.7418V91.7418V90.7418C68.4467 90.7418 61.2832 97.9053 61.2832 106.742H62.2832ZM77.2833 91.7418V92.7418C83.2367 92.7418 88.3243 96.4584 90.3484 101.702L91.2813 101.341L92.2142 100.981C89.9023 94.9928 84.0907 90.7418 77.2833 90.7418V91.7418ZM91.2813 101.341L92.2142 101.702C94.2383 96.4584 99.3259 92.7418 105.279 92.7418V91.7418V90.7418C98.4719 90.7418 92.6603 94.9928 90.3484 100.981L91.2813 101.341ZM105.279 91.7418V92.7418C107.292 92.7418 109.204 93.1673 110.932 93.9309L111.336 93.0162L111.74 92.1016C109.763 91.2279 107.577 90.7418 105.279 90.7418V91.7418ZM111.336 93.0162L112.284 92.6971C111.811 91.2948 111.556 89.7915 111.556 88.2262H110.556H109.556C109.556 90.0106 109.847 91.7294 110.388 93.3353L111.336 93.0162ZM110.556 88.2262H111.556C111.556 83.2397 114.162 78.8617 118.092 76.3803L117.558 75.5348L117.024 74.6893C112.538 77.5216 109.556 82.5249 109.556 88.2262H110.556ZM117.558 75.5348L118.092 74.6892C116.587 73.7394 115.277 72.5102 114.231 71.075L113.423 71.6637L112.615 72.2524C113.808 73.8911 115.305 75.2949 117.024 76.3803L117.558 75.5348ZM113.423 71.6637L112.615 71.0749C110.067 74.5721 105.945 76.8423 101.292 76.8424V77.8424V78.8424C106.612 78.8422 111.324 76.2438 114.231 72.2524L113.423 71.6637ZM101.292 77.8424V76.8424C96.4196 76.8424 92.1284 74.3536 89.6194 70.5736L88.7862 71.1266L87.953 71.6796C90.8167 75.9941 95.7212 78.8424 101.292 78.8424V77.8424ZM88.7862 71.1266L87.953 70.5735C85.4439 74.3536 81.1536 76.8424 76.2813 76.8424V77.8424V78.8424C81.8522 78.8424 86.7556 75.9939 89.6193 71.6796L88.7862 71.1266ZM76.2813 77.8424V76.8424C68.5493 76.8424 62.2813 70.5744 62.2813 62.8424H61.2813H60.2813C60.2813 71.679 67.4447 78.8424 76.2813 78.8424V77.8424ZM61.2813 62.8424H62.2813C62.2814 55.1105 68.5494 48.8424 76.2813 48.8424V47.8424V46.8424C67.4448 46.8424 60.2815 54.006 60.2813 62.8424H61.2813ZM76.2813 47.8424V48.8424C81.1532 48.8424 85.4439 51.3309 87.9531 55.1103L88.7862 54.5572L89.6193 54.0041C86.7555 49.6905 81.8516 46.8424 76.2813 46.8424V47.8424ZM88.7862 54.5572L89.6193 55.1103C92.1284 51.3309 96.42 48.8424 101.292 48.8424V47.8424L101.292 46.8424C95.7218 46.8424 90.8169 49.6903 87.9531 54.0041L88.7862 54.5572ZM101.292 47.8424V48.8424C105.945 48.8425 110.067 51.1129 112.615 54.6099L113.423 54.0211L114.231 53.4323C111.324 49.4412 106.612 46.8425 101.292 46.8424L101.292 47.8424ZM113.423 54.0211L114.231 54.6098C116.778 51.1126 120.902 48.8424 125.556 48.8424V47.8424V46.8424C120.235 46.8424 115.522 49.4407 112.615 53.4323L113.423 54.0211Z" fill="var(--fill-0, #CDCED8)"/>
</g>
</svg>
