<svg preserveAspectRatio="none" width="100%" height="100%" overflow="visible" style="display: block;" viewBox="0 0 440.611 372.422" fill="none" xmlns="http://www.w3.org/2000/svg">
<path id="Union" d="M322.557 0.5C347.492 0.500189 367.705 20.7144 367.705 45.6494L367.698 46.4541C367.403 63.3112 357.869 77.914 343.941 85.4189L343.14 85.8516L343.935 86.2959C357.74 94.02 367.072 108.78 367.072 125.722L367.059 126.859C366.769 138.583 362.008 149.196 354.419 157.063L354.084 157.41L354.419 157.757C355.96 159.354 357.385 161.064 358.679 162.874L359.066 163.416L359.479 162.893C367.617 152.563 380.168 145.875 394.288 145.668L394.962 145.663C419.897 145.663 440.111 165.877 440.111 190.812L440.097 191.977C439.479 216.373 419.507 235.961 394.962 235.961C379.806 235.961 366.398 228.492 358.208 217.034L357.82 216.492L357.408 217.016C349.14 227.51 336.319 234.247 321.924 234.247L321.237 234.242C306.846 234.028 294.088 227.078 285.97 216.405L285.571 215.882L285.173 216.405C284.438 217.372 283.665 218.308 282.855 219.211L282.489 219.619L282.93 219.946C294.003 228.175 301.176 241.354 301.176 256.208C301.176 270.266 294.751 282.822 284.676 291.104L284.206 291.49L284.676 291.877C294.751 300.158 301.176 312.714 301.176 326.772L301.161 327.938C300.543 352.334 280.573 371.922 256.027 371.922L254.862 371.907C230.466 371.289 210.878 351.318 210.878 326.772C210.878 312.714 217.304 300.158 227.38 291.877L227.85 291.49L227.38 291.104C217.304 282.822 210.878 270.266 210.878 256.208L210.891 255.126C211.153 243.98 215.456 233.835 222.391 226.095L222.757 225.687L222.316 225.359C220.371 223.914 218.548 222.313 216.86 220.579L216.502 220.211L216.144 220.579C207.941 229.009 196.476 234.247 183.785 234.247L182.62 234.232C158.224 233.614 138.636 213.644 138.636 189.099L138.645 188.189C138.83 178.819 141.871 170.151 146.931 163.015L146.229 162.32C138.798 167.699 129.665 170.871 119.79 170.871L119.083 170.865C104.273 170.638 91.1954 163.278 83.126 152.069L82.7197 151.506L82.3135 152.069C74.116 163.456 60.7496 170.871 45.6494 170.871C20.7143 170.871 0.500007 150.657 0.5 125.722C0.500158 100.787 20.7144 80.5732 45.6494 80.5732C60.7491 80.5733 74.1159 87.9865 82.3135 99.373L82.7197 99.9365L83.126 99.373C91.3236 87.9865 104.69 80.5732 119.79 80.5732C134.512 80.5733 147.588 87.6203 155.831 98.5264L156.229 99.0537L156.628 98.5264C164.742 87.7908 177.539 80.794 191.979 80.5781L192.668 80.5732C205.154 80.5732 216.455 85.6412 224.629 93.833L224.982 94.1875L225.336 93.833C233.254 85.8974 244.107 80.8929 256.129 80.5879L257.296 80.5732C269.781 80.5732 281.083 85.6405 289.257 93.832L289.61 94.1865L289.964 93.832C293.072 90.7173 296.633 88.0557 300.539 85.9512L301.341 85.5186L300.546 85.0742C286.74 77.3501 277.407 62.5908 277.407 45.6494L277.422 44.4844C278.04 20.0877 298.011 0.499999 322.557 0.5Z" stroke="var(--stroke-0, #CDCED8)"/>
</svg>
