<svg width="39.1681" height="114.686" overflow="visible" style="display: block;" viewBox="0 0 39.1681 114.686" fill="none" xmlns="http://www.w3.org/2000/svg">
<path id="Vector" d="M1.03034 0.5L1.66804 1.30957C3.95438 4.21151 6.08728 7.76836 8.06355 11.9863L8.06452 11.9873C10.0409 16.176 11.7685 20.7825 13.2462 25.8066C14.7237 30.8302 15.8764 36.0323 16.7042 41.4131C17.5315 46.7608 17.9444 52.0634 17.9444 57.3203C17.9444 64.32 17.2367 71.3956 15.8185 78.5469C14.3697 85.6726 12.4187 92.2916 9.96784 98.4043C7.48691 104.518 4.71795 109.505 1.66804 113.376L1.03034 114.186H20.4278L20.5772 113.99C26.6962 106.021 31.2503 97.3613 34.2364 88.0146L34.2374 88.0137C37.1932 78.6685 38.6681 68.4358 38.6681 57.3203C38.668 46.2345 37.1932 36.0169 34.2374 26.6719L34.2364 26.6709C31.2503 17.3243 26.6962 8.66491 20.5772 0.695312L20.4278 0.5H1.03034Z" fill="var(--fill-0, white)" stroke="var(--stroke-0, #CDCED8)"/>
</svg>
