<svg width="61.2774" height="183.686" overflow="visible" style="display: block;" viewBox="0 0 61.2774 183.686" fill="none" xmlns="http://www.w3.org/2000/svg">
<path id="Vector" d="M60.2471 0.5L59.6094 1.30957C55.9054 6.01082 52.4547 11.767 49.2607 18.584C46.0667 25.3533 43.276 32.7955 40.8896 40.9092C38.5034 49.0225 36.6414 57.4237 35.3047 66.1123C33.9686 74.7494 33.3008 83.3148 33.3008 91.8066C33.3008 103.114 34.4447 114.542 36.7354 126.092C39.0748 137.598 42.2251 148.288 46.1846 158.163L46.9414 159.993C50.7535 169.04 54.978 176.498 59.6094 182.376L60.2471 183.186H29.7539L29.6045 182.99C19.7597 170.168 12.4335 156.238 7.62988 141.203V141.201C2.87485 126.167 0.5 109.701 0.5 91.8066C0.500025 73.96 2.8749 57.5179 7.62988 42.4844V42.4824C12.4335 27.4471 19.7597 13.5175 29.6045 0.695312L29.7539 0.5H60.2471Z" fill="var(--fill-0, white)" stroke="var(--stroke-0, #CDCED8)"/>
</svg>
