<svg width="424.022" height="408.527" overflow="visible" style="display: block;" viewBox="0 0 424.022 408.527" fill="none" xmlns="http://www.w3.org/2000/svg">
<g id="Vector">
<path d="M322.79 211.76L323.604 211.179L322.829 210.095L322.005 211.141L322.79 211.76ZM274.03 211.342L274.826 210.737L274.03 209.69L273.234 210.737L274.03 211.342ZM272.448 213.258L271.703 212.591L270.971 213.407L271.852 214.061L272.448 213.258ZM273.641 261.826L273.006 261.053L272.066 261.826L273.006 262.598L273.641 261.826ZM234.533 261.826L235.169 262.598L236.108 261.826L235.169 261.053L234.533 261.826ZM231.128 217.455L231.873 218.122L232.604 217.306L231.725 216.652L231.128 217.455ZM227.404 214.193L228.121 213.495L227.404 212.759L226.688 213.495L227.404 214.193ZM180.167 174.901L180.982 175.479L179.58 174.091L180.167 174.901ZM137.094 167.906L137.906 167.322L137.094 166.194L136.283 167.322L137.094 167.906ZM137.094 131.939L136.283 132.523L137.094 133.651L137.906 132.523L137.094 131.939ZM186.717 131.361L185.919 131.964L186.717 133.019L187.516 131.964L186.717 131.361ZM233.13 128.158L232.421 128.864L233.13 129.573L233.837 128.864L233.13 128.158ZM276.758 128.158L276.049 128.864L276.758 129.573L277.466 128.864L276.758 128.158ZM283.976 122.778L284.45 123.658L286.053 122.794L284.464 121.905L283.976 122.778ZM313.596 123.013L313.121 122.133L311.518 122.997L313.107 123.886L313.596 123.013ZM320.751 171.314L320.031 170.62L319.362 171.314L320.031 172.008L320.751 171.314ZM323.658 174.806L322.845 175.388L323.618 176.471L324.444 175.425L323.658 174.806ZM377.69 193.862C377.69 210.329 364.342 223.678 347.875 223.678V225.678C365.446 225.678 379.69 211.433 379.69 193.862H377.69ZM347.875 223.678C337.867 223.678 329.013 218.747 323.604 211.179L322.79 211.76L321.976 212.342C327.745 220.412 337.194 225.678 347.875 225.678V223.678ZM322.79 211.76L322.005 211.141C316.543 218.073 308.077 222.521 298.571 222.521V224.521C308.716 224.521 317.75 219.771 323.576 212.379L322.79 211.76ZM298.571 222.521C288.882 222.521 280.273 217.899 274.826 210.737L274.03 211.342L273.234 211.948C279.044 219.586 288.231 224.521 298.571 224.521V222.521ZM274.03 211.342L273.234 210.737C272.748 211.376 272.238 211.994 271.703 212.591L272.448 213.258L273.193 213.926C273.764 213.289 274.307 212.629 274.826 211.948L274.03 211.342ZM272.448 213.258L271.852 214.061C279.165 219.496 283.902 228.199 283.902 238.008H285.902C285.902 227.54 280.845 218.252 273.045 212.456L272.448 213.258ZM283.902 238.008C283.902 247.292 279.66 255.583 273.006 261.053L273.641 261.826L274.276 262.598C281.372 256.765 285.902 247.915 285.902 238.008H283.902ZM273.641 261.826L273.006 262.598C279.661 268.068 283.902 276.36 283.902 285.644H285.902C285.902 275.737 281.372 266.887 274.276 261.053L273.641 261.826ZM283.902 285.644C283.902 302.111 270.553 315.459 254.087 315.459V317.459C271.658 317.459 285.902 303.215 285.902 285.644H283.902ZM254.087 315.459C237.62 315.459 224.271 302.111 224.27 285.644H222.27C222.271 303.215 236.516 317.459 254.087 317.459V315.459ZM224.27 285.644C224.27 276.36 228.514 268.068 235.169 262.598L234.533 261.826L233.898 261.053C226.801 266.887 222.27 275.737 222.27 285.644H224.27ZM234.533 261.826L235.169 261.053C228.514 255.583 224.271 247.292 224.27 238.008H222.27C222.271 247.916 226.801 256.765 233.898 262.598L234.533 261.826ZM224.27 238.008C224.27 230.366 227.145 223.399 231.873 218.122L231.128 217.455L230.383 216.787C225.34 222.417 222.27 229.855 222.27 238.008H224.27ZM231.128 217.455L231.725 216.652C230.441 215.698 229.236 214.641 228.121 213.495L227.404 214.193L226.688 214.89C227.876 216.111 229.16 217.238 230.531 218.257L231.128 217.455ZM227.404 214.193L226.688 213.495C221.27 219.063 213.701 222.521 205.32 222.521V224.521C214.262 224.521 222.342 220.829 228.121 214.89L227.404 214.193ZM205.32 222.521C188.854 222.521 175.505 209.172 175.505 192.706H173.505C173.505 210.277 187.749 224.521 205.32 224.521V222.521ZM175.505 192.706C175.505 186.286 177.533 180.344 180.982 175.479L180.167 174.901L179.35 174.322C175.669 179.514 173.505 185.858 173.505 192.706H175.505ZM180.167 174.901L179.58 174.091C174.672 177.643 168.641 179.739 162.118 179.739V181.739C169.077 181.739 175.516 179.502 180.753 175.711L180.167 174.901ZM162.118 179.739C152.148 179.739 143.32 174.843 137.906 167.322L137.094 167.906L136.283 168.49C142.057 176.511 151.477 181.739 162.118 181.739V179.739ZM137.094 167.906L136.283 167.322C130.868 174.843 122.041 179.739 112.069 179.739V181.739C122.711 181.739 132.132 176.511 137.906 168.49L137.094 167.906ZM112.069 179.739C95.6031 179.739 82.2544 166.389 82.2544 149.922H80.2544C80.2544 167.494 94.4985 181.739 112.069 181.739V179.739ZM82.2544 149.922C82.2546 133.456 95.6033 120.107 112.069 120.107V118.107C94.4987 118.107 80.2547 132.351 80.2544 149.922H82.2544ZM112.069 120.107C122.04 120.107 130.868 125.002 136.283 132.523L137.094 131.939L137.906 131.355C132.132 123.334 122.711 118.107 112.069 118.107V120.107ZM137.094 131.939L137.906 132.523C143.32 125.002 152.148 120.107 162.118 120.107V118.107C151.477 118.107 142.057 123.334 136.283 131.355L137.094 131.939ZM162.118 120.107C171.84 120.107 180.474 124.76 185.919 131.964L186.717 131.361L187.516 130.758C181.708 123.076 172.495 118.107 162.118 118.107V120.107ZM186.717 131.361L187.516 131.964C192.96 124.76 201.594 120.107 211.314 120.107V118.107C200.939 118.107 191.725 123.076 185.919 130.758L186.717 131.361ZM211.314 120.107C219.561 120.107 227.022 123.453 232.421 128.864L233.13 128.158L233.837 127.451C228.078 121.68 220.113 118.107 211.314 118.107V120.107ZM233.13 128.158L233.837 128.864C239.235 123.454 246.697 120.107 254.942 120.107V118.107C246.144 118.107 238.179 121.68 232.421 127.451L233.13 128.158ZM254.942 120.107C263.188 120.107 270.651 123.453 276.049 128.864L276.758 128.158L277.466 127.451C271.707 121.68 263.741 118.107 254.942 118.107V120.107ZM276.758 128.158L277.466 128.864C279.519 126.806 281.87 125.048 284.45 123.658L283.976 122.778L283.501 121.897C280.749 123.381 278.24 125.257 276.049 127.451L276.758 128.158ZM283.976 122.778L284.464 121.905C275.345 116.803 269.184 107.056 269.184 95.8684H267.184C267.184 107.809 273.763 118.209 283.487 123.651L283.976 122.778ZM269.184 95.8684C269.184 79.4018 282.531 66.053 298.999 66.053V64.053C281.427 64.053 267.184 78.2974 267.184 95.8684H269.184ZM298.999 66.053C315.466 66.0531 328.814 79.402 328.814 95.8685H330.814C330.814 78.2975 316.57 64.0531 298.999 64.053V66.053ZM328.814 95.8685C328.814 107.224 322.466 117.097 313.121 122.133L313.596 123.013L314.07 123.893C324.037 118.523 330.814 107.988 330.814 95.8685H328.814ZM313.596 123.013L313.107 123.886C322.225 128.988 328.387 138.736 328.387 149.922H330.387C330.387 137.983 323.808 127.582 314.084 122.141L313.596 123.013ZM328.387 149.922C328.387 157.962 325.205 165.256 320.031 170.62L320.751 171.314L321.471 172.008C326.99 166.287 330.387 158.501 330.387 149.922H328.387ZM320.751 171.314L320.031 172.008C321.049 173.064 321.99 174.193 322.845 175.388L323.658 174.806L324.471 174.225C323.56 172.949 322.556 171.745 321.471 170.62L320.751 171.314ZM323.658 174.806L324.444 175.425C329.905 168.494 338.37 164.046 347.875 164.046V162.046C337.731 162.046 328.697 166.796 322.872 174.187L323.658 174.806ZM347.875 164.046C364.341 164.046 377.69 177.395 377.69 193.862H379.69C379.69 176.291 365.446 162.046 347.875 162.046V164.046Z" fill="#CDCED8"/>
<path d="M378.69 193.861C378.69 210.88 364.895 224.677 347.875 224.677C337.531 224.677 328.379 219.58 322.79 211.76C317.147 218.922 308.397 223.52 298.571 223.52C288.556 223.52 279.659 218.742 274.03 211.342C273.527 212.002 273.001 212.642 272.448 213.258C280.006 218.874 284.902 227.868 284.902 238.007C284.902 247.603 280.517 256.174 273.641 261.826C280.517 267.477 284.902 276.048 284.902 285.643C284.902 302.662 271.105 316.458 254.087 316.458C237.068 316.458 223.271 302.662 223.27 285.643C223.27 276.047 227.657 267.477 234.533 261.826C227.657 256.174 223.271 247.603 223.27 238.007C223.27 230.11 226.243 222.908 231.128 217.455C229.8 216.468 228.556 215.376 227.404 214.193C221.806 219.946 213.982 223.52 205.32 223.52C188.301 223.52 174.505 209.723 174.505 192.705C174.505 186.071 176.601 179.929 180.167 174.901C175.094 178.573 168.859 180.738 162.118 180.738C151.811 180.738 142.688 175.677 137.094 167.906C131.499 175.677 122.376 180.738 112.069 180.738C95.0508 180.738 81.2544 166.94 81.2544 149.921C81.2546 132.903 95.051 119.106 112.069 119.106C122.376 119.106 131.499 124.168 137.094 131.939C142.688 124.168 151.812 119.106 162.118 119.106C172.167 119.106 181.091 123.918 186.717 131.361C192.342 123.918 201.266 119.106 211.314 119.106C219.837 119.106 227.551 122.567 233.13 128.158C238.708 122.567 246.421 119.106 254.942 119.106C263.464 119.106 271.178 122.567 276.758 128.158C278.879 126.032 281.309 124.214 283.976 122.778C274.554 117.506 268.184 107.431 268.184 95.8679C268.184 78.8491 281.979 65.0525 298.999 65.0525C316.018 65.0526 329.814 78.8492 329.814 95.868C329.814 107.605 323.251 117.81 313.596 123.013C323.017 128.285 329.387 138.358 329.387 149.921C329.387 158.23 326.097 165.772 320.751 171.314C321.803 172.404 322.775 173.571 323.658 174.806C329.301 167.645 338.05 163.045 347.875 163.045C364.895 163.045 378.69 176.842 378.69 193.861Z" fill="white"/>
<path d="M0 98.0667L1.31134e-06 68.0667H30L30 98.0667H0Z" fill="var(--fill-0, #4662FF)"/>
<path d="M30 128.067V98.0667H60V128.067H30Z" fill="var(--fill-0, #4662FF)"/>
<path d="M60 98.0667V68.0667H90V98.0667H60Z" fill="#C7FF46"/>
<path d="M90 98.0667V68.0667H120V98.0667H90Z" fill="#353535"/>
<path d="M287.856 204.294C287.856 166.702 257.381 136.227 219.789 136.227C182.197 136.227 151.722 166.702 151.722 204.294C151.722 241.886 182.197 272.361 219.789 272.361C257.381 272.361 287.856 241.886 287.856 204.294Z" fill="#C7FF46"/>
<path d="M424.022 204.294C424.022 166.702 393.547 136.227 355.955 136.227C318.363 136.227 287.888 166.702 287.888 204.294C287.888 241.886 318.363 272.361 355.955 272.361C393.547 272.361 424.022 241.886 424.022 204.294Z" fill="#C7FF46"/>
<path d="M424.022 340.46C424.022 302.868 393.547 272.393 355.955 272.393C318.363 272.393 287.888 302.868 287.888 340.46C287.888 378.052 318.363 408.527 355.955 408.527C393.547 408.527 424.022 378.052 424.022 340.46Z" fill="#353535"/>
<path d="M287.856 68.0668C287.856 30.4745 257.381 0 219.789 0C182.197 0 151.722 30.4745 151.722 68.0668C151.722 105.659 182.197 136.134 219.789 136.134C257.381 136.134 287.856 105.659 287.856 68.0668Z" fill="var(--fill-0, #4662FF)"/>
</g>
</svg>
