<svg preserveAspectRatio="none" width="100%" height="100%" overflow="visible" style="display: block;" viewBox="0 0 115.578 120.754" fill="none" xmlns="http://www.w3.org/2000/svg">
<path id="Union" d="M97.9824 0.25C107.562 0.250198 115.328 8.016 115.328 17.5957L115.319 18.1592C115.134 23.963 112.096 29.0466 107.563 32.0566L107.249 32.2646L107.563 32.4727C112.243 35.5797 115.328 40.8969 115.328 46.9346C115.328 52.701 112.514 57.8095 108.184 60.9639L107.906 61.166L108.184 61.3682C112.514 64.5225 115.328 69.6312 115.328 75.3975C115.328 84.9771 107.562 92.743 97.9824 92.7432L97.4053 92.7334C91.4655 92.5392 86.2813 89.3577 83.3047 84.6426L83.0938 84.3076L82.8828 84.6426C81.8087 86.3442 80.4465 87.8462 78.8652 89.0801L78.6123 89.2773L78.8652 89.4746C82.9342 92.6494 85.5498 97.5982 85.5498 103.158L85.5439 103.605C85.3067 112.979 77.6345 120.504 68.2041 120.504L67.7568 120.498C58.3836 120.261 50.8584 112.589 50.8584 103.158C50.8584 97.5979 53.4746 92.6494 57.5439 89.4746L57.7969 89.2773L57.5439 89.0801C53.4748 85.9053 50.8585 80.9575 50.8584 75.3975L50.8643 74.9316C50.9255 72.6093 51.4437 70.4006 52.3311 68.3926L52.5605 67.874L52.0225 68.0547C50.2832 68.6404 48.4208 68.959 46.4834 68.959L45.9326 68.9502C40.264 68.7733 35.2819 65.8757 32.2451 61.5195L32.04 61.2246L31.835 61.5195C28.7003 66.0164 23.4919 68.959 17.5957 68.959C8.01582 68.9589 0.250002 61.1922 0.25 51.6123L0.255859 51.165C0.489501 41.9406 7.92401 34.506 17.1484 34.2725L17.5957 34.2666C23.4917 34.2666 28.7003 37.2084 31.835 41.7051L32.04 42L32.2451 41.7051C34.2098 38.887 36.9887 36.6798 40.2412 35.4248L40.8457 35.1914L40.2412 34.958C33.7456 32.4514 29.1379 26.1501 29.1377 18.7715C29.1377 9.19153 36.9035 1.42481 46.4834 1.4248C56.0633 1.42483 63.8291 9.19154 63.8291 18.7715C63.8289 26.1497 59.2217 32.4512 52.7266 34.958L52.1221 35.1914L52.7266 35.4248C59.2219 37.9316 63.829 44.2339 63.8291 51.6123L63.8232 52.0781C63.762 54.4001 63.2445 56.6085 62.3574 58.6162L62.1279 59.1348L62.666 58.9541C64.1875 58.4418 65.8035 58.1342 67.4814 58.0654L68.2041 58.0508C74.3843 58.0508 79.8101 61.2833 82.8828 66.1504L83.0938 66.4854L83.3047 66.1504C84.4814 64.2867 86.0039 62.6628 87.7813 61.3682L88.0586 61.166L87.7813 60.9639C83.4507 57.8096 80.6358 52.7011 80.6357 46.9346L80.6445 46.3711C80.8298 40.5669 83.8679 35.4827 88.4023 32.4727L88.7158 32.2646L88.4023 32.0566C83.722 28.9496 80.6357 23.6333 80.6357 17.5957L80.6416 17.1484C80.879 7.77534 88.5521 0.25 97.9824 0.25Z" stroke="var(--stroke-0, #CDCED8)" stroke-width="0.5"/>
</svg>
