<svg preserveAspectRatio="none" width="100%" height="100%" overflow="visible" style="display: block;" viewBox="0 0 161.082 115.638" fill="none" xmlns="http://www.w3.org/2000/svg">
<path id="Union" d="M100.569 0.25C113.394 0.25 123.792 10.6467 123.792 23.4717C123.792 31.746 119.463 39.0088 112.946 43.1221L112.611 43.333L112.946 43.5439C115.227 44.9833 117.24 46.8082 118.893 48.9277L119.09 49.1807L119.287 48.9277C123.537 43.4774 130.164 39.9727 137.61 39.9727C150.435 39.9728 160.832 50.3694 160.832 63.1943C160.832 76.0195 150.435 86.4169 137.61 86.417C130.164 86.417 123.537 82.9116 119.287 77.4609L119.09 77.208L118.893 77.4609C114.643 82.9116 108.016 86.417 100.569 86.417C97.2362 86.417 94.0679 85.7135 91.2031 84.4492L90.6846 84.2197L90.8652 84.7578C91.6477 87.0841 92.0723 89.5753 92.0723 92.166L92.0645 92.7656C91.7463 105.314 81.4752 115.388 68.8506 115.388C58.9683 115.388 50.5289 109.214 47.1758 100.513L46.9424 99.9072L46.709 100.513C43.3559 109.214 34.9165 115.388 25.0342 115.388C12.2091 115.388 1.81267 104.991 1.8125 92.166C1.8125 79.5413 11.8866 69.2693 24.4346 68.9512L25.0342 68.9434C34.916 68.9434 43.3556 75.1167 46.709 83.8174L46.9424 84.4229L47.1758 83.8174C50.4768 75.2525 58.7064 69.1372 68.3887 68.9482L68.8506 68.9434C72.1837 68.9434 75.3521 69.6469 78.2168 70.9111L78.7354 71.1406L78.5547 70.6025C77.7723 68.2763 77.3477 65.785 77.3477 63.1943L77.3604 62.4219C77.6204 54.4697 81.8791 47.5287 88.1914 43.5439L88.5264 43.333L88.1914 43.1221C85.6978 41.5479 83.5247 39.512 81.792 37.1348L81.5898 36.8574L81.3877 37.1348C77.1646 42.9284 70.3285 46.6943 62.6113 46.6943C54.5273 46.6943 47.4083 42.5628 43.249 36.2959L43.041 35.9824L42.833 36.2959C38.6738 42.5629 31.5557 46.6953 23.4717 46.6953C10.6467 46.6951 0.25 36.2977 0.25 23.4727L0.257812 22.873C0.571025 10.5246 10.5236 0.571969 22.8721 0.258789L23.4717 0.250977C31.5551 0.250977 38.6737 4.38222 42.833 10.6484L43.041 10.9619L43.249 10.6484C47.4082 4.38148 54.5273 0.25 62.6113 0.25C70.3283 0.250011 77.1646 4.01525 81.3877 9.80859L81.5898 10.0859L81.792 9.80859C85.8831 4.19601 92.4275 0.487039 99.8486 0.260742L100.569 0.25Z" stroke="var(--stroke-0, #CDCED8)" stroke-width="0.5"/>
</svg>
