<svg preserveAspectRatio="none" width="100%" height="100%" overflow="visible" style="display: block;" viewBox="0 0 79.4043 52.6484" fill="none" xmlns="http://www.w3.org/2000/svg">
<g id="Decorative Element">
<path id="Union" d="M62.7158 0.25C66.1417 0.250027 68.9189 3.02721 68.9189 6.45313C68.9189 8.81553 67.5986 10.8701 65.6543 11.918L65.2529 12.1338L65.6504 12.3555C67.5475 13.417 68.8289 15.4452 68.8291 17.7725L68.8213 18.084C68.7446 19.633 68.0993 21.0318 67.0898 22.0781L66.9219 22.252L67.0898 22.4258C67.3021 22.6458 67.4983 22.882 67.6768 23.1318L67.8701 23.4023L68.0762 23.1406C69.1415 21.7879 70.7556 20.8893 72.583 20.7822L72.9512 20.7715C76.3772 20.7715 79.1543 23.5486 79.1543 26.9746C79.1542 30.4005 76.3771 33.1777 72.9512 33.1777L72.5635 33.166C70.6411 33.0473 68.9565 32.0515 67.9014 30.5742L67.708 30.3027L67.502 30.5654C66.3656 32.0088 64.6044 32.9355 62.626 32.9355C60.61 32.9355 58.82 31.973 57.6865 30.4824L57.4873 30.2207L57.2881 30.4824C57.1869 30.6155 57.0808 30.7442 56.9697 30.8682L56.7871 31.0723L57.0068 31.2363C58.5294 32.3672 59.5156 34.1783 59.5156 36.2197C59.5156 38.1509 58.6325 39.8756 57.248 41.0137L57.0137 41.207L57.248 41.4004C58.6327 42.5385 59.5156 44.2638 59.5156 46.1953C59.5156 49.6212 56.7376 52.3984 53.3115 52.3984C49.8857 52.3982 47.1084 49.6211 47.1084 46.1953L47.1182 45.8359C47.2202 44.0504 48.0784 42.4674 49.377 41.4004L49.6113 41.207L49.377 41.0137C47.9921 39.8756 47.1085 38.1511 47.1084 36.2197L47.1152 35.9229C47.1847 34.4495 47.7691 33.1113 48.6914 32.082L48.874 31.8779L48.6543 31.7139C48.3865 31.515 48.1348 31.2946 47.9023 31.0557L47.7236 30.8721L47.5449 31.0557C46.4175 32.2146 44.8424 32.9355 43.0986 32.9355C39.6729 32.9353 36.8956 30.1582 36.8955 26.7324L36.9004 26.4824C36.9498 25.2394 37.3667 24.0911 38.043 23.1406L37.6924 22.7939C36.6695 23.537 35.4116 23.9766 34.0508 23.9766C31.9762 23.9764 30.1413 22.9561 29.0146 21.3906L28.8115 21.1094L28.6084 21.3906C27.4818 22.9561 25.6468 23.9764 23.5723 23.9766C20.1463 23.9766 17.3682 21.1985 17.3682 17.7725L17.376 17.4531C17.5371 14.2815 20.0812 11.738 23.2529 11.5771L23.5723 11.5693C25.6466 11.5695 27.4818 12.5892 28.6084 14.1543L28.8115 14.4355L29.0146 14.1543C30.0709 12.6869 31.75 11.6988 33.665 11.5811L34.0508 11.5693C36.0736 11.5693 37.8711 12.5372 39.0039 14.0361L39.2031 14.3008L39.4023 14.0361C40.4645 12.6311 42.1096 11.6929 43.9775 11.5811L44.3535 11.5693C46.0693 11.5693 47.6229 12.2657 48.7461 13.3916L48.9229 13.5684L49.0996 13.3916C50.1527 12.3361 51.5835 11.6577 53.1719 11.5771L53.4912 11.5693C55.2066 11.5693 56.7596 12.2652 57.8828 13.3906L58.0596 13.5674L58.2363 13.3906C58.6634 12.9628 59.1522 12.5965 59.6885 12.3076L60.0898 12.0918L59.6924 11.8701C57.7949 10.8086 56.5127 8.78064 56.5127 6.45313L56.5205 6.13379C56.6868 2.85626 59.397 0.25 62.7158 0.25Z" stroke="var(--stroke-0, #CDCED8)" stroke-width="0.5"/>
<g id="Vector">
<path d="M12.9066 7.5542L1.12833e-06 7.5542L0 20.4608L12.9066 20.4608L12.9066 7.5542Z" fill="#353535"/>
<path d="M25.8135 20.4611L12.9066 20.4608L12.9069 33.3677L25.8135 33.3677L25.8135 20.4611Z" fill="#C7FF46"/>
<path d="M51.6272 20.4611L38.7206 20.4611V33.3677L51.6272 33.3677L51.6272 20.4611Z" fill="var(--fill-0, #4662FF)"/>
</g>
</g>
</svg>
