<svg preserveAspectRatio="none" width="100%" height="100%" overflow="visible" style="display: block;" viewBox="0 0 34.1396 18.7266" fill="none" xmlns="http://www.w3.org/2000/svg">
<g id="Union">
<mask id="path-1-inside-1_0_4" fill="white">
<path d="M24.7764 0C29.9475 0 34.1396 4.19216 34.1396 9.36328C34.1396 14.5343 29.9474 18.7266 24.7764 18.7266C21.5796 18.7265 18.7586 17.1229 17.0693 14.6777C15.38 17.1225 12.5598 18.7256 9.36328 18.7256C4.19216 18.7256 0 14.5334 0 9.3623C0.000207183 4.19136 4.19229 0 9.36328 0C12.5596 1.44728e-06 15.3799 1.60245 17.0693 4.04688C18.7587 1.60235 21.5801 0.0001005 24.7764 0Z"/>
</mask>
<path d="M24.7764 0V-0.5H24.7764L24.7764 0ZM34.1396 9.36328L34.6396 9.36329V9.36328H34.1396ZM24.7764 18.7266L24.7764 19.2266H24.7764V18.7266ZM17.0693 14.6777L17.4807 14.3935L17.0694 13.7982L16.658 14.3935L17.0693 14.6777ZM9.36328 18.7256V19.2256V19.2256V18.7256ZM0 9.3623L-0.5 9.36228V9.3623H0ZM9.36328 0V-0.5V-0.5V0ZM17.0693 4.04688L16.658 4.33115L17.0694 4.92632L17.4807 4.33114L17.0693 4.04688ZM24.7764 0V0.5C29.6713 0.5 33.6396 4.46831 33.6396 9.36328H34.1396H34.6396C34.6396 3.91602 30.2236 -0.5 24.7764 -0.5V0ZM34.1396 9.36328L33.6396 9.36327C33.6396 14.2582 29.6713 18.2266 24.7764 18.2266V18.7266V19.2266C30.2236 19.2266 34.6396 14.8105 34.6396 9.36329L34.1396 9.36328ZM24.7764 18.7266L24.7764 18.2266C21.751 18.2265 19.0808 16.7095 17.4807 14.3935L17.0693 14.6777L16.658 14.9619C18.4364 17.5362 21.4082 19.2265 24.7764 19.2266L24.7764 18.7266ZM17.0693 14.6777L16.658 14.3935C15.0578 16.7091 12.3884 18.2256 9.36328 18.2256V18.7256V19.2256C12.7312 19.2256 15.7021 17.5358 17.4807 14.962L17.0693 14.6777ZM9.36328 18.7256V18.2256C4.46831 18.2256 0.5 14.2573 0.5 9.3623H0H-0.5C-0.5 14.8096 3.91602 19.2256 9.36328 19.2256V18.7256ZM0 9.3623L0.5 9.36232C0.500196 4.46756 4.46839 0.5 9.36328 0.5V0V-0.5C3.9162 -0.5 -0.499782 3.91517 -0.5 9.36228L0 9.3623ZM9.36328 0V0.5C12.3883 0.500001 15.0578 2.01585 16.658 4.33115L17.0693 4.04688L17.4807 3.7626C15.702 1.18904 12.7309 -0.499998 9.36328 -0.5V0ZM17.0693 4.04688L17.4807 4.33114C19.0807 2.01583 21.7513 0.500095 24.7764 0.5L24.7764 0L24.7764 -0.5C21.4088 -0.499894 18.4366 1.18887 16.658 3.76261L17.0693 4.04688Z" fill="var(--stroke-0, #CDCED8)" mask="url(#path-1-inside-1_0_4)"/>
</g>
</svg>
