<svg preserveAspectRatio="none" width="100%" height="100%" overflow="visible" style="display: block;" viewBox="0 0 154.262 80.7189" fill="none" xmlns="http://www.w3.org/2000/svg">
<g id="Decorative Element">
<g id="Union">
<mask id="path-1-inside-1_0_6" fill="white">
<path d="M12.9521 0C20.1055 5.2472e-05 25.9042 5.79879 25.9043 12.9521C25.9043 16.8986 24.1371 20.43 21.3535 22.8057C22.4994 23.7836 23.474 24.9559 24.2227 26.2744C26.449 22.353 30.6626 19.7071 35.4941 19.707C39.8188 19.707 43.6455 21.8291 45.998 25.0859C48.3506 21.8288 52.1781 19.707 56.5029 19.707C60.9859 19.7071 64.9366 21.9852 67.2617 25.4463C69.5868 21.985 73.5383 19.7071 78.0215 19.707C85.1749 19.707 90.9746 25.5067 90.9746 32.6602C90.9745 39.8135 85.1748 45.6123 78.0215 45.6123C73.5379 45.6122 69.5867 43.3339 67.2617 39.8721C66.7718 40.6015 66.2081 41.2765 65.584 41.8906C67.9725 44.2402 69.455 47.5079 69.4551 51.123C69.4551 58.2764 63.6563 64.0761 56.5029 64.0762C52.1778 64.0762 48.3505 61.9537 45.998 58.6963C43.6455 61.9535 39.8191 64.0762 35.4941 64.0762C28.3407 64.0761 22.542 58.2765 22.542 51.123C22.542 47.5081 24.0239 44.2402 26.4121 41.8906C25.5581 41.0503 24.8183 40.0942 24.2227 39.0449C21.9963 42.9663 17.7837 45.6123 12.9521 45.6123C5.7988 45.6123 0.000148958 39.8135 0 32.6602C0 28.7138 1.76624 25.1814 4.5498 22.8057C1.76647 20.43 0 16.8983 0 12.9521C5.85788e-05 5.79875 5.79874 0 12.9521 0ZM45.998 40.2324C45.5704 40.8245 45.0955 41.3796 44.5762 41.8906C45.0957 42.4018 45.5703 42.9576 45.998 43.5498C46.4258 42.9576 46.9004 42.4018 47.4199 41.8906C46.9006 41.3796 46.4256 40.8245 45.998 40.2324Z"/>
</mask>
<path d="M12.9521 0L12.9522 -0.5H12.9521V0ZM25.9043 12.9521H26.4043V12.9521L25.9043 12.9521ZM21.3535 22.8057L21.0289 22.4253L20.5833 22.8057L21.0289 23.186L21.3535 22.8057ZM24.2227 26.2744L23.7879 26.5213L24.2227 27.2871L24.6575 26.5213L24.2227 26.2744ZM35.4941 19.707V19.207H35.4941L35.4941 19.707ZM45.998 25.0859L45.5927 25.3787L45.9981 25.9399L46.4034 25.3787L45.998 25.0859ZM56.5029 19.707L56.5029 19.207H56.5029V19.707ZM67.2617 25.4463L66.8467 25.7251L67.2617 26.3429L67.6768 25.7251L67.2617 25.4463ZM78.0215 19.707V19.207H78.0215L78.0215 19.707ZM90.9746 32.6602L91.4746 32.6602V32.6602H90.9746ZM78.0215 45.6123L78.0215 46.1123H78.0215V45.6123ZM67.2617 39.8721L67.6768 39.5933L67.2617 38.9753L66.8467 39.5933L67.2617 39.8721ZM65.584 41.8906L65.2333 41.5342L64.871 41.8907L65.2333 42.2471L65.584 41.8906ZM69.4551 51.123H69.9551V51.123L69.4551 51.123ZM56.5029 64.0762V64.5762H56.5029L56.5029 64.0762ZM45.998 58.6963L46.4034 58.4036L45.9981 57.8423L45.5927 58.4035L45.998 58.6963ZM35.4941 64.0762L35.4941 64.5762H35.4941V64.0762ZM22.542 51.123L22.042 51.123V51.123H22.542ZM26.4121 41.8906L26.7628 42.2471L27.125 41.8907L26.7628 41.5342L26.4121 41.8906ZM24.2227 39.0449L24.6575 38.7981L24.2227 38.0322L23.7878 38.7981L24.2227 39.0449ZM12.9521 45.6123V46.1123H12.9522L12.9521 45.6123ZM0 32.6602H-0.5V32.6602L0 32.6602ZM4.5498 22.8057L4.8744 23.186L5.31999 22.8057L4.87441 22.4254L4.5498 22.8057ZM0 12.9521L-0.5 12.9521V12.9521H0ZM45.998 40.2324L46.4034 39.9397L45.9981 39.3784L45.5927 39.9397L45.998 40.2324ZM44.5762 41.8906L44.2255 41.5342L43.8632 41.8907L44.2255 42.2471L44.5762 41.8906ZM45.998 43.5498L45.5927 43.8426L45.9981 44.4038L46.4034 43.8425L45.998 43.5498ZM47.4199 41.8906L47.7706 42.247L48.1328 41.8907L47.7706 41.5342L47.4199 41.8906ZM12.9521 0L12.9521 0.5C19.8294 0.50005 25.4042 6.07493 25.4043 12.9522L25.9043 12.9521L26.4043 12.9521C26.4042 5.52264 20.3817 -0.499945 12.9522 -0.5L12.9521 0ZM25.9043 12.9521H25.4043C25.4043 16.7458 23.7062 20.1404 21.0289 22.4253L21.3535 22.8057L21.6781 23.186C24.568 20.7195 26.4043 17.0513 26.4043 12.9521H25.9043ZM21.3535 22.8057L21.0289 23.186C22.1313 24.1268 23.0684 25.2541 23.7879 26.5213L24.2227 26.2744L24.6575 26.0275C23.8797 24.6577 22.8676 23.4404 21.6781 22.4253L21.3535 22.8057ZM24.2227 26.2744L24.6575 26.5213C26.7986 22.7499 30.8498 20.2071 35.4941 20.207L35.4941 19.707L35.4941 19.207C30.4754 19.2071 26.0994 21.9561 23.7878 26.0276L24.2227 26.2744ZM35.4941 19.707V20.207C39.6511 20.207 43.33 22.2461 45.5927 25.3787L45.998 25.0859L46.4034 24.7932C43.9611 21.412 39.9864 19.207 35.4941 19.207V19.707ZM45.998 25.0859L46.4034 25.3787C48.6661 22.2459 52.3457 20.207 56.5029 20.207V19.707V19.207C52.0105 19.207 48.035 21.4117 45.5927 24.7932L45.998 25.0859ZM56.5029 19.707L56.5029 20.207C60.8123 20.2071 64.6104 22.3963 66.8467 25.7251L67.2617 25.4463L67.6768 25.1675C65.2627 21.5741 61.1595 19.2071 56.5029 19.207L56.5029 19.707ZM67.2617 25.4463L67.6768 25.7251C69.913 22.3961 73.7119 20.2071 78.0215 20.207L78.0215 19.707L78.0215 19.207C73.3648 19.2071 69.2607 21.5738 66.8467 25.1675L67.2617 25.4463ZM78.0215 19.707V20.207C84.8988 20.207 90.4746 25.7829 90.4746 32.6602H90.9746H91.4746C91.4746 25.2306 85.4511 19.207 78.0215 19.207V19.707ZM90.9746 32.6602L90.4746 32.6601C90.4745 39.5373 84.8987 45.1123 78.0215 45.1123V45.6123V46.1123C85.4509 46.1123 91.4745 40.0897 91.4746 32.6602L90.9746 32.6602ZM78.0215 45.6123L78.0215 45.1123C73.7115 45.1122 69.9129 42.9228 67.6768 39.5933L67.2617 39.8721L66.8466 40.1508C69.2606 43.7451 73.3643 46.1122 78.0215 46.1123L78.0215 45.6123ZM67.2617 39.8721L66.8467 39.5933C66.3761 40.2939 65.8342 40.943 65.2333 41.5342L65.584 41.8906L65.9347 42.247C66.5821 41.61 67.1675 40.9091 67.6768 40.1509L67.2617 39.8721ZM65.584 41.8906L65.2333 42.2471C67.5304 44.5067 68.955 47.6475 68.9551 51.1231L69.4551 51.123L69.9551 51.123C69.955 47.3682 68.4146 43.9738 65.9346 41.5342L65.584 41.8906ZM69.4551 51.123H68.9551C68.9551 58.0003 63.3801 63.5761 56.5029 63.5762L56.5029 64.0762L56.5029 64.5762C63.9325 64.5761 69.9551 58.5525 69.9551 51.123H69.4551ZM56.5029 64.0762V63.5762C52.3455 63.5762 48.6661 61.5367 46.4034 58.4036L45.998 58.6963L45.5927 58.989C48.0349 62.3708 52.0102 64.5762 56.5029 64.5762V64.0762ZM45.998 58.6963L45.5927 58.4035C43.3299 61.5365 39.6513 63.5762 35.4941 63.5762V64.0762V64.5762C39.9868 64.5762 43.9612 62.3705 46.4034 58.989L45.998 58.6963ZM35.4941 64.0762L35.4941 63.5762C28.6169 63.5761 23.042 58.0004 23.042 51.123H22.542H22.042C22.042 58.5526 28.0646 64.5761 35.4941 64.5762L35.4941 64.0762ZM22.542 51.123L23.042 51.1231C23.042 47.6477 24.466 44.5066 26.7628 42.2471L26.4121 41.8906L26.0615 41.5342C23.5817 43.9738 22.0421 47.3686 22.042 51.123L22.542 51.123ZM26.4121 41.8906L26.7628 41.5342C25.941 40.7256 25.2298 39.8062 24.6575 38.7981L24.2227 39.0449L23.7878 39.2918C24.4069 40.3822 25.1752 41.375 26.0614 42.247L26.4121 41.8906ZM24.2227 39.0449L23.7878 38.7981C21.6467 42.5695 17.5964 45.1123 12.9521 45.1123L12.9521 45.6123L12.9522 46.1123C17.9709 46.1123 22.346 43.3632 24.6575 39.2918L24.2227 39.0449ZM12.9521 45.6123V45.1123C6.07495 45.1123 0.500143 39.5373 0.5 32.6601L0 32.6602L-0.5 32.6602C-0.499845 40.0896 5.52264 46.1123 12.9521 46.1123V45.6123ZM0 32.6602H0.5C0.5 28.8664 2.19723 25.4709 4.8744 23.186L4.5498 22.8057L4.22521 22.4253C1.33524 24.8919 -0.5 28.5611 -0.5 32.6602H0ZM4.5498 22.8057L4.87441 22.4254C2.19742 20.1404 0.5 16.7456 0.5 12.9521H0H-0.5C-0.5 17.0511 1.33552 20.7195 4.2252 23.186L4.5498 22.8057ZM0 12.9521L0.5 12.9522C0.500056 6.07489 6.07489 0.5 12.9521 0.5V0V-0.5C5.52259 -0.5 -0.499939 5.52261 -0.5 12.9521L0 12.9521ZM45.998 40.2324L45.5927 39.9397C45.1811 40.5096 44.7244 41.0433 44.2255 41.5342L44.5762 41.8906L44.9269 42.247C45.4666 41.7159 45.9597 41.1395 46.4034 40.5252L45.998 40.2324ZM44.5762 41.8906L44.2255 42.2471C44.7244 42.7378 45.1808 43.2722 45.5927 43.8426L45.998 43.5498L46.4034 43.257C45.9598 42.6429 45.4671 42.0657 44.9268 41.5342L44.5762 41.8906ZM45.998 43.5498L46.4034 43.8425C46.8153 43.2723 47.2717 42.7379 47.7706 42.247L47.4199 41.8906L47.0693 41.5342C46.5291 42.0656 46.0363 42.6429 45.5927 43.2571L45.998 43.5498ZM47.4199 41.8906L47.7706 41.5342C47.2717 41.0433 46.8149 40.5096 46.4034 39.9397L45.998 40.2324L45.5927 40.5251C46.0363 41.1395 46.5295 41.7159 47.0692 42.247L47.4199 41.8906Z" fill="var(--stroke-0, #CDCED8)" mask="url(#path-1-inside-1_0_6)"/>
</g>
<g id="Vector">
<path d="M115.514 42.535L115.514 55.2629H128.242L128.242 42.535H115.514Z" fill="var(--fill-0, #4662FF)"/>
<path d="M102.785 29.807L102.785 42.5349L115.514 42.535L115.513 29.807H102.785Z" fill="var(--fill-0, #4662FF)"/>
<path d="M128.242 5.68311V18.411L140.97 18.411V5.68311L128.242 5.68311Z" fill="#C7FF46"/>
<path d="M128.806 55.263V67.9909H141.534V55.263H128.806Z" fill="#C7FF46"/>
<path d="M102.785 42.5349V55.2629H115.514L115.514 42.535L102.785 42.5349Z" fill="#C7FF46"/>
<path d="M141.534 67.9909L141.535 80.7189H154.262V67.991L141.534 67.9909Z" fill="var(--fill-0, #4662FF)"/>
</g>
</g>
</svg>
