<svg width="185.573" height="124.376" overflow="visible" style="display: block;" viewBox="0 0 185.573 124.376" fill="none" xmlns="http://www.w3.org/2000/svg">
<g id="Vector">
<path d="M184.573 63.6992C184.573 71.9835 177.858 78.6992 169.573 78.6992C164.538 78.6992 160.083 76.2183 157.362 72.4121C154.616 75.8983 150.356 78.1367 145.573 78.1367C140.698 78.1367 136.368 75.8102 133.628 72.208C133.384 72.5292 133.127 72.8405 132.858 73.1406C136.537 75.8743 138.92 80.2532 138.92 85.1885C138.92 89.8588 136.786 94.0312 133.439 96.7822C136.786 99.5333 138.92 103.706 138.92 108.376C138.92 116.66 132.204 123.376 123.92 123.376C115.636 123.376 108.92 116.66 108.92 108.376C108.92 103.705 111.055 99.5333 114.402 96.7822C111.055 94.0312 108.92 89.8593 108.92 85.1885C108.92 81.3441 110.367 77.838 112.745 75.1836C112.099 74.7033 111.493 74.1717 110.933 73.5957C108.208 76.3963 104.398 78.1367 100.182 78.1367C91.8976 78.1364 85.1816 71.4208 85.1816 63.1367C85.1816 59.9082 86.2022 56.9181 87.9375 54.4707C85.4684 56.2575 82.4341 57.3115 79.1533 57.3115C74.1362 57.3115 69.6958 54.8474 66.9727 51.0644C64.2495 54.8477 59.8083 57.3115 54.791 57.3115C46.5068 57.3115 39.791 50.5958 39.791 42.3115C39.791 34.0273 46.5068 27.3115 54.791 27.3115C59.808 27.3115 64.2494 29.7748 66.9727 33.5576C69.6959 29.775 74.1365 27.3115 79.1533 27.3115C84.0445 27.3115 88.3887 29.6527 91.127 33.2754C93.8652 29.6528 98.2095 27.3115 103.101 27.3115C107.249 27.3116 111.003 28.9954 113.719 31.7168C116.434 28.9955 120.189 27.3115 124.337 27.3115C128.485 27.3116 132.24 28.9954 134.955 31.7168C135.988 30.6818 137.171 29.7969 138.469 29.0977C133.883 26.5316 130.781 21.6286 130.781 16C130.781 7.71587 137.497 1.00022 145.781 0.999998C154.066 0.999999 160.781 7.71573 160.781 16C160.781 21.7132 157.587 26.68 152.888 29.2129C157.473 31.779 160.573 36.6832 160.573 42.3115C160.573 46.3561 158.972 50.0258 156.369 52.7236C156.881 53.2542 157.355 53.8215 157.785 54.4229C160.532 50.9374 164.791 48.6992 169.573 48.6992C177.857 48.6992 184.573 55.4151 184.573 63.6992Z" fill="white"/>
<path d="M157.362 72.4121L158.176 71.8306L157.401 70.7469L156.577 71.7932L157.362 72.4121ZM133.628 72.208L134.424 71.6026L133.628 70.5561L132.832 71.6026L133.628 72.208ZM132.858 73.1406L132.114 72.4734L131.382 73.2897L132.262 73.9433L132.858 73.1406ZM133.439 96.7822L132.804 96.0097L131.865 96.7822L132.804 97.5547L133.439 96.7822ZM114.402 96.7822L115.037 97.5548L115.977 96.7822L115.037 96.0097L114.402 96.7822ZM112.745 75.1836L113.49 75.8509L114.221 75.0346L113.342 74.3809L112.745 75.1836ZM110.933 73.5957L111.649 72.8983L110.933 72.1618L110.216 72.8983L110.933 73.5957ZM87.9375 54.4707L88.7533 55.0491L87.3512 53.6606L87.9375 54.4707ZM66.9727 51.0644L67.7842 50.4802L66.9726 49.3527L66.161 50.4802L66.9727 51.0644ZM66.9727 33.5576L66.1611 34.1419L66.9726 35.2692L67.7842 34.1419L66.9727 33.5576ZM91.127 33.2754L90.3292 33.8784L91.1269 34.9338L91.9247 33.8784L91.127 33.2754ZM113.719 31.7168L113.011 32.4231L113.719 33.1326L114.427 32.4231L113.719 31.7168ZM134.955 31.7168L134.247 32.4231L134.955 33.1326L135.663 32.4231L134.955 31.7168ZM138.469 29.0977L138.943 29.978L140.546 29.1142L138.957 28.225L138.469 29.0977ZM152.888 29.2129L152.413 28.3326L150.81 29.1964L152.399 30.0855L152.888 29.2129ZM156.369 52.7236L155.649 52.0293L154.98 52.7237L155.649 53.4179L156.369 52.7236ZM157.785 54.4229L156.972 55.0044L157.746 56.0879L158.571 55.0418L157.785 54.4229ZM184.573 63.6992H183.573C183.573 71.4312 177.305 77.6992 169.573 77.6992V78.6992V79.6992C178.41 79.6992 185.573 72.5358 185.573 63.6992H184.573ZM169.573 78.6992V77.6992C164.875 77.6992 160.717 75.3855 158.176 71.8306L157.362 72.4121L156.549 72.9936C159.449 77.0511 164.202 79.6992 169.573 79.6992V78.6992ZM157.362 72.4121L156.577 71.7932C154.012 75.0491 150.036 77.1367 145.573 77.1367V78.1367V79.1367C150.675 79.1367 155.22 76.7475 158.148 73.031L157.362 72.4121ZM145.573 78.1367V77.1367C141.024 77.1367 136.983 74.9671 134.424 71.6026L133.628 72.208L132.832 72.8134C135.753 76.6534 140.372 79.1367 145.573 79.1367V78.1367ZM133.628 72.208L132.832 71.6026C132.603 71.9032 132.364 72.1939 132.114 72.4734L132.858 73.1406L133.603 73.8078C133.891 73.4871 134.164 73.1551 134.424 72.8134L133.628 72.208ZM132.858 73.1406L132.262 73.9433C135.697 76.4963 137.92 80.5828 137.92 85.1885H138.92H139.92C139.92 79.9237 137.376 75.2522 133.455 72.338L132.858 73.1406ZM138.92 85.1885H137.92C137.92 89.5472 135.93 93.4406 132.804 96.0097L133.439 96.7822L134.074 97.5547C137.642 94.6218 139.92 90.1704 139.92 85.1885H138.92ZM133.439 96.7822L132.804 97.5547C135.93 100.124 137.92 104.017 137.92 108.376H138.92H139.92C139.92 103.394 137.642 98.9426 134.074 96.0097L133.439 96.7822ZM138.92 108.376H137.92C137.92 116.108 131.652 122.376 123.92 122.376V123.376V124.376C132.756 124.376 139.92 117.213 139.92 108.376H138.92ZM123.92 123.376V122.376C116.188 122.376 109.92 116.108 109.92 108.376H108.92H107.92C107.92 117.212 115.083 124.376 123.92 124.376V123.376ZM108.92 108.376H109.92C109.92 104.017 111.911 100.124 115.037 97.5548L114.402 96.7822L113.767 96.0097C110.199 98.9424 107.92 103.393 107.92 108.376H108.92ZM114.402 96.7822L115.037 96.0097C111.911 93.4404 109.92 89.5475 109.92 85.1885H108.92H107.92C107.92 90.1711 110.199 94.622 113.767 97.5548L114.402 96.7822ZM108.92 85.1885H109.92C109.92 81.5999 111.27 78.3292 113.49 75.8509L112.745 75.1836L112 74.5163C109.464 77.3469 107.92 81.0882 107.92 85.1885H108.92ZM112.745 75.1836L113.342 74.3809C112.739 73.933 112.173 73.4366 111.649 72.8983L110.933 73.5957L110.216 74.2931C110.813 74.9067 111.459 75.4736 112.149 75.9862L112.745 75.1836ZM110.933 73.5957L110.216 72.8983C107.671 75.5135 104.117 77.1367 100.182 77.1367V78.1367V79.1367C104.679 79.1367 108.744 77.279 111.649 74.2931L110.933 73.5957ZM100.182 78.1367V77.1367C92.4498 77.1365 86.1816 70.8685 86.1816 63.1367H85.1816H84.1816C84.1816 71.9731 91.3453 79.1364 100.182 79.1367V78.1367ZM85.1816 63.1367H86.1816C86.1816 60.1223 87.1338 57.3331 88.7533 55.0491L87.9375 54.4707L87.1217 53.8923C85.2706 56.5031 84.1816 59.6941 84.1816 63.1367H85.1816ZM87.9375 54.4707L87.3512 53.6606C85.0468 55.3282 82.2165 56.3115 79.1533 56.3115V57.3115V58.3115C82.6518 58.3115 85.89 57.1869 88.5238 55.2808L87.9375 54.4707ZM79.1533 57.3115V56.3115C74.4717 56.3115 70.3277 54.0135 67.7842 50.4802L66.9727 51.0644L66.1611 51.6487C69.0639 55.6813 73.8008 58.3115 79.1533 58.3115V57.3115ZM66.9727 51.0644L66.161 50.4802C63.6176 54.0137 59.4729 56.3115 54.791 56.3115V57.3115V58.3115C60.1437 58.3115 64.8813 55.6816 67.7843 51.6486L66.9727 51.0644ZM54.791 57.3115V56.3115C47.059 56.3115 40.791 50.0435 40.791 42.3115H39.791H38.791C38.791 51.1481 45.9545 58.3115 54.791 58.3115V57.3115ZM39.791 42.3115H40.791C40.791 34.5795 47.0591 28.3115 54.791 28.3115V27.3115V26.3115C45.9545 26.3115 38.791 33.475 38.791 42.3115H39.791ZM54.791 27.3115V28.3115C59.4727 28.3115 63.6177 30.6088 66.1611 34.1419L66.9727 33.5576L67.7842 32.9734C64.8812 28.9408 60.1433 26.3115 54.791 26.3115V27.3115ZM66.9727 33.5576L67.7842 34.1419C70.3277 30.609 74.4719 28.3115 79.1533 28.3115V27.3115V26.3115C73.8012 26.3115 69.0641 28.9411 66.1611 32.9733L66.9727 33.5576ZM79.1533 27.3115V28.3115C83.7177 28.3115 87.7718 30.4949 90.3292 33.8784L91.127 33.2754L91.9247 32.6724C89.0056 28.8104 84.3712 26.3115 79.1533 26.3115V27.3115ZM91.127 33.2754L91.9247 33.8784C94.4821 30.495 98.5362 28.3115 103.101 28.3115V27.3115V26.3115C97.8828 26.3115 93.2483 28.8105 90.3292 32.6724L91.127 33.2754ZM103.101 27.3115V28.3115C106.972 28.3116 110.475 29.8821 113.011 32.4231L113.719 31.7168L114.427 31.0105C111.531 28.1088 107.525 26.3116 103.101 26.3115V27.3115ZM113.719 31.7168L114.427 32.4231C116.962 29.8821 120.465 28.3115 124.337 28.3115V27.3115V26.3115C119.913 26.3115 115.906 28.1089 113.011 31.0105L113.719 31.7168ZM124.337 27.3115V28.3115C128.209 28.3116 131.712 29.8821 134.247 32.4231L134.955 31.7168L135.663 31.0105C132.768 28.1088 128.761 26.3116 124.337 26.3115V27.3115ZM134.955 31.7168L135.663 32.4231C136.627 31.4566 137.732 30.6306 138.943 29.978L138.469 29.0977L137.994 28.2173C136.61 28.9633 135.348 29.907 134.247 31.0105L134.955 31.7168ZM138.469 29.0977L138.957 28.225C134.674 25.8284 131.781 21.2518 131.781 16H130.781H129.781C129.781 22.0055 133.092 27.2348 137.98 29.9703L138.469 29.0977ZM130.781 16H131.781C131.781 8.26818 138.049 2.00021 145.781 2V0.999998V0C136.945 0.000239 129.781 7.16355 129.781 16H130.781ZM145.781 0.999998V2C153.513 2 159.781 8.26801 159.781 16H160.781H161.781C161.781 7.16344 154.618 0 145.781 0V0.999998ZM160.781 16H159.781C159.781 21.3309 156.802 25.9672 152.413 28.3326L152.888 29.2129L153.362 30.0932C158.373 27.3928 161.781 22.0954 161.781 16H160.781ZM152.888 29.2129L152.399 30.0855C156.682 32.4821 159.573 37.0597 159.573 42.3115H160.573H161.573C161.573 36.3066 158.265 31.076 153.376 28.3402L152.888 29.2129ZM160.573 42.3115H159.573C159.573 46.0866 158.08 49.5103 155.649 52.0293L156.369 52.7236L157.089 53.4179C159.864 50.5414 161.573 46.6255 161.573 42.3115H160.573ZM156.369 52.7236L155.649 53.4179C156.128 53.9144 156.571 54.4441 156.972 55.0044L157.785 54.4229L158.599 53.8413C158.14 53.199 157.634 52.5941 157.089 52.0293L156.369 52.7236ZM157.785 54.4229L158.571 55.0418C161.136 51.7866 165.111 49.6992 169.573 49.6992V48.6992V47.6992C164.472 47.6992 159.928 50.0882 157 53.8039L157.785 54.4229ZM169.573 48.6992V49.6992C177.305 49.6992 183.573 55.9674 183.573 63.6992H184.573H185.573C185.573 54.8629 178.41 47.6992 169.573 47.6992V48.6992Z" fill="#CDCED8"/>
<path d="M2.62268e-06 18.5601L30 18.5601L30 48.5601H0L2.62268e-06 18.5601Z" fill="#353535"/>
<path d="M30 48.5601H60L60 78.5601L30 78.5601V48.5601Z" fill="#C7FF46"/>
<path d="M90 48.5601H120V78.5601L90 78.5601V48.5601Z" fill="var(--fill-0, #4662FF)"/>
</g>
</svg>
