<svg preserveAspectRatio="none" width="100%" height="100%" overflow="visible" style="display: block;" viewBox="0 0 209.408 218.701" fill="none" xmlns="http://www.w3.org/2000/svg">
<g id="Vector">
<path d="M208.408 136.305C208.408 153.744 194.271 167.882 176.831 167.882C165.581 167.882 155.707 161.997 150.114 153.139C148.159 156.236 145.681 158.968 142.803 161.214C150.209 166.993 154.973 176.002 154.973 186.124C154.973 203.563 140.835 217.701 123.395 217.701C105.956 217.701 91.8184 203.563 91.8184 186.124C91.8184 176.002 96.5823 166.993 103.989 161.214C96.5826 155.435 91.8184 146.427 91.8184 136.305C91.8184 131.766 92.7781 127.453 94.5019 123.553C91.3353 124.619 87.9442 125.198 84.418 125.198C73.6842 125.198 64.2036 119.841 58.498 111.656C52.7926 119.841 43.3111 125.198 32.5771 125.198C15.1378 125.198 1.00023 111.061 1 93.6221C1 76.1826 15.1377 62.0449 32.5771 62.0449C43.3108 62.0451 52.7925 67.4012 58.498 75.5859C62.074 70.4563 67.1324 66.4384 73.0537 64.1533C61.2301 59.5903 52.841 48.1192 52.8408 34.6865C52.8408 17.2471 66.9786 3.10953 84.418 3.10937C101.857 3.10937 115.995 17.2471 115.995 34.6865C115.995 48.1188 107.607 59.59 95.7842 64.1533C107.607 68.7166 115.995 80.1895 115.995 93.6221C115.995 98.1591 115.036 102.472 113.313 106.371C116.479 105.305 119.87 104.728 123.396 104.728C134.646 104.728 144.521 110.612 150.114 119.47C152.256 116.077 155.026 113.122 158.262 110.766C150.379 105.024 145.255 95.7247 145.255 85.2266C145.255 74.235 150.872 64.5567 159.391 58.9014C150.872 53.246 145.255 43.5685 145.255 32.5771C145.255 15.1378 159.392 1.00022 176.831 1C194.271 1 208.408 15.1377 208.408 32.5771C208.408 43.5681 202.792 53.2459 194.273 58.9014C202.792 64.5567 208.408 74.2354 208.408 85.2266C208.408 95.7244 203.284 105.024 195.402 110.766C203.284 116.507 208.408 125.807 208.408 136.305Z" fill="white"/>
<path d="M150.114 153.139L150.96 152.605L150.114 151.266L149.269 152.605L150.114 153.139ZM142.803 161.214L142.188 160.425L141.177 161.214L142.188 162.002L142.803 161.214ZM103.989 161.214L104.604 162.002L105.615 161.214L104.604 160.425L103.989 161.214ZM94.5019 123.553L95.4166 123.957L96.3344 121.88L94.1828 122.605L94.5019 123.553ZM58.498 111.656L59.3184 111.084L58.498 109.908L57.6777 111.084L58.498 111.656ZM58.498 75.5859L57.6777 76.1578L58.498 77.3346L59.3184 76.1578L58.498 75.5859ZM73.0537 64.1533L73.4137 65.0863L75.8312 64.1533L73.4138 63.2204L73.0537 64.1533ZM95.7842 64.1533L95.4241 63.2204L93.007 64.1533L95.4241 65.0862L95.7842 64.1533ZM113.313 106.371L112.399 105.967L111.481 108.043L113.633 107.319L113.313 106.371ZM150.114 119.47L149.269 120.004L150.114 121.343L150.96 120.004L150.114 119.47ZM158.262 110.766L158.85 111.574L159.96 110.766L158.85 109.957L158.262 110.766ZM159.391 58.9014L159.944 59.7345L161.199 58.9014L159.944 58.0682L159.391 58.9014ZM194.273 58.9014L193.72 58.0683L192.465 58.9014L193.72 59.7345L194.273 58.9014ZM195.402 110.766L194.814 109.957L193.704 110.766L194.814 111.574L195.402 110.766ZM208.408 136.305H207.408C207.408 153.192 193.718 166.882 176.831 166.882V167.882V168.882C194.823 168.882 209.408 154.296 209.408 136.305H208.408ZM176.831 167.882V166.882C165.938 166.882 156.377 161.185 150.96 152.605L150.114 153.139L149.269 153.673C155.037 162.808 165.223 168.882 176.831 168.882V167.882ZM150.114 153.139L149.269 152.605C147.375 155.604 144.975 158.251 142.188 160.425L142.803 161.214L143.418 162.002C146.386 159.686 148.943 156.867 150.96 153.673L150.114 153.139ZM142.803 161.214L142.188 162.002C149.362 167.6 153.973 176.323 153.973 186.124H154.973H155.973C155.973 175.681 151.057 166.385 143.418 160.425L142.803 161.214ZM154.973 186.124H153.973C153.973 203.011 140.283 216.701 123.395 216.701L123.395 217.701L123.395 218.701C141.387 218.701 155.973 204.116 155.973 186.124H154.973ZM123.395 217.701L123.395 216.701C106.508 216.701 92.8184 203.011 92.8184 186.124H91.8184H90.8184C90.8184 204.116 105.404 218.701 123.395 218.701L123.395 217.701ZM91.8184 186.124H92.8184C92.8184 176.323 97.4297 167.6 104.604 162.002L103.989 161.214L103.374 160.425C95.7348 166.385 90.8184 175.68 90.8184 186.124H91.8184ZM103.989 161.214L104.604 160.425C97.43 154.828 92.8184 146.106 92.8184 136.305H91.8184H90.8184C90.8184 146.748 95.7352 156.042 103.374 162.002L103.989 161.214ZM91.8184 136.305H92.8184C92.8184 131.909 93.7478 127.733 95.4166 123.957L94.5019 123.553L93.5873 123.148C91.8084 127.173 90.8184 131.624 90.8184 136.305H91.8184ZM94.5019 123.553L94.1828 122.605C91.1174 123.637 87.8341 124.198 84.418 124.198L84.418 125.198L84.418 126.198C88.0543 126.198 91.5531 125.601 94.8211 124.5L94.5019 123.553ZM84.418 125.198L84.418 124.198C74.0251 124.198 64.845 119.013 59.3184 111.084L58.498 111.656L57.6777 112.228C63.5621 120.67 73.3432 126.198 84.418 126.198L84.418 125.198ZM58.498 111.656L57.6777 111.084C52.1511 119.013 42.9702 124.198 32.5771 124.198V125.198V126.198C43.6519 126.198 53.434 120.67 59.3184 112.228L58.498 111.656ZM32.5771 125.198V124.198C15.6901 124.198 2.00022 110.509 2 93.622L1 93.6221H0C0.000239 111.614 14.5856 126.198 32.5771 126.198V125.198ZM1 93.6221L2 93.622C2 76.7348 15.69 63.0449 32.5771 63.0449V62.0449L32.5772 61.0449C14.5855 61.0449 0 75.6303 0 93.6221H1ZM32.5771 62.0449V63.0449C42.9699 63.0451 52.1511 68.2297 57.6777 76.1578L58.498 75.5859L59.3184 75.0141C53.4339 66.5726 43.6516 61.0451 32.5772 61.0449L32.5771 62.0449ZM58.498 75.5859L59.3184 76.1578C62.7819 71.1894 67.6811 67.2985 73.4137 65.0863L73.0537 64.1533L72.6937 63.2204C66.5837 65.5783 61.366 69.7233 57.6777 75.0141L58.498 75.5859ZM73.0537 64.1533L73.4138 63.2204C61.9628 58.8012 53.841 47.6921 53.8408 34.6865H52.8408H51.8408C51.841 48.5464 60.4975 60.3794 72.6937 65.0863L73.0537 64.1533ZM52.8408 34.6865H53.8408C53.8408 17.7994 67.5309 4.10952 84.418 4.10937L84.418 3.10937L84.418 2.10937C66.4264 2.10953 51.8408 16.6949 51.8408 34.6865H52.8408ZM84.418 3.10937L84.418 4.10937C101.305 4.10937 114.995 17.7993 114.995 34.6865H115.995H116.995C116.995 16.6948 102.41 2.10937 84.418 2.10937L84.418 3.10937ZM115.995 34.6865H114.995C114.995 47.6917 106.874 58.8009 95.4241 63.2204L95.7842 64.1533L96.1443 65.0862C108.34 60.3791 116.995 48.5459 116.995 34.6865H115.995ZM95.7842 64.1533L95.4241 65.0862C106.875 69.5057 114.995 80.6165 114.995 93.6221H115.995H116.995C116.995 79.7625 108.34 67.9275 96.1442 63.2204L95.7842 64.1533ZM115.995 93.6221H114.995C114.995 98.017 114.067 102.192 112.399 105.967L113.313 106.371L114.228 106.775C116.006 102.751 116.995 98.3012 116.995 93.6221H115.995ZM113.313 106.371L113.633 107.319C116.697 106.287 119.98 105.728 123.396 105.728L123.396 104.728L123.396 103.728C119.76 103.728 116.262 104.323 112.994 105.423L113.313 106.371ZM123.396 104.728L123.396 105.728C134.288 105.728 143.851 111.424 149.269 120.004L150.114 119.47L150.96 118.936C145.191 109.8 135.003 103.728 123.396 103.728L123.396 104.728ZM150.114 119.47L150.96 120.004C153.034 116.718 155.717 113.856 158.85 111.574L158.262 110.766L157.673 109.957C154.336 112.388 151.479 115.436 149.269 118.936L150.114 119.47ZM158.262 110.766L158.85 109.957C151.215 104.396 146.255 95.3914 146.255 85.2266H145.255H144.255C144.255 96.0581 149.543 105.653 157.673 111.574L158.262 110.766ZM145.255 85.2266H146.255C146.255 74.5842 151.692 65.2124 159.944 59.7345L159.391 58.9014L158.838 58.0682C150.051 63.9009 144.255 73.8859 144.255 85.2266H145.255ZM159.391 58.9014L159.944 58.0682C151.692 52.5902 146.255 43.2193 146.255 32.5771H145.255H144.255C144.255 43.9176 150.052 53.9018 158.838 59.7345L159.391 58.9014ZM145.255 32.5771H146.255C146.255 15.6901 159.944 2.00021 176.831 2V1V0C158.839 0.000223 144.255 14.5856 144.255 32.5771H145.255ZM176.831 1V2C193.718 2 207.408 15.69 207.408 32.5771H208.408L209.408 32.5772C209.408 14.5855 194.823 0 176.831 0V1ZM208.408 32.5771H207.408C207.408 43.219 201.972 52.5902 193.72 58.0683L194.273 58.9014L194.827 59.7345C203.612 53.9017 209.408 43.9173 209.408 32.5772L208.408 32.5771ZM194.273 58.9014L193.72 59.7345C201.972 65.2125 207.408 74.5845 207.408 85.2266H208.408H209.408C209.408 73.8863 203.612 63.901 194.827 58.0682L194.273 58.9014ZM208.408 85.2266H207.408C207.408 95.3911 202.448 104.396 194.814 109.957L195.402 110.766L195.991 111.574C204.12 105.652 209.408 96.0577 209.408 85.2266H208.408ZM195.402 110.766L194.814 111.574C202.449 117.135 207.408 126.14 207.408 136.305H208.408H209.408C209.408 125.474 204.12 115.879 195.991 109.957L195.402 110.766Z" fill="var(--fill-0, #CDCED8)"/>
</g>
</svg>
