<svg width="102.939" height="73.8994" overflow="visible" style="display: block;" viewBox="0 0 102.939 73.8994" fill="none" xmlns="http://www.w3.org/2000/svg">
<path id="Union" d="M64.2744 0.5C72.2822 0.500264 78.7742 6.99221 78.7744 15C78.7744 20.1655 76.0728 24.7004 72.0039 27.2695L71.334 27.6924L72.0039 28.1152C73.4258 29.013 74.6809 30.1505 75.7119 31.4717L76.1064 31.9766L76.501 31.4717C79.1554 28.0699 83.292 25.8838 87.9395 25.8838C95.9475 25.8838 102.439 32.3758 102.439 40.3838C102.439 48.3919 95.9476 54.8838 87.9395 54.8838C83.2916 54.8838 79.1554 52.6972 76.501 49.2949L76.1064 48.79L75.7119 49.2949C73.0576 52.697 68.9219 54.8836 64.2744 54.8838C62.1895 54.8838 60.2086 54.4429 58.418 53.6514L57.3799 53.1924L57.7422 54.2676C58.2319 55.7215 58.498 57.2791 58.498 58.8994C58.498 66.9075 52.0062 73.3994 43.998 73.3994C37.831 73.3994 32.5628 69.5488 30.4668 64.1191L30 62.9102L29.5332 64.1191C27.4372 69.5488 22.169 73.3994 16.002 73.3994C7.99382 73.3994 1.50195 66.9075 1.50195 58.8994C1.50195 50.8913 7.99382 44.3994 16.002 44.3994C22.1687 44.3994 27.437 48.2495 29.5332 53.6787L30 54.8877L30.4668 53.6787C32.563 48.2495 37.8313 44.3994 43.998 44.3994C46.0823 44.3994 48.0624 44.8398 49.8525 45.6309L50.8906 46.0898L50.5283 45.0146C50.039 43.5614 49.7744 42.0039 49.7744 40.3838L49.7822 39.9014C49.9446 34.9372 52.6018 30.6041 56.543 28.1152L57.2129 27.6924L56.543 27.2695C54.9853 26.2859 53.6281 25.0132 52.5459 23.5273L52.1416 22.9717L51.7373 23.5273C49.1001 27.1479 44.8306 29.4998 40.0107 29.5C34.9638 29.5 30.5196 26.9213 27.9219 23.0078L27.5049 22.3799L27.0879 23.0078C24.4901 26.9212 20.0468 29.5 15 29.5C6.99187 29.5 0.5 23.0081 0.5 15L0.504883 14.626C0.703462 6.79085 7.11706 0.5 15 0.5C20.0463 0.5 24.49 3.07845 27.0879 6.99121L27.5049 7.61914L27.9219 6.99121C30.5197 3.07837 34.9643 0.5 40.0107 0.5C44.8304 0.500159 49.1 2.85237 51.7373 6.47266L52.1416 7.02832L52.5459 6.47266C55.1832 2.85205 59.4543 0.5 64.2744 0.5Z" stroke="var(--stroke-0, #CDCED8)"/>
</svg>
