<svg width="213.461" height="150.938" overflow="visible" style="display: block;" viewBox="0 0 213.461 150.938" fill="none" xmlns="http://www.w3.org/2000/svg">
<g id="Vector">
<path d="M31.1064 1C47.7338 1 61.2129 14.4791 61.2129 31.1064C61.2129 40.2771 57.1109 48.4877 50.6436 54.0098C53.3061 56.283 55.5674 59.0117 57.3066 62.0762C62.4809 52.959 72.2757 46.8076 83.5078 46.8076C93.5561 46.8076 102.453 51.7316 107.922 59.2969C113.391 51.7316 122.288 46.8076 132.336 46.8076C142.757 46.8076 151.94 52.1027 157.345 60.1484C162.749 52.1025 171.934 46.8077 182.354 46.8076C198.982 46.8076 212.461 60.2868 212.461 76.9141C212.461 93.5415 198.982 107.021 182.354 107.021C171.933 107.02 162.749 101.725 157.345 93.6787C156.206 95.3736 154.899 96.9451 153.449 98.3721C158.999 103.833 162.442 111.429 162.442 119.831C162.442 136.458 148.963 149.938 132.336 149.938C122.287 149.938 113.391 145.014 107.922 137.448C102.453 145.014 93.5563 149.938 83.5078 149.938C66.8804 149.937 53.4014 136.458 53.4014 119.831C53.4014 111.43 56.8437 103.833 62.3936 98.3721C60.4079 96.4181 58.6913 94.1919 57.3066 91.752C52.1323 100.869 42.3385 107.021 31.1064 107.021C14.4791 107.02 1 93.5414 1 76.9141C1.00007 67.7436 5.10117 59.5317 11.5684 54.0098C5.10146 48.4878 1 40.2768 1 31.1064C1 14.4791 14.4791 1.00006 31.1064 1ZM107.922 94.5312C106.93 95.9033 105.825 97.1874 104.621 98.3721C105.825 99.5568 106.93 100.842 107.922 102.214C108.914 100.842 110.018 99.5567 111.222 98.3721C110.018 97.1876 108.914 95.9031 107.922 94.5312Z" fill="white"/>
<path d="M50.6436 54.0098L49.9942 53.2493L49.1035 54.0098L49.9942 54.7703L50.6436 54.0098ZM57.3066 62.0762L56.437 62.5698L57.3067 64.1021L58.1763 62.5698L57.3066 62.0762ZM107.922 59.2969L107.111 59.8827L107.922 61.0038L108.732 59.8827L107.922 59.2969ZM157.345 60.1484L156.515 60.706L157.345 61.9419L158.175 60.706L157.345 60.1484ZM157.345 93.6787L158.175 93.1212L157.345 91.8852L156.515 93.1211L157.345 93.6787ZM153.449 98.3721L152.748 97.6593L152.023 98.3721L152.748 99.0849L153.449 98.3721ZM107.922 137.448L108.732 136.862L107.922 135.741L107.111 136.862L107.922 137.448ZM62.3936 98.3721L63.0949 99.0848L63.8193 98.3721L63.095 97.6593L62.3936 98.3721ZM57.3066 91.752L58.1763 91.2584L57.3067 89.7259L56.4369 91.2584L57.3066 91.752ZM11.5684 54.0098L12.2177 54.7703L13.1084 54.0098L12.2177 53.2493L11.5684 54.0098ZM107.922 94.5312L108.732 93.9454L107.922 92.8243L107.111 93.9454L107.922 94.5312ZM104.621 98.3721L103.92 97.6593L103.195 98.3721L103.92 99.0849L104.621 98.3721ZM107.922 102.214L107.111 102.8L107.922 103.921L108.732 102.8L107.922 102.214ZM111.222 98.3721L111.923 99.0848L112.647 98.3721L111.923 97.6593L111.222 98.3721ZM31.1064 1V2C47.1816 2 60.2129 15.0313 60.2129 31.1064H61.2129H62.2129C62.2129 13.9268 48.2861 0 31.1064 0V1ZM61.2129 31.1064H60.2129C60.2129 39.972 56.2487 47.909 49.9942 53.2493L50.6436 54.0098L51.2929 54.7703C57.973 49.0665 62.2129 40.5822 62.2129 31.1064H61.2129ZM50.6436 54.0098L49.9942 54.7703C52.5691 56.9686 54.7555 59.6071 56.437 62.5698L57.3066 62.0762L58.1763 61.5826C56.3792 58.4162 54.0432 55.5974 51.2929 53.2493L50.6436 54.0098ZM57.3066 62.0762L58.1763 62.5698C63.1803 53.7528 72.6502 47.8076 83.5078 47.8076V46.8076V45.8076C71.9013 45.8076 61.7816 52.1652 56.4369 61.5826L57.3066 62.0762ZM83.5078 46.8076V47.8076C93.2215 47.8076 101.823 52.5662 107.111 59.8827L107.922 59.2969L108.732 58.711C103.084 50.8969 93.8908 45.8076 83.5078 45.8076V46.8076ZM107.922 59.2969L108.732 59.8827C114.021 52.5662 122.622 47.8076 132.336 47.8076V46.8076V45.8076C121.953 45.8076 112.76 50.8969 107.111 58.711L107.922 59.2969ZM132.336 46.8076V47.8076C142.41 47.8076 151.288 52.925 156.515 60.706L157.345 60.1484L158.175 59.5908C152.593 51.2805 143.104 45.8076 132.336 45.8076V46.8076ZM157.345 60.1484L158.175 60.706C163.401 52.9248 172.281 47.8077 182.355 47.8076L182.354 46.8076V45.8076C171.586 45.8077 162.097 51.2802 156.515 59.5909L157.345 60.1484ZM182.354 46.8076L182.355 47.8076C198.431 47.8076 211.461 60.8391 211.461 76.9141H212.461H213.461C213.461 59.7345 199.534 45.8076 182.354 45.8076V46.8076ZM212.461 76.9141H211.461C211.461 92.9892 198.43 106.021 182.354 106.021V107.021V108.021C199.534 108.021 213.461 94.0937 213.461 76.9141H212.461ZM182.354 107.021V106.021C172.279 106.02 163.401 100.903 158.175 93.1212L157.345 93.6787L156.515 94.2363C162.097 102.548 171.586 108.02 182.354 108.021V107.021ZM157.345 93.6787L156.515 93.1211C155.414 94.7595 154.15 96.2791 152.748 97.6593L153.449 98.3721L154.151 99.0848C155.648 97.6111 156.998 95.9878 158.175 94.2363L157.345 93.6787ZM153.449 98.3721L152.748 99.0849C158.115 104.366 161.442 111.708 161.442 119.831H162.442H163.442C163.442 111.15 159.884 103.301 154.151 97.6593L153.449 98.3721ZM162.442 119.831H161.442C161.442 135.906 148.411 148.938 132.336 148.938V149.938V150.938C149.516 150.938 163.442 137.011 163.442 119.831H162.442ZM132.336 149.938V148.938C122.622 148.938 114.021 144.179 108.732 136.862L107.922 137.448L107.111 138.034C112.76 145.848 121.953 150.938 132.336 150.938V149.938ZM107.922 137.448L107.111 136.862C101.823 144.179 93.2216 148.938 83.5078 148.938V149.938V150.938C93.8909 150.938 103.084 145.848 108.732 138.034L107.922 137.448ZM83.5078 149.938V148.938C67.4327 148.937 54.4014 135.906 54.4014 119.831H53.4014H52.4014C52.4014 137.011 66.3281 150.937 83.5078 150.938V149.938ZM53.4014 119.831H54.4014C54.4014 111.709 57.7282 104.366 63.0949 99.0848L62.3936 98.3721L61.6922 97.6593C55.9592 103.301 52.4014 111.151 52.4014 119.831H53.4014ZM62.3936 98.3721L63.095 97.6593C61.1746 95.7695 59.5148 93.6169 58.1763 91.2584L57.3066 91.752L56.4369 92.2455C57.8679 94.7669 59.6413 97.0666 61.6921 99.0848L62.3936 98.3721ZM57.3066 91.752L56.4369 91.2584C51.433 100.075 41.964 106.021 31.1064 106.021V107.021V108.021C42.713 108.021 52.8317 101.663 58.1763 92.2455L57.3066 91.752ZM31.1064 107.021V106.021C15.0314 106.02 2 92.9891 2 76.9141H1H0C0 94.0937 13.9268 108.02 31.1064 108.021V107.021ZM1 76.9141H2C2.00007 68.0485 5.96345 60.1104 12.2177 54.7703L11.5684 54.0098L10.919 53.2493C4.23889 58.9531 7.2e-05 67.4386 0 76.9141H1ZM11.5684 54.0098L12.2177 53.2493C5.96369 47.909 2 39.9717 2 31.1064H1H0C4e-06 40.5818 4.23923 49.0665 10.919 54.7702L11.5684 54.0098ZM1 31.1064H2C2 15.0314 15.0314 2.00006 31.1064 2V1V0C13.9268 6.1e-05 0 13.9268 0 31.1064H1ZM107.922 94.5312L107.111 93.9454C106.153 95.2718 105.084 96.5135 103.92 97.6593L104.621 98.3721L105.322 99.0848C106.566 97.8614 107.707 96.5349 108.732 95.1171L107.922 94.5312ZM104.621 98.3721L103.92 99.0849C105.084 100.231 106.152 101.473 107.111 102.8L107.922 102.214L108.732 101.628C107.707 100.21 106.566 98.883 105.322 97.6593L104.621 98.3721ZM107.922 102.214L108.732 102.8C109.691 101.473 110.759 100.23 111.923 99.0848L111.222 98.3721L110.52 97.6593C109.277 98.8831 108.136 100.211 107.111 101.628L107.922 102.214ZM111.222 98.3721L111.923 97.6593C110.759 96.5138 109.691 95.2718 108.732 93.9454L107.922 94.5312L107.111 95.1171C108.136 96.5345 109.277 97.8614 110.52 99.0848L111.222 98.3721Z" fill="var(--fill-0, #CDCED8)"/>
</g>
</svg>
