<svg preserveAspectRatio="none" width="100%" height="100%" overflow="visible" style="display: block;" viewBox="0 0 54.2335 215.699" fill="none" xmlns="http://www.w3.org/2000/svg">
<g id="vector cluster bottom left">
<path id="Vector" d="M27.1172 161.966C41.8169 161.966 53.7333 173.882 53.7334 188.582C53.7334 203.282 41.817 215.199 27.1172 215.199C12.4172 215.199 0.5 203.282 0.5 188.582C0.500149 173.882 12.4173 161.966 27.1172 161.966ZM27.1172 107.719C41.817 107.72 53.7334 119.636 53.7334 134.336C53.7334 149.036 41.817 160.953 27.1172 160.953C12.4172 160.953 0.5 149.036 0.5 134.336C0.500037 119.636 12.4172 107.719 27.1172 107.719ZM27.1172 53.4851C41.817 53.4853 53.7334 65.4024 53.7334 80.1023C53.7332 94.5724 42.1861 106.346 27.8037 106.711L27.1172 106.719L26.4297 106.711C12.0474 106.346 0.500242 94.5724 0.5 80.1023C0.5 65.4023 12.4172 53.4851 27.1172 53.4851Z" stroke="var(--stroke-0, #CDCED8)"/>
<path id="&#62;" d="M43.4102 24.3645L43.0967 24.4905L11.9131 36.9807L11.2275 37.2551L11.2275 25.5989L11.5645 25.4817L30.3066 18.9963L11.5645 12.512L11.2275 12.3957L11.2275 0.738513L11.9131 1.0139L43.0967 13.5032L43.4102 13.6291V24.3645Z" fill="var(--fill-0, white)" stroke="var(--stroke-0, #CDCED8)"/>
</g>
</svg>
