<svg preserveAspectRatio="none" width="100%" height="100%" overflow="visible" style="display: block;" viewBox="0 0 106.396 159.625" fill="none" xmlns="http://www.w3.org/2000/svg">
<path id="vector - top left, right of text" d="M26.5957 106.934C41.008 106.934 52.6914 118.617 52.6914 133.029C52.6913 147.442 41.008 159.125 26.5957 159.125C12.1835 159.125 0.500107 147.441 0.5 133.029C0.5 118.617 12.1834 106.934 26.5957 106.934ZM79.7998 53.7295C94.2121 53.7295 105.896 65.4129 105.896 79.8252C105.895 94.2374 94.2121 105.921 79.7998 105.921C65.3876 105.921 53.7042 94.2374 53.7041 79.8252C53.7041 65.4129 65.3875 53.7295 79.7998 53.7295ZM26.5957 53.7295C41.008 53.7295 52.6914 65.4129 52.6914 79.8252C52.6913 94.2374 41.008 105.921 26.5957 105.921C12.1835 105.921 0.500091 94.2374 0.5 79.8252C0.5 65.4129 12.1834 53.7296 26.5957 53.7295ZM79.7998 0.5C94.2121 0.5 105.895 12.1834 105.896 26.5957C105.896 41.008 94.2121 52.6914 79.7998 52.6914C65.3875 52.6913 53.7041 41.008 53.7041 26.5957C53.7042 12.1835 65.3876 0.500058 79.7998 0.5Z" stroke="var(--stroke-0, #CDCED8)"/>
</svg>
