<svg xmlns="http://www.w3.org/2000/svg" viewBox="0 0 256 245" fill="none"><path d="M96.0449 244.736C75.4669 244.736 58.7852 228.055 58.7852 207.477C58.7852 194.202 65.7287 182.551 76.1807 175.951C72.5267 173.644 69.3018 170.72 66.6524 167.324C59.8337 176.064 49.2034 181.685 37.2598 181.685C16.6817 181.685 6.97061e-06 165.002 8.7696e-06 144.424C0.000208933 123.846 16.6818 107.164 37.2598 107.164C49.2038 107.164 59.8337 112.785 66.6524 121.525C73.471 112.786 84.1009 107.164 96.0449 107.164C101.4 107.164 106.489 108.296 111.091 110.33C109.833 106.594 109.15 102.592 109.15 98.4316C109.15 85.7657 115.472 74.5781 125.13 67.8457C115.472 61.1133 109.15 49.9256 109.15 37.2598C109.151 16.6818 125.832 -1.13535e-05 146.41 -9.55452e-06C166.988 6.85384e-05 183.67 16.6819 183.67 37.2598C183.67 49.9252 177.349 61.1132 167.691 67.8457C173.745 72.0653 178.485 78.035 181.182 85.0225C186.566 71.0703 200.102 61.1719 215.953 61.1719C236.531 61.1719 253.213 77.8536 253.213 98.4316C253.213 119.01 236.531 135.691 215.953 135.691C200.103 135.691 186.566 125.793 181.182 111.842C175.797 125.793 162.261 135.691 146.41 135.691C141.056 135.691 135.966 134.56 131.364 132.526C132.622 136.263 133.305 140.263 133.305 144.424C133.305 157.699 126.362 169.352 115.91 175.951C119.913 178.479 123.4 181.748 126.181 185.565C132.955 176.264 143.929 170.217 156.316 170.217C169.286 170.217 180.706 176.845 187.379 186.897C194.052 176.845 205.472 170.217 218.441 170.217C239.019 170.217 255.701 186.899 255.701 207.477C255.701 228.055 239.019 244.736 218.441 244.736C205.472 244.736 194.052 238.109 187.379 228.057C180.706 238.109 169.286 244.736 156.316 244.736C143.929 244.736 132.955 238.69 126.181 229.389C119.406 238.69 108.432 244.736 96.0449 244.736Z" fill="none" stroke="#CDCED8" stroke-width="1"/></svg>