<svg width="1200" height="67" viewBox="0 0 1200 67" fill="none" xmlns="http://www.w3.org/2000/svg">
<path d="M1134 32.5L1134 16L1150.5 16V32.5H1134Z" fill="#4662FF"/>
<path d="M1150.5 49V32.5H1167V49H1150.5Z" fill="#4662FF"/>
<path d="M1167 32.5V16L1183.5 16V32.5H1167Z" fill="#C7FF46"/>
<path d="M1183.5 32.5V16H1200V32.5H1183.5Z" fill="#353535"/>
<path d="M118.667 50.0834V33.4167L135.334 33.4167V50.0834H118.667Z" fill="#4662FF"/>
<path d="M135.334 33.4167L135.333 16.75H152V33.4167H135.334Z" fill="#C7FF46"/>
<path d="M102 66.75V50.0833L118.667 50.0834L118.667 66.75L102 66.75Z" fill="#C7FF46"/>
<path d="M1.46433e-06 0L16.75 1.46433e-06L16.75 16.75L0 16.75L1.46433e-06 0Z" fill="#353535"/>
<path d="M16.75 16.75H33.5V33.5H16.75V16.75Z" fill="#C7FF46"/>
<path d="M50.25 16.75L67 16.75V33.5H50.25V16.75Z" fill="#4662FF"/>
</svg>
