<svg width="18.4074" height="18.4077" overflow="visible" style="display: block;" viewBox="0 0 18.4074 18.4077" fill="none" xmlns="http://www.w3.org/2000/svg">
<g id="instagram">
<path id="instagram_2" d="M9.20457 0C6.70497 0 6.39127 0.0109297 5.40953 0.0556065C4.42971 0.100475 3.7609 0.255597 3.17569 0.4832C2.57035 0.71828 2.05686 1.03274 1.54528 1.54451C1.03332 2.05609 0.718855 2.56959 0.483008 3.17474C0.25483 3.76014 0.099516 4.42914 0.0554145 5.40857C0.0115047 6.39031 0 6.7042 0 9.2038C0 11.7034 0.0111214 12.0161 0.0556065 12.9979C0.100667 13.9777 0.255789 14.6465 0.4832 15.2317C0.718472 15.8371 1.03293 16.3505 1.5447 16.8621C2.05609 17.3741 2.56959 17.6893 3.17454 17.9244C3.76014 18.152 4.42914 18.3071 5.40877 18.352C6.39051 18.3967 6.70401 18.4076 9.20342 18.4076C11.7032 18.4076 12.0159 18.3967 12.9977 18.352C13.9775 18.3071 14.6471 18.152 15.2327 17.9244C15.8378 17.6893 16.3506 17.3741 16.8619 16.8621C17.3739 16.3505 17.6884 15.8371 17.9242 15.2319C18.1505 14.6465 18.3058 13.9775 18.3518 12.9981C18.3959 12.0163 18.4074 11.7034 18.4074 9.2038C18.4074 6.7042 18.3959 6.3905 18.3518 5.40877C18.3058 4.42894 18.1505 3.76013 17.9242 3.17493C17.6884 2.56959 17.3739 2.05609 16.8619 1.54451C16.35 1.03255 15.838 0.718088 15.2321 0.4832C14.6454 0.255597 13.9762 0.100475 12.9963 0.0556065C12.0146 0.0109297 11.7021 0 9.20169 0H9.20457ZM8.37891 1.6586C8.62396 1.65822 8.89739 1.6586 9.20457 1.6586C11.662 1.6586 11.9532 1.66742 12.9237 1.71152C13.821 1.75256 14.3081 1.9025 14.6325 2.02848C15.062 2.1953 15.3682 2.39471 15.6902 2.71685C16.0123 3.03898 16.2117 3.34577 16.3789 3.77528C16.5049 4.09933 16.655 4.58637 16.6959 5.48374C16.74 6.45397 16.7496 6.74543 16.7496 9.20169C16.7496 11.658 16.74 11.9494 16.6959 12.9196C16.6549 13.817 16.5049 14.304 16.3789 14.6281C16.2121 15.0576 16.0123 15.3634 15.6902 15.6854C15.368 16.0075 15.0622 16.2069 14.6325 16.3737C14.3085 16.5003 13.821 16.6499 12.9237 16.6909C11.9534 16.735 11.662 16.7446 9.20457 16.7446C6.74696 16.7446 6.4557 16.735 5.48547 16.6909C4.58809 16.6495 4.10106 16.4995 3.77643 16.3736C3.34692 16.2067 3.04013 16.0073 2.718 15.6852C2.39586 15.3631 2.19645 15.057 2.02925 14.6273C1.90327 14.3033 1.75313 13.8162 1.71229 12.9189C1.66819 11.9486 1.65937 11.6572 1.65937 9.19939C1.65937 6.74159 1.66819 6.45167 1.71229 5.48144C1.75332 4.58407 1.90327 4.09703 2.02925 3.7726C2.19607 3.34309 2.39586 3.03629 2.718 2.71416C3.04013 2.39203 3.34692 2.19261 3.77643 2.02541C4.10087 1.89886 4.58809 1.7493 5.48547 1.70807C6.33452 1.66972 6.66355 1.65822 8.37891 1.6563V1.6586ZM14.1175 3.18682C13.5077 3.18682 13.013 3.68094 13.013 4.29089C13.013 4.90064 13.5077 5.39534 14.1175 5.39534C14.7272 5.39534 15.2219 4.90064 15.2219 4.29089C15.2219 3.68114 14.7272 3.18643 14.1175 3.18643V3.18682ZM9.20457 4.47726C6.59433 4.47726 4.47803 6.59356 4.47803 9.2038C4.47803 11.814 6.59433 13.9294 9.20457 13.9294C11.8148 13.9294 13.9303 11.814 13.9303 9.2038C13.9303 6.59356 11.8146 4.47726 9.20437 4.47726H9.20457ZM9.20457 6.13587C10.8988 6.13587 12.2725 7.50934 12.2725 9.2038C12.2725 10.8981 10.8988 12.2717 9.20457 12.2717C7.51011 12.2717 6.13663 10.8981 6.13663 9.2038C6.13663 7.50934 7.51011 6.13587 9.20457 6.13587V6.13587Z" fill="var(--fill-0, #1F1F1F)"/>
</g>
</svg>
