<svg width="17.487" height="18.4074" overflow="visible" style="display: block;" viewBox="0 0 17.487 18.4074" fill="none" xmlns="http://www.w3.org/2000/svg">
<g id="linkedin">
<path id="linkedin_2" d="M0 1.31859C0 0.590548 0.5749 0 1.28411 0H16.2029C16.9121 0 17.487 0.59055 17.487 1.31859V17.0888C17.487 17.8171 16.9121 18.4074 16.2029 18.4074L1.28411 18.4074C0.5749 18.4074 0 17.8171 0 17.0888V1.31859ZM5.40282 15.4089V7.09693H2.77821V15.4089H5.40282ZM4.0905 5.96207C5.00575 5.96207 5.57542 5.3238 5.57542 4.52616C5.55837 3.71055 5.00576 3.09 4.10786 3.09C3.21006 3.09 2.62306 3.71055 2.62306 4.52616C2.62306 5.3238 3.1926 5.96207 4.07339 5.96207H4.0905ZM9.45546 15.4089V10.7671C9.45546 10.5187 9.47251 10.2706 9.54182 10.093C9.73155 9.59662 10.1634 9.08257 10.8885 9.08257C11.8382 9.08257 12.2181 9.8448 12.2181 10.9622V15.4089H14.8425V10.6429C14.8425 8.08987 13.5476 6.90188 11.8208 6.90188C10.4286 6.90188 9.80433 7.70737 9.45553 8.27375V8.30238H9.438C9.44377 8.29291 9.44961 8.28336 9.45553 8.27375V7.09693H6.83095C6.86539 7.87687 6.83095 15.4089 6.83095 15.4089H9.45546Z" fill="var(--fill-0, #1F1F1F)"/>
</g>
</svg>
