<svg width="912" height="121" viewBox="0 0 912 121" fill="none" xmlns="http://www.w3.org/2000/svg">
<g clip-path="url(#clip0_296_17125)">
<path d="M17.8965 105.933C11.1105 109.987 5.34659 114.165 0.674805 118.443L0 117.704C4.7328 113.371 10.5544 109.155 17.3838 105.074L17.8965 105.933ZM752.181 105.074C759.01 109.155 764.831 113.372 769.563 117.705L768.89 118.443C764.218 114.165 758.454 109.987 751.668 105.933L752.181 105.074ZM56.6328 88.0354C49.5476 90.649 42.9319 93.3501 36.8164 96.1301L36.4023 95.2209C42.5429 92.4295 49.1808 89.718 56.2861 87.0969L56.6328 88.0354ZM713.277 87.0969C720.383 89.7179 727.021 92.4296 733.161 95.2209L732.749 96.1301C726.634 93.3501 720.018 90.649 712.933 88.0354L713.277 87.0969ZM97.5186 75.2844C90.3818 77.1768 83.5294 79.1395 76.9795 81.1672L76.7441 80.4094L76.6836 80.2122C83.2474 78.1801 90.1129 76.2151 97.2617 74.3196L97.5186 75.2844ZM672.302 74.3196C679.451 76.2152 686.317 78.18 692.881 80.2122L692.586 81.1672C686.036 79.1394 679.184 77.1768 672.047 75.2844L672.302 74.3196ZM139.304 65.6565C132.124 67.091 125.141 68.5868 118.368 70.1409L118.145 69.1682C124.927 67.6119 131.919 66.1133 139.108 64.677L139.304 65.6565ZM630.456 64.677C637.645 66.1133 644.637 67.6119 651.42 69.1682L651.197 70.1409C644.424 68.5868 637.441 67.091 630.261 65.6565L630.456 64.677ZM181.583 58.2727C174.385 59.3638 167.332 60.5111 160.435 61.7122L160.264 60.7278C167.168 59.5254 174.228 58.3766 181.433 57.2844L181.583 58.2727ZM588.131 57.2844C595.336 58.3766 602.396 59.5254 609.301 60.7278L609.13 61.7122C602.233 60.5111 595.181 59.3638 587.982 58.2727L588.131 57.2844ZM224.118 52.679C216.901 53.4916 209.796 54.3578 202.811 55.2747L202.68 54.2825C209.672 53.3648 216.783 52.4991 224.007 51.6858L224.118 52.679ZM545.558 51.6858C552.781 52.4991 559.892 53.3648 566.884 54.2825L566.82 54.7786L566.819 54.7776L566.755 55.2747C559.769 54.3578 552.664 53.4916 545.446 52.679L545.558 51.6858ZM266.871 48.5989C259.652 49.169 252.521 49.7908 245.483 50.4612L245.389 49.467C252.432 48.7961 259.569 48.1733 266.793 47.6028L266.871 48.5989ZM502.771 47.6028C509.996 48.1733 517.133 48.7961 524.176 49.467L524.081 50.4612C517.044 49.7908 509.912 49.169 502.693 48.5989L502.771 47.6028ZM309.674 45.8762C302.464 46.2273 295.324 46.6276 288.258 47.0764L288.194 46.0803C295.265 45.6312 302.411 45.2285 309.625 44.8772L309.674 45.8762ZM459.938 44.8772C467.153 45.2285 474.299 45.6311 481.37 46.0803L481.308 47.0764C474.241 46.6276 467.1 46.2273 459.891 45.8762L459.938 44.8772ZM352.562 44.3997C345.357 44.5469 338.204 44.7428 331.111 44.9866L331.09 44.3782L331.077 43.9885C338.175 43.7445 345.331 43.548 352.542 43.4006L352.562 44.3997ZM417.022 43.4006C424.233 43.5479 431.39 43.7445 438.487 43.9885L438.454 44.9866C431.361 44.7428 424.209 44.5469 417.003 44.3997L417.014 43.8928L417.022 43.4006ZM384.782 43.0715C388.383 43.0715 391.972 43.0834 395.55 43.1077L395.544 44.1077C391.968 44.0835 388.381 44.0715 384.782 44.0715C381.184 44.0715 377.597 44.0835 374.021 44.1077L374.017 43.4875L374.015 43.1077C377.592 43.0834 381.182 43.0715 384.782 43.0715Z" fill="#CDCED8"/>
<path d="M496.793 90.5L496.793 120.5H466.793L466.793 90.5H496.793ZM496.793 90.5V60.5H526.793V90.5H496.793ZM496.793 0.5L496.793 30.5L526.793 30.5V0.500001L496.793 0.5Z" stroke="#CDCED8"/>
</g>
<defs>
<clipPath id="clip0_296_17125">
<rect width="770" height="121" fill="white"/>
</clipPath>
</defs>
</svg>
