<svg preserveAspectRatio="none" width="100%" height="100%" overflow="visible" style="display: block;" viewBox="0 0 121 810.348" fill="none" xmlns="http://www.w3.org/2000/svg">
<g id="blocks-right">
<path d="M0.5 779.848L0.500001 749.848H30.5L30.5 779.848H0.5Z" fill="var(--fill-0, #F2F2F2)"/>
<path d="M60.5 779.848V749.848H90.5V779.848H60.5Z" fill="var(--fill-0, #F2F2F2)"/>
<path d="M90.5 779.848V749.848H120.5V779.848H90.5Z" fill="var(--fill-0, #F2F2F2)"/>
<path d="M1.5 30.5L1.5 0.5L31.5 0.500001L31.5 30.5L1.5 30.5Z" fill="var(--fill-0, #F2F2F2)"/>
<path d="M1.5 90.5V60.5H31.5V90.5H1.5Z" fill="var(--fill-0, #F2F2F2)"/>
<path d="M30.5 779.848L30.5 749.848H0.500001L0.5 779.848H30.5ZM30.5 779.848V809.848H60.5V779.848M30.5 779.848H60.5M60.5 779.848V749.848H90.5M60.5 779.848H90.5M90.5 749.848V779.848M90.5 749.848H120.5V779.848H90.5M1.5 60.5V30.5L1.5 0.5L31.5 0.500001L31.5 30.5M1.5 30.5L31.5 30.5M31.5 30.5V60.5M1.5 60.5H31.5M1.5 60.5V90.5H31.5V60.5" stroke="var(--stroke-0, #CDCED8)"/>
</g>
</svg>
