<svg width="1103" height="352" viewBox="0 0 1103 352" fill="none" xmlns="http://www.w3.org/2000/svg">
<path d="M1101.94 402.677C1101.89 410.093 1100.96 417.204 1099.13 423.86L1100.09 424.125C1101.95 417.376 1102.89 410.179 1102.94 402.683L1101.94 402.677ZM946.81 249.959C939.318 250.179 932.143 251.279 925.437 253.289L925.723 254.239C932.337 252.259 939.424 251.169 946.838 250.959L946.81 249.959ZM1093.85 360.66C1096.47 367.604 1098.46 374.524 1099.82 381.321L1100.79 381.126C1099.43 374.272 1097.42 367.3 1094.78 360.308L1093.85 360.66ZM989.355 257.179C982.307 254.699 975.292 252.849 968.41 251.629L968.236 252.609C975.061 253.819 982.023 255.659 989.023 258.119L989.355 257.179ZM1073.32 322.869C1077.63 328.846 1081.47 334.948 1084.84 341.103L1085.62 340.673L1085.71 340.624C1082.36 334.491 1078.54 328.413 1074.26 322.459L1074.13 322.284L1073.32 322.869ZM1027.83 276.989C1021.72 272.789 1015.5 269.059 1009.24 265.819L1009.19 265.909L1008.77 266.699C1015 269.929 1021.19 273.639 1027.26 277.809L1027.83 276.989ZM1051.69 296.499C1049.47 294.359 1047.21 292.299 1044.93 290.299L1044.75 290.509L1044.27 291.049C1046.96 293.399 1049.6 295.839 1052.2 298.389C1054.8 300.929 1057.3 303.519 1059.71 306.149L1060.24 305.659L1060.45 305.479C1058.03 302.829 1055.51 300.229 1052.9 297.669L1051.69 296.499Z" fill="#CDCED8"/>
<path d="M177.831 156.734C185.133 155.433 191.983 153.315 198.234 150.383L198.658 151.288C192.321 154.261 185.385 156.403 178.006 157.718L177.831 156.734ZM1.10981 29.6273C0.0563135 22.2059 -0.0725875 14.9488 0.774113 8L1.76531 8.11971C0.930112 14.9733 1.05601 22.1428 2.09831 29.4859L1.10981 29.6273ZM135.051 155.856C142.338 157.263 149.495 158.061 156.423 158.248L156.396 159.246C149.41 159.057 142.199 158.253 134.862 156.836L135.051 155.856ZM15.4113 70.3413C11.7755 63.8131 8.76141 57.213 6.40231 50.6348L7.34131 50.2972C9.68081 56.8209 12.6723 63.3714 16.2831 69.8549L15.4113 70.3413ZM94.3363 142.005C100.955 145.244 107.618 148.001 114.253 150.276L113.962 151.126L113.929 151.221C107.318 148.955 100.682 146.214 94.0903 142.998L93.8963 142.902L94.3363 142.005ZM41.4322 104.913C36.2614 99.606 31.5354 94.1051 27.278 88.4771L27.3577 88.4154L28.0745 87.8734C32.3062 93.4676 37.0047 98.9374 42.1472 104.215L41.4322 104.913ZM64.69 125.141C62.2096 123.312 59.7932 121.438 57.4411 119.526L57.6131 119.312L58.0707 118.75C60.8369 120.999 63.6933 123.193 66.6377 125.325C69.5823 127.457 72.5583 129.486 75.5583 131.413L75.1673 132.023L75.0183 132.254C72.0023 130.317 69.0113 128.278 66.0512 126.135L64.69 125.141Z" fill="#CDCED8"/>
<path d="M114.176 260.451L117.452 257.176L121.261 260.985L117.987 264.26H122.618V269.647H117.986L121.261 272.923L117.452 276.732L114.176 273.457V278.089H108.789V273.458L105.514 276.732L101.705 272.923L104.98 269.647H100.348V264.26H104.979L101.705 260.985L105.514 257.176L108.789 260.45V255.819H114.176V260.451Z" fill="white"/>
<path d="M114.176 230.451L117.452 227.176L121.261 230.985L117.987 234.26H122.618V239.647H117.986L121.261 242.923L117.452 246.732L114.176 243.457V248.089H108.789V243.458L105.514 246.732L101.705 242.923L104.98 239.647H100.348V234.26H104.979L101.705 230.985L105.514 227.176L108.789 230.45V225.819H114.176V230.451Z" fill="white"/>
<path d="M113.677 256.318V261.657L114.53 260.805L117.452 257.882L120.554 260.983L117.634 263.906L116.78 264.76H122.118V269.146H116.779L117.633 270L120.554 272.923L117.451 276.024L113.677 272.25V277.589H109.289V272.251L108.436 273.104L105.515 276.024L102.411 272.922L105.334 270L106.188 269.146H100.849V264.76H106.187L102.411 260.984L105.514 257.882L108.436 260.804L109.289 261.656V256.318H113.677ZM113.677 226.318V231.657L114.53 230.805L117.452 227.882L120.554 230.983L117.634 233.906L116.78 234.76H122.118V239.146H116.779L117.633 240L120.554 242.923L117.451 246.024L113.677 242.25V247.589H109.289V242.251L108.436 243.104L105.515 246.024L102.411 242.922L105.334 240L106.188 239.146H100.849V234.76H106.187L102.411 230.984L105.514 227.882L108.436 230.804L109.289 231.656V226.318H113.677ZM109.093 148.945C109.215 148.991 109.337 149.036 109.459 149.082C109.337 149.036 109.215 148.991 109.093 148.945ZM108.666 148.781C108.403 148.681 108.14 148.581 107.877 148.479C108.14 148.581 108.403 148.681 108.666 148.781ZM105.638 147.593C105.564 147.563 105.491 147.534 105.417 147.504C105.491 147.534 105.564 147.563 105.638 147.593ZM104.611 147.175C104.458 147.112 104.305 147.05 104.152 146.986C104.305 147.05 104.458 147.112 104.611 147.175ZM99.3281 144.9C99.2864 144.882 99.2448 144.863 99.2031 144.844C99.2448 144.863 99.2864 144.882 99.3281 144.9ZM96.7139 143.698C97.3889 144.015 98.0645 144.327 98.7402 144.634C98.0645 144.327 97.3889 144.015 96.7139 143.698ZM94.5654 142.671C95.103 142.932 95.6406 143.19 96.1787 143.445C95.6408 143.191 95.1028 142.933 94.5654 142.672V142.671ZM65.1709 124.873L64.9854 124.737C64.8839 124.662 64.7839 124.586 64.6826 124.511C64.8454 124.631 65.0075 124.753 65.1709 124.873ZM61.501 122.104C61.4023 122.028 61.3035 121.952 61.2051 121.876C61.3035 121.952 61.4023 122.028 61.501 122.104Z" stroke="#CDCED8"/>
<path d="M972.69 124.459H130.705V301.283H972.69V124.459Z" fill="white" stroke="#CDCED8"/>
<path d="M141.192 112.972H119.219V134.945H141.192V112.972Z" fill="white"/>
<path d="M984.177 112.972H962.204V134.945H984.177V112.972Z" fill="white"/>
<path d="M141.192 289.483H119.219V311.456H141.192V289.483Z" fill="white"/>
<path d="M984.177 290.796H962.204V312.769H984.177V290.796Z" fill="white"/>
<path d="M141.192 112.972H119.219V134.945H141.192V112.972Z" stroke="#CDCED8"/>
<path d="M984.177 112.972H962.204V134.945H984.177V112.972Z" stroke="#CDCED8"/>
<path d="M141.192 289.483H119.219V311.456H141.192V289.483Z" stroke="#CDCED8"/>
<path d="M984.177 290.796H962.204V312.769H984.177V290.796Z" stroke="#CDCED8"/>
<path d="M185.492 236.714L215.492 236.714L215.492 266.714L185.492 266.714L185.492 236.714Z" fill="#4662FF"/>
<path d="M215.492 206.714L245.492 206.714V236.714H215.492V206.714Z" fill="#4662FF"/>
<path d="M215.492 236.714H245.492V266.714H215.492L215.492 236.714Z" fill="#C7FF46"/>
<path d="M155.492 236.714H185.492L185.492 266.714H155.492L155.492 236.714Z" fill="#C7FF46"/>
<path d="M185.492 206.714H215.492V236.714L185.492 236.714V206.714Z" fill="#C7FF46"/>
<path d="M155.492 206.714H185.492V236.714H155.492V206.714Z" fill="#4662FF"/>
<path d="M308.256 265.369H294.466L310.226 208.896C310.576 208.02 310.795 207.014 310.882 205.875C311.057 204.65 311.014 203.599 310.751 202.723C310.488 201.76 309.744 201.279 308.518 201.279C306.68 201.279 305.016 202.242 303.528 204.168C302.039 206.007 300.507 209.159 298.931 213.624L296.961 219.14H294.466L297.749 209.421C299.062 205.832 300.638 203.074 302.477 201.147C304.316 199.221 306.242 197.864 308.256 197.076C310.357 196.288 312.371 195.894 314.297 195.894C317.011 195.894 319.025 196.463 320.338 197.601C321.652 198.74 322.44 200.272 322.702 202.198C322.965 204.037 322.921 206.007 322.571 208.108C322.221 210.209 321.783 212.267 321.258 214.281L308.256 265.369ZM343.584 211.129C344.109 209.378 344.46 207.758 344.635 206.269C344.897 204.781 344.81 203.555 344.372 202.592C344.022 201.629 343.102 201.147 341.614 201.147C339.338 201.147 336.842 202.548 334.128 205.35C331.414 208.152 328.656 212.092 325.854 217.17C323.052 222.248 320.294 228.158 317.58 234.9C314.954 241.641 312.546 248.952 310.357 256.832L313.509 239.759C317.449 228.902 321.17 220.278 324.672 213.887C328.174 207.408 331.764 202.811 335.441 200.097C339.119 197.295 343.146 195.894 347.524 195.894C350.413 195.894 352.515 196.507 353.828 197.733C355.229 198.871 356.104 200.447 356.455 202.461C356.805 204.387 356.805 206.532 356.455 208.896C356.104 211.172 355.623 213.449 355.01 215.725L341.483 265.369H327.299L343.584 211.129ZM377.205 211.129C377.993 208.59 378.387 206.313 378.387 204.299C378.387 202.198 377.555 201.147 375.892 201.147C373.528 201.147 371.032 202.505 368.406 205.219C365.779 207.933 363.021 211.873 360.132 217.039C357.33 222.204 354.485 228.377 351.595 235.556C348.706 242.736 345.86 250.791 343.059 259.721L345.16 246.063C348.487 236.695 351.595 228.815 354.485 222.423C357.374 215.944 360.219 210.778 363.021 206.926C365.91 202.986 368.844 200.184 371.82 198.521C374.885 196.77 378.212 195.894 381.802 195.894C385.479 195.894 388.018 196.901 389.419 198.915C390.907 200.929 391.564 203.424 391.389 206.401C391.301 209.378 390.732 212.486 389.682 215.725L376.811 254.206C375.935 256.832 375.673 258.758 376.023 259.984C376.373 261.21 377.293 261.823 378.781 261.823C380.269 261.823 381.802 260.991 383.378 259.328C384.954 257.664 386.617 254.381 388.368 249.478L390.207 244.093H392.702L389.419 253.68C388.193 257.358 386.661 260.159 384.822 262.085C382.984 264.012 381.014 265.325 378.912 266.025C376.899 266.813 374.929 267.207 373.002 267.207C370.638 267.207 368.756 266.857 367.355 266.157C365.954 265.456 364.86 264.493 364.072 263.267C362.934 261.604 362.496 259.503 362.759 256.964C363.109 254.337 363.809 251.36 364.86 248.033L377.205 211.129ZM407.043 235.95C411.508 234.374 415.58 232.755 419.257 231.091C423.022 229.428 426.086 227.633 428.45 225.706C431.69 222.992 434.229 219.797 436.067 216.119C437.994 212.354 438.957 208.239 438.957 203.774C438.957 201.498 438.782 200.053 438.431 199.44C438.081 198.74 437.556 198.389 436.855 198.389C434.754 198.389 432.478 199.353 430.026 201.279C427.662 203.205 425.298 205.875 422.934 209.29C420.57 212.617 418.381 216.426 416.368 220.716C414.441 224.919 412.865 229.428 411.64 234.243C410.501 238.971 409.932 243.655 409.932 248.296C409.932 252.848 410.764 256.088 412.428 258.014C414.179 259.94 416.455 260.903 419.257 260.903C422.146 260.903 425.342 260.028 428.844 258.277C432.346 256.438 435.805 253.199 439.219 248.558L441.321 249.609C439.57 252.498 437.293 255.3 434.491 258.014C431.69 260.728 428.494 262.961 424.904 264.712C421.402 266.376 417.593 267.207 413.478 267.207C409.889 267.207 406.693 266.507 403.891 265.106C401.089 263.705 398.9 261.648 397.324 258.934C395.836 256.132 395.092 252.717 395.092 248.69C395.092 244.662 395.792 240.284 397.193 235.556C398.682 230.741 400.739 226.013 403.366 221.373C406.08 216.732 409.276 212.486 412.953 208.633C416.63 204.693 420.745 201.585 425.298 199.309C429.851 197.032 434.667 195.894 439.745 195.894C442.897 195.894 445.523 196.682 447.625 198.258C449.726 199.747 450.777 202.023 450.777 205.087C450.777 208.59 449.77 211.873 447.756 214.937C445.83 217.914 443.203 220.628 439.876 223.08C436.549 225.531 432.915 227.72 428.975 229.646C425.123 231.573 421.227 233.236 417.287 234.637C413.435 236.038 409.976 237.176 406.912 238.052L407.043 235.95ZM465.93 262.085C467.856 262.085 470.001 260.947 472.365 258.671C474.729 256.394 477.137 253.286 479.589 249.346C482.04 245.319 484.317 240.678 486.418 235.425C488.519 230.172 490.27 224.568 491.671 218.615L489.307 232.93C486.33 241.247 483.266 247.945 480.114 253.024C477.05 258.014 473.898 261.648 470.658 263.924C467.418 266.113 464.091 267.207 460.677 267.207C456.299 267.207 453.016 265.763 450.827 262.873C448.638 259.897 447.544 256 447.544 251.185C447.544 246.807 448.244 242.123 449.645 237.132C451.133 232.142 453.147 227.195 455.686 222.292C458.313 217.389 461.29 212.967 464.617 209.027C467.944 205.087 471.534 201.935 475.386 199.571C479.238 197.12 483.091 195.894 486.943 195.894C489.92 195.894 492.196 197.295 493.772 200.097C495.436 202.811 495.83 206.795 494.954 212.048L493.51 212.836C494.123 208.721 493.86 205.438 492.722 202.986C491.671 200.447 489.92 199.177 487.469 199.177C485.367 199.177 483.135 200.272 480.771 202.461C478.407 204.562 476.086 207.495 473.81 211.26C471.621 214.937 469.564 219.096 467.637 223.737C465.799 228.377 464.354 233.192 463.303 238.183C462.253 243.086 461.727 247.902 461.727 252.63C461.727 256.132 462.078 258.583 462.778 259.984C463.566 261.385 464.617 262.085 465.93 262.085ZM497.318 197.733C499.945 197.645 502.484 197.47 504.936 197.207C507.387 196.945 509.664 196.507 511.765 195.894L495.086 254.074C494.823 255.037 494.56 256.132 494.298 257.358C494.123 258.496 494.166 259.503 494.429 260.378C494.779 261.254 495.611 261.691 496.924 261.691C498.5 261.691 500.076 260.86 501.652 259.196C503.228 257.445 504.804 254.162 506.38 249.346L508.219 243.962H510.714L507.431 253.549C506.205 257.139 504.717 259.897 502.966 261.823C501.215 263.749 499.332 265.106 497.318 265.894C495.392 266.77 493.51 267.207 491.671 267.207C487.819 267.207 485.105 265.982 483.529 263.53C482.39 261.604 481.996 259.284 482.347 256.57C482.784 253.768 483.397 250.878 484.185 247.902L497.318 197.733ZM529.384 265.369H515.594L531.354 208.896C531.704 207.758 531.967 206.62 532.142 205.481C532.405 204.256 532.361 203.249 532.011 202.461C531.66 201.673 530.829 201.279 529.515 201.279C527.764 201.279 526.144 202.154 524.656 203.905C523.255 205.656 521.723 208.896 520.059 213.624L518.089 219.14H515.594L518.877 209.421C520.804 204.08 523.168 200.491 525.969 198.652C528.859 196.813 531.879 195.894 535.031 195.894C537.833 195.894 539.891 196.463 541.204 197.601C542.517 198.74 543.305 200.228 543.568 202.067C543.918 203.818 543.918 205.788 543.568 207.977C543.305 210.078 542.911 212.179 542.386 214.281L529.384 265.369ZM534.769 239.759C537.921 231.354 540.941 224.349 543.83 218.746C546.807 213.055 549.697 208.546 552.498 205.219C555.3 201.892 558.146 199.528 561.035 198.127C564.012 196.638 567.12 195.894 570.36 195.894C574.562 195.894 577.451 196.857 579.027 198.783C580.691 200.71 581.435 203.205 581.26 206.269C581.173 209.246 580.603 212.398 579.553 215.725L566.814 254.206C565.938 256.57 565.632 258.452 565.894 259.853C566.157 261.166 567.12 261.823 568.784 261.823C570.272 261.823 571.76 260.991 573.249 259.328C574.825 257.664 576.488 254.381 578.239 249.478L580.209 244.093H582.705L579.421 253.68C578.196 257.358 576.62 260.159 574.694 262.085C572.855 264.012 570.885 265.325 568.784 266.025C566.77 266.813 564.8 267.207 562.874 267.207C560.685 267.207 558.846 266.857 557.358 266.157C555.869 265.456 554.731 264.493 553.943 263.267C552.892 261.604 552.498 259.503 552.761 256.964C553.024 254.337 553.724 251.36 554.862 248.033L567.076 211.129C567.514 209.815 567.864 208.371 568.127 206.795C568.39 205.219 568.346 203.862 567.996 202.723C567.645 201.498 566.551 200.885 564.712 200.885C562.786 200.885 560.685 201.848 558.408 203.774C556.132 205.7 553.724 208.458 551.185 212.048C548.734 215.55 546.326 219.709 543.962 224.525C541.598 229.34 539.321 234.593 537.133 240.284C534.944 245.888 532.93 251.842 531.091 258.146L534.769 239.759ZM608.037 174.487C608.388 171.685 609.613 169.409 611.715 167.658C613.816 165.907 616.224 165.031 618.938 165.031C621.477 165.031 623.447 165.863 624.848 167.526C626.336 169.102 626.906 171.072 626.555 173.436C626.205 176.151 624.936 178.427 622.747 180.266C620.645 182.017 618.238 182.892 615.523 182.892C612.984 182.892 611.014 182.104 609.613 180.528C608.213 178.865 607.687 176.851 608.037 174.487ZM603.704 208.896C605.367 203.818 604.798 201.279 601.996 201.279C600.07 201.279 598.363 202.286 596.874 204.299C595.386 206.226 593.854 209.334 592.278 213.624L590.176 219.14H587.681L591.096 209.421C592.409 205.832 593.985 203.074 595.824 201.147C597.662 199.221 599.632 197.864 601.734 197.076C603.922 196.288 606.024 195.894 608.037 195.894C610.927 195.894 613.116 196.463 614.604 197.601C616.093 198.74 617.012 200.228 617.362 202.067C617.712 203.905 617.712 205.919 617.362 208.108C617.012 210.209 616.487 212.267 615.786 214.281L601.865 254.206C600.989 256.657 600.727 258.54 601.077 259.853C601.427 261.166 602.346 261.823 603.835 261.823C605.411 261.823 606.943 260.991 608.431 259.328C609.92 257.576 611.583 254.293 613.422 249.478L615.523 244.093H618.019L614.604 253.68C613.378 257.182 611.846 259.897 610.007 261.823C608.169 263.749 606.199 265.106 604.098 265.894C602.084 266.77 600.026 267.207 597.925 267.207C594.16 267.207 591.49 266.376 589.914 264.712C588.425 262.961 587.769 260.641 587.944 257.752C588.119 254.775 588.819 251.535 590.045 248.033L603.704 208.896ZM636.615 265.369H622.825L638.584 208.896C638.935 207.758 639.197 206.62 639.372 205.481C639.635 204.256 639.591 203.249 639.241 202.461C638.891 201.673 638.059 201.279 636.746 201.279C634.995 201.279 633.375 202.154 631.887 203.905C630.486 205.656 628.953 208.896 627.29 213.624L625.32 219.14H622.825L626.108 209.421C628.034 204.08 630.398 200.491 633.2 198.652C636.089 196.813 639.11 195.894 642.262 195.894C645.064 195.894 647.121 196.463 648.434 197.601C649.748 198.74 650.536 200.228 650.798 202.067C651.149 203.818 651.149 205.788 650.798 207.977C650.536 210.078 650.142 212.179 649.616 214.281L636.615 265.369ZM641.999 239.759C645.151 231.354 648.172 224.349 651.061 218.746C654.038 213.055 656.927 208.546 659.729 205.219C662.531 201.892 665.376 199.528 668.266 198.127C671.242 196.638 674.351 195.894 677.59 195.894C681.793 195.894 684.682 196.857 686.258 198.783C687.922 200.71 688.666 203.205 688.491 206.269C688.403 209.246 687.834 212.398 686.783 215.725L674.044 254.206C673.169 256.57 672.862 258.452 673.125 259.853C673.387 261.166 674.351 261.823 676.014 261.823C677.503 261.823 678.991 260.991 680.479 259.328C682.055 257.664 683.719 254.381 685.47 249.478L687.44 244.093H689.935L686.652 253.68C685.426 257.358 683.85 260.159 681.924 262.085C680.085 264.012 678.115 265.325 676.014 266.025C674 266.813 672.03 267.207 670.104 267.207C667.915 267.207 666.077 266.857 664.588 266.157C663.1 265.456 661.962 264.493 661.174 263.267C660.123 261.604 659.729 259.503 659.992 256.964C660.254 254.337 660.955 251.36 662.093 248.033L674.307 211.129C674.745 209.815 675.095 208.371 675.357 206.795C675.62 205.219 675.576 203.862 675.226 202.723C674.876 201.498 673.781 200.885 671.943 200.885C670.017 200.885 667.915 201.848 665.639 203.774C663.362 205.7 660.955 208.458 658.416 212.048C655.964 215.55 653.556 219.709 651.192 224.525C648.828 229.34 646.552 234.593 644.363 240.284C642.174 245.888 640.16 251.842 638.322 258.146L641.999 239.759ZM719.602 235.819L723.805 235.688C720.565 237.351 717.632 238.883 715.005 240.284C712.379 241.598 710.277 242.867 708.701 244.093C707.125 245.231 706.337 246.326 706.337 247.376C706.337 248.252 706.907 249.04 708.045 249.74C709.271 250.353 711.109 251.01 713.561 251.71L723.673 254.6C726.387 255.3 728.839 256.176 731.028 257.226C733.304 258.189 735.099 259.459 736.413 261.035C737.813 262.523 738.514 264.493 738.514 266.945C738.514 269.484 737.682 272.11 736.019 274.825C734.355 277.626 731.903 280.209 728.664 282.573C725.424 285.025 721.397 286.995 716.581 288.483C711.766 290.059 706.206 290.847 699.902 290.847C695.349 290.847 691.453 290.409 688.214 289.534C684.887 288.746 682.391 287.608 680.728 286.119C678.977 284.631 678.101 282.88 678.101 280.866C678.101 279.378 678.626 277.889 679.677 276.401C680.64 274.912 682.041 273.511 683.88 272.198C685.631 270.972 687.776 269.79 690.315 268.652C692.766 267.601 695.481 266.77 698.458 266.157L699.246 268.127C696.094 269.79 693.905 271.585 692.679 273.511C691.453 275.525 690.84 277.539 690.84 279.553C690.84 282.705 691.978 284.981 694.255 286.382C696.531 287.87 699.377 288.615 702.792 288.615C705.506 288.615 708.307 288.177 711.197 287.301C714.174 286.426 716.932 285.244 719.471 283.755C722.01 282.354 724.024 280.691 725.512 278.765C727 276.926 727.745 274.956 727.745 272.855C727.745 271.454 727.263 270.491 726.3 269.965C725.337 269.44 723.892 268.959 721.966 268.521L702.266 263.267C700.165 262.742 698.414 261.823 697.013 260.509C695.612 259.109 694.912 257.314 694.912 255.125C694.912 253.199 695.656 251.272 697.144 249.346C698.72 247.42 701.303 245.406 704.893 243.305C708.483 241.116 713.386 238.621 719.602 235.819ZM726.037 198.258C723.586 198.258 721.484 199.002 719.733 200.491C718.07 201.979 716.625 203.905 715.399 206.269C714.261 208.633 713.342 211.172 712.641 213.887C712.029 216.513 711.591 219.009 711.328 221.373C711.065 223.737 710.934 225.663 710.934 227.151C710.934 229.953 711.459 231.967 712.51 233.192C713.648 234.331 715.137 234.9 716.975 234.9C719.865 234.9 722.229 233.937 724.067 232.01C725.993 230.084 727.482 227.676 728.533 224.787C729.671 221.81 730.459 218.79 730.897 215.725C731.334 212.661 731.553 209.947 731.553 207.583C731.553 204.781 731.203 202.548 730.503 200.885C729.802 199.134 728.314 198.258 726.037 198.258ZM727.088 195.894C732.429 195.894 736.807 197.076 740.221 199.44C743.636 201.717 745.343 205.481 745.343 210.735C745.343 214.937 744.074 219.096 741.534 223.211C739.083 227.239 735.625 230.61 731.159 233.324C726.694 235.95 721.397 237.264 715.268 237.264C710.19 237.264 705.943 236.126 702.529 233.849C699.114 231.485 697.407 227.808 697.407 222.817C697.407 220.278 697.932 217.476 698.983 214.412C700.121 211.26 701.872 208.327 704.236 205.613C706.6 202.811 709.665 200.491 713.429 198.652C717.194 196.813 721.747 195.894 727.088 195.894ZM736.806 202.723L734.311 201.804C735.625 198.74 737.726 196.069 740.615 193.793C743.592 191.516 746.744 190.378 750.071 190.378C752.523 190.378 754.449 191.079 755.85 192.479C757.251 193.793 757.951 195.763 757.951 198.389C757.951 200.841 757.338 202.68 756.112 203.905C754.887 205.131 753.529 205.744 752.041 205.744C750.64 205.744 749.283 205.262 747.97 204.299C746.744 203.336 746 201.804 745.737 199.703C745.474 197.601 746.044 194.975 747.444 191.823L748.889 192.217C745.299 193.618 742.716 195.106 741.14 196.682C739.564 198.171 738.12 200.184 736.806 202.723ZM754.015 200.359L754.803 197.733H795.122L794.334 200.359H754.015ZM798.143 164.768C796.567 164.768 795.166 165.075 793.94 165.688C792.802 166.301 791.751 167.045 790.788 167.92C789.387 169.234 788.118 171.247 786.979 173.962C785.929 176.588 784.922 179.653 783.959 183.155C782.996 186.57 782.033 190.291 781.069 194.318L755.854 288.221C753.227 288.308 750.732 288.483 748.368 288.746C746.004 289.009 743.727 289.446 741.539 290.059L766.229 197.995C768.068 190.904 770.081 185.037 772.27 180.397C774.547 175.669 777.217 171.904 780.282 169.102C782.47 167.089 785.053 165.513 788.03 164.374C791.095 163.236 794.246 162.667 797.486 162.667C801.951 162.667 805.41 163.674 807.861 165.688C810.313 167.614 811.539 170.065 811.539 173.042C811.539 174.618 811.101 176.194 810.225 177.77C809.35 179.259 808.168 180.484 806.679 181.448C805.278 182.411 803.615 182.892 801.689 182.892C799.675 182.892 798.099 182.454 796.961 181.579C795.822 180.616 795.297 179.303 795.385 177.639C795.385 175.187 796.129 173.086 797.617 171.335C799.193 169.496 801.207 168.183 803.659 167.395C803.571 166.782 803.002 166.213 801.951 165.688C800.988 165.075 799.719 164.768 798.143 164.768ZM835.589 219.665C832.349 228.771 829.285 236.388 826.395 242.517C823.506 248.558 820.617 253.418 817.728 257.095C814.926 260.685 812.036 263.267 809.06 264.843C806.083 266.419 803.018 267.207 799.866 267.207C796.014 267.207 793.168 266.376 791.33 264.712C789.579 262.961 788.659 260.597 788.572 257.62C788.484 254.643 789.053 251.229 790.279 247.376L803.018 208.896C803.894 206.269 804.157 204.343 803.806 203.117C803.544 201.892 802.624 201.279 801.048 201.279C799.56 201.279 798.028 202.111 796.452 203.774C794.963 205.438 793.344 208.721 791.592 213.624L789.622 219.009H787.127L790.41 209.421C791.724 205.744 793.3 202.942 795.138 201.016C797.065 199.09 799.035 197.777 801.048 197.076C803.15 196.288 805.12 195.894 806.958 195.894C810.811 195.894 813.481 196.77 814.97 198.521C816.458 200.272 817.115 202.636 816.94 205.613C816.852 208.502 816.195 211.654 814.97 215.069L802.756 251.973C800.479 258.802 801.267 262.217 805.12 262.217C807.046 262.217 809.147 261.254 811.424 259.328C813.7 257.314 816.02 254.468 818.384 250.791C820.836 247.114 823.243 242.78 825.607 237.789C827.971 232.798 830.248 227.282 832.437 221.241C834.626 215.2 836.596 208.808 838.347 202.067L835.589 219.665ZM837.427 254.206C836.814 256.482 836.508 258.321 836.508 259.721C836.596 261.122 837.471 261.823 839.135 261.823C840.973 261.823 842.637 260.903 844.125 259.065C845.701 257.139 847.233 253.943 848.722 249.478L850.692 243.962H853.187L849.904 253.68C848.678 257.27 847.146 260.028 845.307 261.954C843.469 263.88 841.499 265.237 839.397 266.025C837.384 266.813 835.37 267.207 833.356 267.207C831.693 267.207 830.16 266.857 828.759 266.157C827.446 265.544 826.439 264.625 825.739 263.399C824.951 261.823 824.644 259.897 824.819 257.62C824.995 255.344 825.52 252.411 826.395 248.821L839.397 197.733C842.112 197.645 844.651 197.47 847.015 197.207C849.466 196.945 851.699 196.507 853.713 195.894L837.427 254.206ZM869.229 254.206C868.616 256.657 868.441 258.54 868.704 259.853C869.054 261.166 869.973 261.823 871.462 261.823C872.95 261.823 874.439 260.947 875.927 259.196C877.416 257.445 878.992 254.206 880.655 249.478L882.625 244.093H885.12L881.837 253.68C880.699 257.095 879.254 259.809 877.503 261.823C875.752 263.749 873.87 265.106 871.856 265.894C869.842 266.77 867.741 267.207 865.552 267.207C862.663 267.207 860.474 266.682 858.985 265.631C857.497 264.581 856.49 263.136 855.965 261.297C855.527 259.371 855.439 257.27 855.702 254.994C856.052 252.717 856.578 250.397 857.278 248.033L878.422 177.77C879.298 174.793 879.21 172.605 878.16 171.204C877.109 169.803 874.439 169.102 870.148 169.102L871.068 166.344C876.321 166.257 880.961 165.775 884.989 164.9C889.104 163.937 893.044 162.623 896.809 160.96L869.229 254.206ZM909.548 237.899L909.782 236.547C910.777 230.888 912.114 226.38 913.793 223.022C915.503 219.633 917.555 216.912 919.949 214.86C922.374 212.777 925.141 210.865 928.25 209.124C930.271 207.942 932.152 206.621 933.893 205.159C935.635 203.698 937.096 202.035 938.277 200.169C939.49 198.273 940.267 196.158 940.609 193.826C941.045 191.059 940.796 188.665 939.863 186.644C938.93 184.623 937.485 183.069 935.526 181.98C933.567 180.861 931.251 180.301 928.577 180.301C926.214 180.301 923.851 180.799 921.488 181.794C919.125 182.789 917.042 184.343 915.238 186.458C913.435 188.541 912.191 191.23 911.507 194.526H897.329C898.449 188.929 900.625 184.203 903.859 180.348C907.123 176.462 911.056 173.523 915.658 171.534C920.291 169.544 925.234 168.549 930.489 168.549C936.179 168.549 940.998 169.621 944.947 171.767C948.895 173.881 951.74 176.85 953.481 180.675C955.254 184.468 955.72 188.898 954.88 193.966C954.321 197.449 953.264 200.589 951.709 203.387C950.154 206.154 948.18 208.626 945.786 210.803C943.423 212.979 940.718 214.891 937.671 216.539C934.78 218.125 932.37 219.804 930.442 221.576C928.546 223.317 927.007 225.385 925.825 227.779C924.675 230.142 923.789 233.064 923.167 236.547L922.934 237.899H909.548ZM913.14 266.255C910.528 266.255 908.351 265.353 906.61 263.55C904.9 261.747 904.061 259.539 904.092 256.927C904.123 254.347 905.087 252.186 906.983 250.445C908.911 248.672 911.15 247.786 913.699 247.786C916.249 247.786 918.425 248.688 920.229 250.491C922.032 252.295 922.871 254.44 922.747 256.927C922.654 258.668 922.156 260.254 921.255 261.684C920.384 263.084 919.234 264.203 917.803 265.042C916.373 265.851 914.819 266.255 913.14 266.255Z" fill="#1F1F1F"/>
<path d="M155.639 178.369V150.95H165.412C167.536 150.95 169.299 151.316 170.7 152.048C172.11 152.78 173.164 153.793 173.86 155.087C174.556 156.372 174.904 157.858 174.904 159.545C174.904 161.223 174.552 162.7 173.846 163.977C173.15 165.244 172.097 166.23 170.687 166.935C169.286 167.64 167.523 167.993 165.399 167.993H157.995V164.432H165.024C166.362 164.432 167.451 164.24 168.29 163.856C169.138 163.472 169.759 162.915 170.151 162.183C170.544 161.451 170.74 160.572 170.74 159.545C170.74 158.51 170.54 157.613 170.138 156.854C169.745 156.096 169.125 155.515 168.277 155.114C167.438 154.703 166.336 154.498 164.97 154.498H159.776V178.369H155.639ZM169.174 165.998L175.948 178.369H171.236L164.595 165.998H169.174ZM186.714 178.784C184.688 178.784 182.943 178.351 181.479 177.485C180.024 176.61 178.9 175.383 178.105 173.803C177.32 172.215 176.927 170.354 176.927 168.221C176.927 166.114 177.32 164.258 178.105 162.651C178.9 161.045 180.006 159.791 181.426 158.889C182.854 157.988 184.523 157.537 186.433 157.537C187.593 157.537 188.718 157.729 189.806 158.113C190.895 158.496 191.873 159.099 192.738 159.92C193.604 160.741 194.287 161.808 194.787 163.12C195.287 164.423 195.537 166.007 195.537 167.873V169.292H179.19V166.293H191.614C191.614 165.24 191.4 164.307 190.971 163.495C190.543 162.674 189.94 162.026 189.164 161.553C188.396 161.08 187.495 160.844 186.459 160.844C185.335 160.844 184.353 161.121 183.514 161.674C182.684 162.218 182.041 162.932 181.586 163.816C181.14 164.691 180.917 165.641 180.917 166.668V169.011C180.917 170.385 181.158 171.554 181.64 172.518C182.131 173.482 182.813 174.218 183.688 174.727C184.563 175.227 185.585 175.477 186.754 175.477C187.513 175.477 188.204 175.37 188.829 175.156C189.454 174.933 189.994 174.602 190.449 174.165C190.904 173.728 191.252 173.188 191.493 172.545L195.282 173.228C194.979 174.343 194.434 175.321 193.649 176.16C192.872 176.99 191.895 177.637 190.717 178.101C189.548 178.556 188.213 178.784 186.714 178.784ZM204.454 178.824C203.151 178.824 201.973 178.583 200.92 178.101C199.867 177.61 199.032 176.901 198.416 175.972C197.809 175.044 197.506 173.906 197.506 172.558C197.506 171.398 197.729 170.443 198.175 169.693C198.622 168.944 199.224 168.35 199.983 167.913C200.741 167.475 201.589 167.145 202.527 166.922C203.464 166.699 204.419 166.529 205.392 166.413C206.623 166.27 207.623 166.154 208.391 166.065C209.158 165.967 209.716 165.811 210.064 165.597C210.412 165.382 210.586 165.034 210.586 164.552V164.459C210.586 163.289 210.256 162.383 209.595 161.741C208.944 161.098 207.971 160.777 206.677 160.777C205.329 160.777 204.267 161.076 203.49 161.674C202.723 162.263 202.192 162.919 201.897 163.642L198.135 162.785C198.582 161.536 199.233 160.527 200.09 159.759C200.956 158.983 201.951 158.421 203.075 158.072C204.2 157.715 205.383 157.537 206.623 157.537C207.444 157.537 208.315 157.635 209.234 157.832C210.162 158.019 211.028 158.367 211.831 158.876C212.643 159.385 213.308 160.112 213.826 161.058C214.344 161.995 214.603 163.214 214.603 164.713V178.369H210.693V175.557H210.533C210.274 176.075 209.886 176.584 209.368 177.084C208.85 177.583 208.185 177.998 207.373 178.329C206.561 178.659 205.588 178.824 204.454 178.824ZM205.325 175.611C206.431 175.611 207.377 175.392 208.163 174.955C208.957 174.517 209.56 173.946 209.97 173.241C210.39 172.527 210.6 171.764 210.6 170.952V168.301C210.457 168.444 210.18 168.578 209.769 168.703C209.368 168.819 208.908 168.921 208.391 169.011C207.873 169.091 207.369 169.167 206.878 169.238C206.387 169.301 205.976 169.354 205.646 169.399C204.869 169.497 204.16 169.662 203.517 169.894C202.884 170.126 202.375 170.461 201.991 170.898C201.616 171.327 201.429 171.898 201.429 172.612C201.429 173.603 201.795 174.352 202.527 174.861C203.258 175.361 204.191 175.611 205.325 175.611ZM226.124 178.77C224.464 178.77 222.983 178.346 221.68 177.499C220.385 176.642 219.368 175.423 218.627 173.844C217.895 172.255 217.529 170.349 217.529 168.127C217.529 165.905 217.9 164.003 218.641 162.424C219.39 160.844 220.417 159.634 221.72 158.795C223.023 157.956 224.5 157.537 226.151 157.537C227.428 157.537 228.454 157.751 229.23 158.18C230.016 158.599 230.623 159.09 231.051 159.652C231.489 160.215 231.828 160.71 232.069 161.138H232.31V150.95H236.313V178.369H232.403V175.169H232.069C231.828 175.606 231.48 176.106 231.024 176.668C230.578 177.231 229.962 177.722 229.177 178.141C228.391 178.561 227.374 178.77 226.124 178.77ZM227.008 175.356C228.159 175.356 229.132 175.053 229.927 174.446C230.73 173.83 231.337 172.978 231.747 171.889C232.167 170.8 232.377 169.533 232.377 168.087C232.377 166.659 232.171 165.409 231.761 164.338C231.35 163.267 230.748 162.433 229.953 161.835C229.159 161.237 228.177 160.938 227.008 160.938C225.803 160.938 224.799 161.25 223.996 161.875C223.192 162.499 222.586 163.352 222.175 164.432C221.773 165.512 221.573 166.73 221.573 168.087C221.573 169.461 221.778 170.697 222.188 171.795C222.599 172.893 223.206 173.763 224.009 174.406C224.821 175.04 225.821 175.356 227.008 175.356ZM243.048 186.08C242.45 186.08 241.906 186.031 241.415 185.933C240.924 185.844 240.558 185.746 240.317 185.638L241.281 182.358C242.013 182.555 242.665 182.64 243.236 182.613C243.807 182.586 244.311 182.372 244.749 181.97C245.195 181.569 245.588 180.913 245.927 180.002L246.422 178.637L238.898 157.805H243.182L248.39 173.763H248.604L253.812 157.805H258.11L249.635 181.113C249.243 182.184 248.743 183.09 248.136 183.831C247.529 184.581 246.806 185.143 245.967 185.518C245.128 185.893 244.155 186.08 243.048 186.08ZM278.433 157.805V161.018H267.2V157.805H278.433ZM270.212 152.878H274.215V172.331C274.215 173.107 274.331 173.692 274.563 174.085C274.796 174.468 275.095 174.732 275.46 174.874C275.835 175.008 276.241 175.075 276.679 175.075C277 175.075 277.281 175.053 277.522 175.008C277.763 174.964 277.951 174.928 278.085 174.901L278.807 178.208C278.575 178.297 278.245 178.387 277.817 178.476C277.388 178.574 276.853 178.628 276.21 178.637C275.157 178.654 274.175 178.467 273.265 178.074C272.354 177.682 271.618 177.075 271.056 176.253C270.494 175.432 270.212 174.401 270.212 173.161V152.878ZM289.794 178.784C287.866 178.784 286.184 178.342 284.747 177.458C283.31 176.575 282.194 175.339 281.4 173.75C280.605 172.161 280.208 170.305 280.208 168.18C280.208 166.047 280.605 164.182 281.4 162.584C282.194 160.987 283.31 159.746 284.747 158.862C286.184 157.979 287.866 157.537 289.794 157.537C291.722 157.537 293.404 157.979 294.841 158.862C296.278 159.746 297.394 160.987 298.188 162.584C298.983 164.182 299.38 166.047 299.38 168.18C299.38 170.305 298.983 172.161 298.188 173.75C297.394 175.339 296.278 176.575 294.841 177.458C293.404 178.342 291.722 178.784 289.794 178.784ZM289.807 175.423C291.057 175.423 292.092 175.093 292.913 174.433C293.734 173.772 294.341 172.893 294.734 171.795C295.136 170.697 295.336 169.488 295.336 168.167C295.336 166.855 295.136 165.65 294.734 164.552C294.341 163.446 293.734 162.557 292.913 161.888C292.092 161.219 291.057 160.884 289.807 160.884C288.549 160.884 287.504 161.219 286.674 161.888C285.853 162.557 285.242 163.446 284.84 164.552C284.448 165.65 284.251 166.855 284.251 168.167C284.251 169.488 284.448 170.697 284.84 171.795C285.242 172.893 285.853 173.772 286.674 174.433C287.504 175.093 288.549 175.423 289.807 175.423ZM311.131 178.369V150.95H315.134V161.138H315.375C315.607 160.71 315.941 160.215 316.379 159.652C316.816 159.09 317.423 158.599 318.2 158.18C318.976 157.751 320.002 157.537 321.279 157.537C322.939 157.537 324.421 157.956 325.724 158.795C327.027 159.634 328.049 160.844 328.789 162.424C329.539 164.003 329.914 165.905 329.914 168.127C329.914 170.349 329.544 172.255 328.803 173.844C328.062 175.423 327.045 176.642 325.75 177.499C324.456 178.346 322.979 178.77 321.319 178.77C320.069 178.77 319.047 178.561 318.253 178.141C317.468 177.722 316.852 177.231 316.406 176.668C315.959 176.106 315.616 175.606 315.375 175.169H315.04V178.369H311.131ZM315.053 168.087C315.053 169.533 315.263 170.8 315.683 171.889C316.102 172.978 316.709 173.83 317.503 174.446C318.298 175.053 319.271 175.356 320.422 175.356C321.618 175.356 322.618 175.04 323.421 174.406C324.224 173.763 324.831 172.893 325.242 171.795C325.661 170.697 325.871 169.461 325.871 168.087C325.871 166.73 325.666 165.512 325.255 164.432C324.853 163.352 324.246 162.499 323.434 161.875C322.631 161.25 321.627 160.938 320.422 160.938C319.262 160.938 318.28 161.237 317.477 161.835C316.682 162.433 316.08 163.267 315.669 164.338C315.259 165.409 315.053 166.659 315.053 168.087ZM345.928 169.841V157.805H349.944V178.369H346.008V174.808H345.794C345.321 175.905 344.562 176.82 343.518 177.552C342.482 178.275 341.193 178.637 339.649 178.637C338.328 178.637 337.158 178.346 336.141 177.766C335.132 177.177 334.338 176.307 333.758 175.156C333.187 174.004 332.901 172.581 332.901 170.885V157.805H336.904V170.403C336.904 171.804 337.292 172.92 338.069 173.75C338.845 174.58 339.854 174.995 341.095 174.995C341.844 174.995 342.59 174.808 343.33 174.433C344.08 174.058 344.7 173.491 345.191 172.732C345.691 171.974 345.937 171.01 345.928 169.841ZM353.815 178.369V157.805H357.818V178.369H353.815ZM355.836 154.632C355.14 154.632 354.542 154.4 354.042 153.936C353.551 153.463 353.306 152.9 353.306 152.249C353.306 151.588 353.551 151.026 354.042 150.562C354.542 150.089 355.14 149.852 355.836 149.852C356.532 149.852 357.126 150.089 357.617 150.562C358.117 151.026 358.367 151.588 358.367 152.249C358.367 152.9 358.117 153.463 357.617 153.936C357.126 154.4 356.532 154.632 355.836 154.632ZM365.698 150.95V178.369H361.695V150.95H365.698ZM377.273 178.77C375.613 178.77 374.132 178.346 372.829 177.499C371.534 176.642 370.517 175.423 369.776 173.844C369.044 172.255 368.678 170.349 368.678 168.127C368.678 165.905 369.049 164.003 369.79 162.424C370.539 160.844 371.566 159.634 372.869 158.795C374.172 157.956 375.649 157.537 377.3 157.537C378.577 157.537 379.603 157.751 380.38 158.18C381.165 158.599 381.772 159.09 382.2 159.652C382.638 160.215 382.977 160.71 383.218 161.138H383.459V150.95H387.462V178.369H383.552V175.169H383.218C382.977 175.606 382.629 176.106 382.174 176.668C381.727 177.231 381.111 177.722 380.326 178.141C379.541 178.561 378.523 178.77 377.273 178.77ZM378.157 175.356C379.308 175.356 380.281 175.053 381.076 174.446C381.879 173.83 382.486 172.978 382.896 171.889C383.316 170.8 383.526 169.533 383.526 168.087C383.526 166.659 383.32 165.409 382.91 164.338C382.499 163.267 381.897 162.433 381.102 161.835C380.308 161.237 379.326 160.938 378.157 160.938C376.952 160.938 375.948 161.25 375.145 161.875C374.342 162.499 373.735 163.352 373.324 164.432C372.922 165.512 372.722 166.73 372.722 168.087C372.722 169.461 372.927 170.697 373.337 171.795C373.748 172.893 374.355 173.763 375.158 174.406C375.97 175.04 376.97 175.356 378.157 175.356ZM415.546 162.825L411.918 163.468C411.766 163.004 411.525 162.562 411.195 162.142C410.874 161.723 410.436 161.379 409.883 161.112C409.33 160.844 408.638 160.71 407.808 160.71C406.674 160.71 405.728 160.964 404.97 161.473C404.211 161.973 403.832 162.62 403.832 163.414C403.832 164.102 404.086 164.655 404.595 165.074C405.103 165.494 405.925 165.838 407.058 166.105L410.325 166.855C412.217 167.292 413.627 167.966 414.555 168.877C415.484 169.787 415.948 170.97 415.948 172.424C415.948 173.656 415.591 174.754 414.877 175.718C414.172 176.673 413.185 177.423 411.918 177.967C410.66 178.512 409.2 178.784 407.54 178.784C405.237 178.784 403.359 178.293 401.904 177.311C400.449 176.32 399.556 174.915 399.226 173.094L403.095 172.505C403.336 173.513 403.832 174.276 404.581 174.794C405.331 175.303 406.308 175.557 407.513 175.557C408.825 175.557 409.874 175.285 410.66 174.741C411.445 174.187 411.838 173.513 411.838 172.719C411.838 172.076 411.597 171.536 411.115 171.099C410.642 170.662 409.914 170.331 408.932 170.108L405.452 169.345C403.533 168.908 402.113 168.212 401.194 167.257C400.284 166.302 399.829 165.092 399.829 163.629C399.829 162.415 400.168 161.353 400.846 160.442C401.524 159.532 402.462 158.822 403.658 158.313C404.854 157.796 406.224 157.537 407.768 157.537C409.99 157.537 411.739 158.019 413.016 158.983C414.292 159.938 415.136 161.219 415.546 162.825ZM427.503 178.784C425.575 178.784 423.893 178.342 422.456 177.458C421.019 176.575 419.903 175.339 419.109 173.75C418.315 172.161 417.917 170.305 417.917 168.18C417.917 166.047 418.315 164.182 419.109 162.584C419.903 160.987 421.019 159.746 422.456 158.862C423.893 157.979 425.575 157.537 427.503 157.537C429.431 157.537 431.113 157.979 432.55 158.862C433.987 159.746 435.103 160.987 435.897 162.584C436.692 164.182 437.089 166.047 437.089 168.18C437.089 170.305 436.692 172.161 435.897 173.75C435.103 175.339 433.987 176.575 432.55 177.458C431.113 178.342 429.431 178.784 427.503 178.784ZM427.517 175.423C428.766 175.423 429.801 175.093 430.623 174.433C431.444 173.772 432.051 172.893 432.443 171.795C432.845 170.697 433.046 169.488 433.046 168.167C433.046 166.855 432.845 165.65 432.443 164.552C432.051 163.446 431.444 162.557 430.623 161.888C429.801 161.219 428.766 160.884 427.517 160.884C426.258 160.884 425.214 161.219 424.384 161.888C423.563 162.557 422.951 163.446 422.55 164.552C422.157 165.65 421.961 166.855 421.961 168.167C421.961 169.488 422.157 170.697 422.55 171.795C422.951 172.893 423.563 173.772 424.384 174.433C425.214 175.093 426.258 175.423 427.517 175.423ZM440.049 178.369V157.805H443.892V161.152H444.146C444.574 160.018 445.275 159.135 446.248 158.501C447.221 157.858 448.386 157.537 449.742 157.537C451.117 157.537 452.268 157.858 453.196 158.501C454.133 159.144 454.825 160.027 455.271 161.152H455.486C455.977 160.054 456.758 159.179 457.829 158.528C458.9 157.867 460.176 157.537 461.658 157.537C463.523 157.537 465.045 158.122 466.223 159.291C467.41 160.46 468.003 162.223 468.003 164.579V178.369H464V164.954C464 163.562 463.621 162.553 462.862 161.928C462.104 161.303 461.198 160.991 460.145 160.991C458.842 160.991 457.829 161.393 457.106 162.196C456.383 162.99 456.021 164.012 456.021 165.262V178.369H452.032V164.7C452.032 163.584 451.683 162.687 450.987 162.009C450.291 161.33 449.385 160.991 448.27 160.991C447.511 160.991 446.81 161.192 446.168 161.594C445.534 161.986 445.021 162.535 444.628 163.24C444.244 163.945 444.052 164.762 444.052 165.69V178.369H440.049ZM480.724 178.784C478.698 178.784 476.953 178.351 475.489 177.485C474.034 176.61 472.909 175.383 472.115 173.803C471.33 172.215 470.937 170.354 470.937 168.221C470.937 166.114 471.33 164.258 472.115 162.651C472.909 161.045 474.016 159.791 475.435 158.889C476.863 157.988 478.532 157.537 480.442 157.537C481.603 157.537 482.727 157.729 483.816 158.113C484.905 158.496 485.882 159.099 486.748 159.92C487.614 160.741 488.297 161.808 488.797 163.12C489.296 164.423 489.546 166.007 489.546 167.873V169.292H473.2V166.293H485.624C485.624 165.24 485.409 164.307 484.981 163.495C484.553 162.674 483.95 162.026 483.174 161.553C482.406 161.08 481.505 160.844 480.469 160.844C479.345 160.844 478.363 161.121 477.524 161.674C476.694 162.218 476.051 162.932 475.596 163.816C475.15 164.691 474.927 165.641 474.927 166.668V169.011C474.927 170.385 475.168 171.554 475.65 172.518C476.14 173.482 476.823 174.218 477.698 174.727C478.573 175.227 479.595 175.477 480.764 175.477C481.522 175.477 482.214 175.37 482.839 175.156C483.464 174.933 484.004 174.602 484.459 174.165C484.914 173.728 485.262 173.188 485.503 172.545L489.292 173.228C488.988 174.343 488.444 175.321 487.659 176.16C486.882 176.99 485.905 177.637 484.727 178.101C483.557 178.556 482.223 178.784 480.724 178.784ZM502.079 157.805V161.018H490.846V157.805H502.079ZM493.859 152.878H497.862V172.331C497.862 173.107 497.978 173.692 498.21 174.085C498.442 174.468 498.741 174.732 499.107 174.874C499.482 175.008 499.888 175.075 500.325 175.075C500.646 175.075 500.928 175.053 501.169 175.008C501.41 174.964 501.597 174.928 501.731 174.901L502.454 178.208C502.222 178.297 501.892 178.387 501.463 178.476C501.035 178.574 500.499 178.628 499.857 178.637C498.803 178.654 497.822 178.467 496.911 178.074C496.001 177.682 495.264 177.075 494.702 176.253C494.14 175.432 493.859 174.401 493.859 173.161V152.878ZM509.444 166.159V178.369H505.441V150.95H509.39V161.152H509.645C510.127 160.045 510.863 159.166 511.854 158.514C512.844 157.863 514.139 157.537 515.736 157.537C517.146 157.537 518.378 157.827 519.431 158.407C520.494 158.987 521.315 159.853 521.895 161.004C522.484 162.147 522.778 163.575 522.778 165.289V178.369H518.775V165.771C518.775 164.262 518.387 163.093 517.611 162.263C516.834 161.424 515.754 161.004 514.371 161.004C513.425 161.004 512.577 161.205 511.827 161.607C511.086 162.009 510.502 162.598 510.073 163.374C509.654 164.142 509.444 165.07 509.444 166.159ZM526.612 178.369V157.805H530.615V178.369H526.612ZM528.634 154.632C527.938 154.632 527.34 154.4 526.84 153.936C526.349 153.463 526.103 152.9 526.103 152.249C526.103 151.588 526.349 151.026 526.84 150.562C527.34 150.089 527.938 149.852 528.634 149.852C529.33 149.852 529.924 150.089 530.414 150.562C530.914 151.026 531.164 151.588 531.164 152.249C531.164 152.9 530.914 153.463 530.414 153.936C529.924 154.4 529.33 154.632 528.634 154.632ZM538.496 166.159V178.369H534.493V157.805H538.335V161.152H538.589C539.062 160.063 539.803 159.188 540.812 158.528C541.829 157.867 543.11 157.537 544.654 157.537C546.055 157.537 547.283 157.832 548.336 158.421C549.389 159.001 550.206 159.866 550.786 161.018C551.366 162.169 551.656 163.593 551.656 165.289V178.369H547.653V165.771C547.653 164.28 547.265 163.115 546.488 162.276C545.712 161.428 544.645 161.004 543.288 161.004C542.36 161.004 541.535 161.205 540.812 161.607C540.098 162.009 539.531 162.598 539.111 163.374C538.701 164.142 538.496 165.07 538.496 166.159ZM564.138 186.509C562.505 186.509 561.099 186.294 559.921 185.866C558.752 185.438 557.797 184.871 557.056 184.166C556.315 183.461 555.762 182.689 555.396 181.85L558.837 180.431C559.078 180.823 559.399 181.238 559.801 181.676C560.211 182.122 560.765 182.501 561.461 182.814C562.166 183.126 563.072 183.282 564.179 183.282C565.696 183.282 566.95 182.912 567.941 182.171C568.931 181.439 569.427 180.27 569.427 178.663V174.62H569.172C568.931 175.057 568.583 175.544 568.128 176.079C567.682 176.615 567.066 177.079 566.281 177.472C565.495 177.864 564.473 178.061 563.215 178.061C561.59 178.061 560.127 177.682 558.823 176.923C557.529 176.155 556.503 175.026 555.744 173.536C554.994 172.036 554.62 170.193 554.62 168.006C554.62 165.82 554.99 163.945 555.731 162.383C556.481 160.822 557.507 159.626 558.81 158.795C560.113 157.956 561.59 157.537 563.241 157.537C564.518 157.537 565.549 157.751 566.334 158.18C567.12 158.599 567.731 159.09 568.168 159.652C568.615 160.215 568.958 160.71 569.199 161.138H569.494V157.805H573.416V178.824C573.416 180.591 573.006 182.042 572.185 183.175C571.364 184.309 570.252 185.148 568.851 185.692C567.459 186.236 565.888 186.509 564.138 186.509ZM564.098 174.741C565.25 174.741 566.223 174.473 567.017 173.937C567.82 173.393 568.427 172.616 568.838 171.608C569.257 170.59 569.467 169.372 569.467 167.953C569.467 166.569 569.262 165.351 568.851 164.298C568.441 163.245 567.838 162.424 567.044 161.835C566.249 161.237 565.268 160.938 564.098 160.938C562.893 160.938 561.889 161.25 561.086 161.875C560.283 162.491 559.676 163.33 559.265 164.392C558.864 165.454 558.663 166.641 558.663 167.953C558.663 169.301 558.868 170.483 559.279 171.501C559.689 172.518 560.296 173.313 561.099 173.884C561.912 174.455 562.911 174.741 564.098 174.741Z" fill="#1F1F1F"/>
</svg>
