<svg width="224" height="224" viewBox="0 0 224 224" fill="none" xmlns="http://www.w3.org/2000/svg">
<mask id="path-1-inside-1_106_73" fill="white">
<path d="M138.905 46.5186L171.799 13.625L210.066 51.8926L177.173 84.7861H223.691V138.905H177.174L210.067 171.799L171.799 210.066L138.905 177.173V223.691H84.7861V177.173L51.8926 210.066L13.625 171.799L46.5186 138.905H0V84.7861H46.5186L13.625 51.8926L51.8926 13.625L84.7861 46.5176V0H138.905V46.5186Z"/>
</mask>
<path d="M138.905 46.5186L171.799 13.625L210.066 51.8926L177.173 84.7861H223.691V138.905H177.174L210.067 171.799L171.799 210.066L138.905 177.173V223.691H84.7861V177.173L51.8926 210.066L13.625 171.799L46.5186 138.905H0V84.7861H46.5186L13.625 51.8926L51.8926 13.625L84.7861 46.5176V0H138.905V46.5186Z" fill="white"/>
<path d="M138.905 46.5186H137.905V48.9328L139.612 47.2257L138.905 46.5186ZM171.799 13.625L172.506 12.9179L171.799 12.2108L171.092 12.9179L171.799 13.625ZM210.066 51.8926L210.774 52.5997L211.481 51.8926L210.774 51.1855L210.066 51.8926ZM177.173 84.7861L176.466 84.079L174.759 85.7861H177.173V84.7861ZM223.691 84.7861H224.691V83.7861H223.691V84.7861ZM223.691 138.905V139.905H224.691V138.905H223.691ZM177.174 138.905V137.905H174.76L176.467 139.612L177.174 138.905ZM210.067 171.799L210.774 172.506L211.482 171.799L210.774 171.092L210.067 171.799ZM171.799 210.066L171.092 210.774L171.799 211.481L172.506 210.774L171.799 210.066ZM138.905 177.173L139.612 176.466L137.905 174.759V177.173H138.905ZM138.905 223.691V224.691H139.905V223.691H138.905ZM84.7861 223.691H83.7861V224.691H84.7861V223.691ZM84.7861 177.173H85.7861V174.759L84.079 176.466L84.7861 177.173ZM51.8926 210.066L51.1855 210.774L51.8926 211.481L52.5997 210.774L51.8926 210.066ZM13.625 171.799L12.9179 171.092L12.2108 171.799L12.9179 172.506L13.625 171.799ZM46.5186 138.905L47.2257 139.612L48.9328 137.905H46.5186V138.905ZM0 138.905H-1V139.905H0V138.905ZM0 84.7861V83.7861H-1V84.7861H0ZM46.5186 84.7861V85.7861H48.9328L47.2257 84.079L46.5186 84.7861ZM13.625 51.8926L12.9179 51.1855L12.2108 51.8926L12.9179 52.5997L13.625 51.8926ZM51.8926 13.625L52.5997 12.9179L51.8926 12.2108L51.1855 12.9179L51.8926 13.625ZM84.7861 46.5176L84.079 47.2247L85.7861 48.9317V46.5176H84.7861ZM84.7861 0V-1H83.7861V0H84.7861ZM138.905 0H139.905V-1H138.905V0ZM138.905 46.5186L139.612 47.2257L172.506 14.3321L171.799 13.625L171.092 12.9179L138.198 45.8114L138.905 46.5186ZM171.799 13.625L171.092 14.3321L209.359 52.5997L210.066 51.8926L210.774 51.1855L172.506 12.9179L171.799 13.625ZM210.066 51.8926L209.359 51.1855L176.466 84.079L177.173 84.7861L177.88 85.4932L210.774 52.5997L210.066 51.8926ZM177.173 84.7861V85.7861H223.691V84.7861V83.7861H177.173V84.7861ZM223.691 84.7861H222.691V138.905H223.691H224.691V84.7861H223.691ZM223.691 138.905V137.905H177.174V138.905V139.905H223.691V138.905ZM177.174 138.905L176.467 139.612L209.36 172.506L210.067 171.799L210.774 171.092L177.881 138.198L177.174 138.905ZM210.067 171.799L209.36 171.092L171.092 209.359L171.799 210.066L172.506 210.774L210.774 172.506L210.067 171.799ZM171.799 210.066L172.506 209.359L139.612 176.466L138.905 177.173L138.198 177.88L171.092 210.774L171.799 210.066ZM138.905 177.173H137.905V223.691H138.905H139.905V177.173H138.905ZM138.905 223.691V222.691H84.7861V223.691V224.691H138.905V223.691ZM84.7861 223.691H85.7861V177.173H84.7861H83.7861V223.691H84.7861ZM84.7861 177.173L84.079 176.466L51.1855 209.359L51.8926 210.066L52.5997 210.774L85.4932 177.88L84.7861 177.173ZM51.8926 210.066L52.5997 209.359L14.3321 171.092L13.625 171.799L12.9179 172.506L51.1855 210.774L51.8926 210.066ZM13.625 171.799L14.3321 172.506L47.2257 139.612L46.5186 138.905L45.8114 138.198L12.9179 171.092L13.625 171.799ZM46.5186 138.905V137.905H0V138.905V139.905H46.5186V138.905ZM0 138.905H1V84.7861H0H-1V138.905H0ZM0 84.7861V85.7861H46.5186V84.7861V83.7861H0V84.7861ZM46.5186 84.7861L47.2257 84.079L14.3321 51.1855L13.625 51.8926L12.9179 52.5997L45.8114 85.4932L46.5186 84.7861ZM13.625 51.8926L14.3321 52.5997L52.5997 14.3321L51.8926 13.625L51.1855 12.9179L12.9179 51.1855L13.625 51.8926ZM51.8926 13.625L51.1855 14.3321L84.079 47.2247L84.7861 46.5176L85.4932 45.8105L52.5997 12.9179L51.8926 13.625ZM84.7861 46.5176H85.7861V0H84.7861H83.7861V46.5176H84.7861ZM84.7861 0V1H138.905V0V-1H84.7861V0ZM138.905 0H137.905V46.5186H138.905H139.905V0H138.905Z" fill="#CDCED8" mask="url(#path-1-inside-1_106_73)"/>
</svg>
