<svg width="344" height="224" overflow="visible" style="display: block;" viewBox="0 0 344 224" fill="none" xmlns="http://www.w3.org/2000/svg">
<g id="StarBlock1 1" clip-path="url(#clip0_0_5)">
<path id="Vector" d="M283.105 126.846L283.105 96.8457L313.105 96.8457M283.105 126.846H313.105V96.8457M283.105 126.846L283.105 156.846H253.105L253.105 126.846L283.105 126.846ZM313.105 96.8457V66.8457L343.105 66.8457V96.8457H313.105Z" stroke="var(--stroke-0, #CDCED8)"/>
<path id="Vector_2" d="M138.405 0.5V47.7256L171.799 14.332L209.359 51.8926L175.966 85.2861H223.191V138.405H175.967L209.359 171.798L171.799 209.359L138.405 175.966V223.191H85.2861V175.966L51.8926 209.359L14.332 171.799L47.7256 138.405H0.5V85.2861H47.7256L14.332 51.8926L51.8926 14.3311L85.2861 47.7246V0.5H138.405Z" fill="var(--fill-0, white)" stroke="var(--stroke-0, #CDCED8)"/>
</g>
<defs>
<clipPath id="clip0_0_5">
<rect width="344" height="224" fill="white"/>
</clipPath>
</defs>
</svg>
