<svg preserveAspectRatio="none" width="100%" height="100%" overflow="visible" style="display: block;" viewBox="0 0 256 157.655" fill="none" xmlns="http://www.w3.org/2000/svg">
<g id="Vector">
<path d="M65.4648 1C82.8422 1.00012 96.9297 15.0875 96.9297 32.4648C96.9296 42.0489 92.6426 50.6303 85.8838 56.4014C88.6661 58.7771 91.0291 61.6286 92.8467 64.8311C98.2544 55.3027 108.491 48.8741 120.229 48.874C130.731 48.874 140.03 54.0194 145.745 61.9258C151.461 54.0195 160.759 48.874 171.261 48.874C182.152 48.8742 191.749 54.4078 197.397 62.8164C203.046 54.4076 212.644 48.8741 223.535 48.874C240.913 48.874 255 62.9614 255 80.3389C255 97.7161 240.912 111.803 223.535 111.803C212.644 111.803 203.046 106.269 197.397 97.8594C196.208 99.6308 194.842 101.273 193.326 102.765C199.126 108.472 202.725 116.411 202.725 125.191C202.724 142.568 188.638 156.655 171.261 156.655C160.759 156.655 151.461 151.509 145.745 143.603C140.03 151.509 130.731 156.655 120.229 156.655C102.852 156.655 88.7649 142.569 88.7646 125.191C88.7646 116.411 92.3624 108.472 98.1621 102.765C96.0869 100.722 94.2938 98.3949 92.8467 95.8447C87.4391 105.373 77.2037 111.803 65.4648 111.803C48.0875 111.803 34.0002 97.7161 34 80.3389C34 70.755 38.2855 62.1725 45.0439 56.4014C38.2857 50.6303 34.0001 42.0485 34 32.4648C34 15.0874 48.0874 1 65.4648 1ZM145.745 98.75C144.709 100.184 143.554 101.527 142.296 102.765C143.554 104.003 144.709 105.345 145.745 106.778C146.781 105.345 147.936 104.002 149.193 102.765C147.935 101.527 146.782 100.184 145.745 98.75Z" fill="white"/>
<path d="M85.8838 56.4014L85.2344 55.6409L84.3438 56.4014L85.2344 57.1619L85.8838 56.4014ZM92.8467 64.8311L91.977 65.3247L92.8467 66.857L93.7164 65.3246L92.8467 64.8311ZM145.745 61.9258L144.935 62.5116L145.745 63.6327L146.556 62.5116L145.745 61.9258ZM197.397 62.8164L196.567 63.374L197.397 64.6098L198.228 63.374L197.397 62.8164ZM197.397 97.8594L198.228 97.3018L197.397 96.0659L196.567 97.3018L197.397 97.8594ZM193.326 102.765L192.625 102.052L191.9 102.765L192.625 103.477L193.326 102.765ZM145.745 143.603L146.556 143.017L145.745 141.896L144.935 143.017L145.745 143.603ZM98.1621 102.765L98.8635 103.477L99.5878 102.765L98.8635 102.052L98.1621 102.765ZM92.8467 95.8447L93.7164 95.3512L92.8467 93.8186L91.977 95.3512L92.8467 95.8447ZM45.0439 56.4014L45.6933 57.1618L46.5839 56.4014L45.6933 55.6409L45.0439 56.4014ZM145.745 98.75L146.556 98.1642L145.745 97.043L144.935 98.1642L145.745 98.75ZM142.296 102.765L141.594 102.052L140.87 102.765L141.594 103.477L142.296 102.765ZM145.745 106.778L144.935 107.364L145.745 108.485L146.556 107.364L145.745 106.778ZM149.193 102.765L149.895 103.477L150.619 102.765L149.895 102.052L149.193 102.765ZM65.4648 1V2C82.2899 2.00012 95.9297 15.6398 95.9297 32.4648H96.9297L97.9297 32.4649C97.9297 14.5353 83.3944 0.000128 65.4649 0L65.4648 1ZM96.9297 32.4648H95.9297C95.9296 41.7438 91.7804 50.0516 85.2344 55.6409L85.8838 56.4014L86.5331 57.1619C93.5048 51.2091 97.9296 42.3539 97.9297 32.4649L96.9297 32.4648ZM85.8838 56.4014L85.2344 57.1619C87.929 59.4626 90.2172 62.2241 91.977 65.3247L92.8467 64.8311L93.7164 64.3375C91.841 61.0331 89.4032 58.0915 86.5331 55.6409L85.8838 56.4014ZM92.8467 64.8311L93.7164 65.3246C98.9537 56.0965 108.865 49.8741 120.229 49.874V48.874V47.874C108.116 47.8741 97.5551 54.5089 91.977 64.3375L92.8467 64.8311ZM120.229 48.874V49.874C130.396 49.874 139.399 54.8541 144.935 62.5116L145.745 61.9258L146.556 61.3399C140.66 53.1847 131.066 47.874 120.229 47.874V48.874ZM145.745 61.9258L146.556 62.5116C152.091 54.8542 161.094 49.874 171.261 49.874V48.874V47.874C160.425 47.874 150.83 53.1848 144.935 61.3399L145.745 61.9258ZM171.261 48.874V49.874C181.804 49.8742 191.097 55.2301 196.567 63.374L197.397 62.8164L198.228 62.2588C192.402 53.5855 182.499 47.8742 171.261 47.874V48.874ZM197.397 62.8164L198.228 63.374C203.698 55.2299 212.991 49.8741 223.535 49.874V48.874V47.874C212.297 47.8741 202.393 53.5852 196.567 62.2588L197.397 62.8164ZM223.535 48.874V49.874C240.36 49.874 254 63.5137 254 80.3389H255H256C256 62.4092 241.465 47.874 223.535 47.874V48.874ZM255 80.3389H254C254 97.1638 240.36 110.803 223.535 110.803V111.803V112.803C241.465 112.803 256 98.2685 256 80.3389H255ZM223.535 111.803V110.803C212.991 110.803 203.698 105.446 198.228 97.3018L197.397 97.8594L196.567 98.4169C202.393 107.091 212.297 112.803 223.535 112.803V111.803ZM197.397 97.8594L196.567 97.3018C195.416 99.0167 194.093 100.607 192.625 102.052L193.326 102.765L194.028 103.477C195.591 101.939 197 100.245 198.228 98.4169L197.397 97.8594ZM193.326 102.765L192.625 103.477C198.242 109.005 201.725 116.69 201.725 125.191H202.725H203.725C203.725 116.132 200.011 107.94 194.028 102.052L193.326 102.765ZM202.725 125.191H201.725C201.724 142.016 188.086 155.655 171.261 155.655V156.655V157.655C189.19 157.655 203.724 143.121 203.725 125.191H202.725ZM171.261 156.655V155.655C161.094 155.655 152.091 150.675 146.556 143.017L145.745 143.603L144.935 144.188C150.83 152.344 160.424 157.655 171.261 157.655V156.655ZM145.745 143.603L144.935 143.017C139.399 150.675 130.397 155.655 120.229 155.655V156.655V157.655C131.066 157.655 140.66 152.344 146.556 144.188L145.745 143.603ZM120.229 156.655V155.655C103.405 155.655 89.7649 142.016 89.7646 125.191H88.7646H87.7646C87.7649 143.121 102.3 157.655 120.229 157.655V156.655ZM88.7646 125.191H89.7646C89.7646 116.69 93.2468 109.005 98.8635 103.477L98.1621 102.765L97.4607 102.052C91.4779 107.94 87.7646 116.132 87.7646 125.191H88.7646ZM98.1621 102.765L98.8635 102.052C96.8537 100.074 95.1175 97.8201 93.7164 95.3512L92.8467 95.8447L91.977 96.3383C93.4702 98.9696 95.32 101.371 97.4607 103.477L98.1621 102.765ZM92.8467 95.8447L91.977 95.3512C86.7397 104.58 76.8292 110.803 65.4648 110.803V111.803V112.803C77.5781 112.803 88.1385 106.167 93.7164 96.3383L92.8467 95.8447ZM65.4648 111.803V110.803C48.6398 110.803 35.0002 97.1638 35 80.3389H34H33C33.0002 98.2685 47.5353 112.803 65.4648 112.803V111.803ZM34 80.3389H35C35 71.0599 39.1478 62.7511 45.6933 57.1618L45.0439 56.4014L44.3946 55.6409C37.4232 61.5938 33 70.4501 33 80.3389H34ZM45.0439 56.4014L45.6933 55.6409C39.148 50.0517 35.0001 41.7435 35 32.4648H34H33C33.0001 42.3533 37.4234 51.209 44.3946 57.1618L45.0439 56.4014ZM34 32.4648H35C35 15.6397 48.6397 2 65.4648 2V1L65.4649 0C47.5352 0 33 14.5351 33 32.4648H34ZM145.745 98.75L144.935 98.1642C143.931 99.5526 142.813 100.853 141.594 102.052L142.296 102.765L142.997 103.477C144.295 102.2 145.486 100.815 146.556 99.3358L145.745 98.75ZM142.296 102.765L141.594 103.477C142.813 104.676 143.931 105.976 144.935 107.364L145.745 106.778L146.556 106.192C145.486 104.713 144.295 103.329 142.997 102.052L142.296 102.765ZM145.745 106.778L146.556 107.364C147.559 105.976 148.677 104.676 149.895 103.477L149.193 102.765L148.492 102.052C147.195 103.329 146.004 104.713 144.935 106.192L145.745 106.778ZM149.193 102.765L149.895 102.052C148.677 100.853 147.559 99.5527 146.556 98.1642L145.745 98.75L144.935 99.3358C146.004 100.815 147.194 102.2 148.492 103.477L149.193 102.765Z" fill="#CDCED8"/>
<path d="M0 74.1567L7.43094e-07 57.1567H17V74.1567H0Z" fill="#4662FF"/>
<path d="M17 91.1567V74.1567H34V91.1567H17Z" fill="#4662FF"/>
<path d="M34 74.1567V57.1567H51V74.1567H34Z" fill="#C7FF46"/>
<path d="M51 74.1567V57.1567H68V74.1567H51Z" fill="var(--fill-0, #353535)"/>
</g>
</svg>
