<svg width="777.354" height="252.291" overflow="visible" style="display: block;" viewBox="0 0 777.354 252.291" fill="none" xmlns="http://www.w3.org/2000/svg">
<path id="Vector" d="M7.88199 231.462C5.30499 238.311 2.99399 245.258 0.959991 252.291L0 252.013C2.041 244.954 4.36099 237.983 6.94699 231.109L7.88199 231.462ZM770.406 231.109C772.993 237.983 775.312 244.954 777.354 252.013L776.394 252.29C774.36 245.257 772.049 238.311 769.472 231.462L770.406 231.109ZM26.405 191.692C22.82 198.096 19.48 204.612 16.395 211.23L15.941 211.019V211.02L15.489 210.808C18.585 204.167 21.936 197.629 25.532 191.204L26.405 191.692ZM751.82 191.204C755.417 197.629 758.768 204.167 761.864 210.808L761.413 211.02L761.412 211.019L760.96 211.23C757.874 204.612 754.534 198.096 750.949 191.692L751.694 191.275L751.82 191.204ZM50.509 155.012C46.056 160.861 41.823 166.835 37.817 172.924L36.982 172.374C41 166.266 45.247 160.274 49.714 154.406L50.509 155.012ZM727.64 154.406C732.106 160.274 736.352 166.266 740.37 172.374L739.537 172.924C735.532 166.835 731.298 160.861 726.845 155.012L727.64 154.406ZM79.348 121.896C74.164 127.13 69.174 132.498 64.386 137.991L64.009 137.662L63.633 137.335C68.435 131.825 73.439 126.441 78.638 121.192L79.348 121.896ZM698.716 121.192C703.914 126.441 708.917 131.825 713.72 137.335L713.346 137.663L713.345 137.662L712.969 137.991C708.181 132.497 703.19 127.13 698.006 121.896L698.716 121.192ZM112.094 92.6387C106.32 97.2102 100.713 101.924 95.283 106.771L94.617 106.025C100.017 101.204 105.591 96.516 111.33 91.9678L111.474 91.8545L112.094 92.6387ZM665.88 91.8545C671.669 96.4381 677.29 101.164 682.735 106.025L682.07 106.771C676.64 101.924 671.034 97.2102 665.26 92.6387L665.88 91.8545ZM148.042 67.3652C141.783 71.2638 135.668 75.3103 129.707 79.499L129.133 78.6816C135.109 74.4822 141.239 70.4248 147.513 66.5166L148.042 67.3652ZM629.841 66.5156C636.115 70.4239 642.244 74.4821 648.221 78.6816L647.646 79.499C641.685 75.3104 635.571 71.2638 629.312 67.3652L629.841 66.5156ZM186.522 46.1641C179.892 49.375 173.385 52.7399 167.008 56.251L166.525 55.375C172.918 51.8555 179.441 48.484 186.087 45.2656L186.522 46.1641ZM591.266 45.2646C597.912 48.4833 604.435 51.8562 610.828 55.376L610.347 56.251C603.97 52.7398 597.462 49.375 590.831 46.1641L591.266 45.2646ZM226.999 29.0488C220.074 31.5759 213.252 34.2605 206.541 37.0967L206.151 36.1768C212.825 33.3563 219.607 30.6844 226.492 28.1689L226.656 28.1094L226.999 29.0488ZM550.697 28.1094C557.638 30.6421 564.475 33.3331 571.201 36.1758L570.812 37.0967C564.102 34.2606 557.281 31.5758 550.355 29.0488L550.697 28.1094ZM268.993 16.0127C261.852 17.8566 254.797 19.8615 247.835 22.0215L247.539 21.0674C254.516 18.9027 261.586 16.8938 268.743 15.0459L268.993 16.0127ZM508.61 15.0459C515.767 16.8938 522.837 18.9027 529.814 21.0674L529.52 22.0215C522.558 19.8615 515.503 17.8566 508.361 16.0127L508.61 15.0459ZM312.018 7.04785C304.74 8.21215 297.533 9.53973 290.403 11.0244L290.199 10.0459C297.345 8.55799 304.566 7.22831 311.859 6.06152L312.018 7.04785ZM465.494 6.06152C472.787 7.22825 480.008 8.55807 487.153 10.0459L487.053 10.5352L487.052 10.5342L486.95 11.0244C479.821 9.53976 472.614 8.21213 465.337 7.04785L465.494 6.06152ZM355.69 2.10449C348.333 2.5994 341.033 3.25863 333.796 4.07715L333.694 3.18359L333.684 3.08496C340.936 2.26471 348.251 1.60336 355.623 1.10742L355.69 2.10449ZM421.73 1.10742C429.102 1.60335 436.417 2.26472 443.67 3.08496L443.615 3.58105L443.614 3.58008L443.559 4.07715C436.321 3.2586 429.021 2.59941 421.664 2.10449L421.73 1.10742ZM388.677 0C392.371 0 396.053 0.0421938 399.723 0.124023L399.701 1.12305C396.039 1.04137 392.363 1 388.677 1C384.99 1 381.316 1.04138 377.653 1.12305L377.64 0.540039L377.631 0.124023C381.301 0.0421878 384.983 1.81552e-06 388.677 0Z" fill="var(--fill-0, #CDCED8)"/>
</svg>
