<svg preserveAspectRatio="none" width="100%" height="100%" overflow="visible" style="display: block;" viewBox="0 0 697.42 248.5" fill="none" xmlns="http://www.w3.org/2000/svg">
<g id="squareCircleStack1 1">
<g id="circles">
<path d="M514.46 171.484C615.23 171.484 696.92 143.841 696.92 109.742C696.92 75.6427 615.23 47.9998 514.46 47.9998C413.69 47.9998 332 75.6427 332 109.742C332 143.841 413.69 171.484 514.46 171.484Z" stroke="var(--stroke-0, #CDCED8)"/>
<path d="M514.46 210.007C615.23 210.007 696.92 182.364 696.92 148.265C696.92 114.166 615.23 86.5228 514.46 86.5228C413.69 86.5228 332 114.166 332 148.265C332 182.364 413.69 210.007 514.46 210.007Z" stroke="var(--stroke-0, #CDCED8)"/>
<path d="M514.46 248C615.23 248 696.92 220.357 696.92 186.258C696.92 152.159 615.23 124.516 514.46 124.516C413.69 124.516 332 152.159 332 186.258C332 220.357 413.69 248 514.46 248Z" stroke="var(--stroke-0, #CDCED8)"/>
</g>
<g id="squares">
<path d="M597 120V90H627V120H597Z" fill="#353535"/>
<path d="M627 90V60H657V90H627Z" fill="#C7FF46"/>
<path d="M627 30V0L657 1.31134e-06V30L627 30Z" fill="var(--fill-0, #4662FF)"/>
<path d="M468.125 166V136H498.125V166H468.125Z" fill="var(--fill-0, #4662FF)"/>
<path d="M468.125 196V166H498.125V196H468.125Z" fill="#C7FF46"/>
<path d="M468.125 226V196H498.125V226H468.125Z" fill="#353535"/>
<path d="M120 181V151H90V181H120Z" fill="var(--fill-0, #4662FF)"/>
<path d="M90 211V181H60V211H90Z" fill="var(--fill-0, #4662FF)"/>
<path d="M60 181V151H30V181H60Z" fill="#C7FF46"/>
<path d="M30 181V151H0V181H30Z" fill="#353535"/>
<path d="M274.822 200.012V170.012H304.822V200.012H274.822Z" fill="var(--fill-0, #4662FF)"/>
<path d="M304.822 170.012V140.012H334.822V170.012H304.822Z" fill="#C7FF46"/>
<path d="M244.822 230.012V200.012H274.822V230.012H244.822Z" fill="#C7FF46"/>
<path d="M388.939 181V151H418.939V181H388.939Z" fill="var(--fill-0, #4662FF)"/>
<path d="M388.939 241V211H418.939V241H388.939Z" fill="#C7FF46"/>
<path d="M388.939 211V181H418.939V211H388.939Z" fill="#C7FF46"/>
<path d="M388.939 151V121H418.939V151H388.939Z" fill="#C7FF46"/>
<path d="M627 196V166H657V196H627Z" fill="var(--fill-0, #4662FF)"/>
<path d="M597 166V136H627V166H597Z" fill="var(--fill-0, #4662FF)"/>
<path d="M627 166V136H657V166H627Z" fill="#C7FF46"/>
<path d="M627 226V196H657V226H627Z" fill="#C7FF46"/>
<path d="M597 196V166H627V196H597Z" fill="#C7FF46"/>
<path d="M597 226V196H627V226H597Z" fill="var(--fill-0, #4662FF)"/>
</g>
</g>
</svg>
